<svg width="35" height="33" viewBox="0 0 35 33" fill="none" xmlns="http://www.w3.org/2000/svg">
<path d="M30.2498 19.75V24.5H34.9998V27.6667H30.2498V32.4167H27.0832V27.6667H22.3332V24.5H27.0832V19.75H30.2498ZM30.2625 0.75C31.1302 0.75 31.8332 1.45458 31.8332 2.32225V17.1248C30.816 16.7659 29.7451 16.5828 28.6665 16.5833V3.91667H3.33317L3.33475 26.0833L18.0471 11.3694C18.3195 11.0966 18.6822 10.9325 19.067 10.908C19.4518 10.8835 19.8323 11.0003 20.1371 11.2364L20.2859 11.371L25.8988 16.9918C24.6712 17.3659 23.532 17.9848 22.55 18.811C21.568 19.6373 20.7635 20.6539 20.185 21.7995C19.6065 22.9451 19.266 24.196 19.184 25.4767C19.102 26.7575 19.2803 28.0416 19.708 29.2516L1.73717 29.25C1.32046 29.2496 0.920957 29.0837 0.626446 28.7889C0.331934 28.4941 0.166504 28.0945 0.166504 27.6777V2.32225C0.169401 1.90643 0.335763 1.50844 0.629649 1.21426C0.923536 0.920078 1.32136 0.753317 1.73717 0.75H30.2625ZM9.6665 7.08333C10.5064 7.08333 11.3118 7.41696 11.9057 8.01083C12.4995 8.60469 12.8332 9.41015 12.8332 10.25C12.8332 11.0899 12.4995 11.8953 11.9057 12.4892C11.3118 13.083 10.5064 13.4167 9.6665 13.4167C8.82665 13.4167 8.0212 13.083 7.42733 12.4892C6.83347 11.8953 6.49984 11.0899 6.49984 10.25C6.49984 9.41015 6.83347 8.60469 7.42733 8.01083C8.0212 7.41696 8.82665 7.08333 9.6665 7.08333Z" fill="#4F4F4F"/>
</svg>
