<svg width="24" height="24" viewBox="0 0 24 24" fill="none" xmlns="http://www.w3.org/2000/svg">
<path d="M8.22 3H15.78C18.66 3 21 5.34 21 8.22V15.78C21 17.1644 20.45 18.4922 19.4711 19.4711C18.4922 20.45 17.1644 21 15.78 21H8.22C5.34 21 3 18.66 3 15.78V8.22C3 6.83557 3.54996 5.50784 4.5289 4.5289C5.50784 3.54996 6.83557 3 8.22 3ZM8.04 4.8C7.1807 4.8 6.35659 5.14136 5.74897 5.74897C5.14136 6.35659 4.8 7.1807 4.8 8.04V15.96C4.8 17.751 6.249 19.2 8.04 19.2H15.96C16.8193 19.2 17.6434 18.8586 18.251 18.251C18.8586 17.6434 19.2 16.8193 19.2 15.96V8.04C19.2 6.249 17.751 4.8 15.96 4.8H8.04ZM16.725 6.15C17.0234 6.15 17.3095 6.26853 17.5205 6.4795C17.7315 6.69048 17.85 6.97663 17.85 7.275C17.85 7.57337 17.7315 7.85952 17.5205 8.0705C17.3095 8.28147 17.0234 8.4 16.725 8.4C16.4266 8.4 16.1405 8.28147 15.9295 8.0705C15.7185 7.85952 15.6 7.57337 15.6 7.275C15.6 6.97663 15.7185 6.69048 15.9295 6.4795C16.1405 6.26853 16.4266 6.15 16.725 6.15ZM12 7.5C13.1935 7.5 14.3381 7.97411 15.182 8.81802C16.0259 9.66193 16.5 10.8065 16.5 12C16.5 13.1935 16.0259 14.3381 15.182 15.182C14.3381 16.0259 13.1935 16.5 12 16.5C10.8065 16.5 9.66193 16.0259 8.81802 15.182C7.97411 14.3381 7.5 13.1935 7.5 12C7.5 10.8065 7.97411 9.66193 8.81802 8.81802C9.66193 7.97411 10.8065 7.5 12 7.5ZM12 9.3C11.2839 9.3 10.5972 9.58446 10.0908 10.0908C9.58446 10.5972 9.3 11.2839 9.3 12C9.3 12.7161 9.58446 13.4028 10.0908 13.9092C10.5972 14.4155 11.2839 14.7 12 14.7C12.7161 14.7 13.4028 14.4155 13.9092 13.9092C14.4155 13.4028 14.7 12.7161 14.7 12C14.7 11.2839 14.4155 10.5972 13.9092 10.0908C13.4028 9.58446 12.7161 9.3 12 9.3Z" fill="white"/>
</svg>
