<svg width="226" height="24" viewBox="0 0 226 24" fill="none" xmlns="http://www.w3.org/2000/svg">
<g clip-path="url(#clip0_2445_3402)">
<path d="M217.609 9.47231C220.114 9.47231 222.244 11.0945 223.022 13.3829L225.123 13.4408C224.317 10.0227 221.237 7.47357 217.609 7.47357C215.248 7.47357 213.118 8.54536 211.707 10.2255C212.11 10.9207 212.398 11.6738 212.628 12.4559C213.607 10.6889 215.478 9.50128 217.609 9.50128V9.47231Z" fill="white"/>
<path d="M217.609 20.9434C215.306 20.9434 213.319 19.5529 212.398 17.5832C212.11 18.3073 211.707 19.0025 211.217 19.6109C211.879 20.5668 212.714 21.3489 213.722 21.9282C214.845 22.5945 216.169 22.9711 217.551 22.9711C217.551 22.9711 217.58 22.9711 217.609 22.9711C217.638 22.9711 217.638 22.9711 217.666 22.9711C219.048 22.9711 220.373 22.5945 221.496 21.9282C223.137 20.9723 224.403 19.4081 225.008 17.5252L222.878 17.4673C221.985 19.495 219.97 20.9144 217.638 20.9144L217.609 20.9434Z" fill="white"/>
<path d="M197.887 15.2078C197.887 15.2078 197.887 15.063 197.887 15.005C197.887 14.3678 197.772 13.7594 197.628 13.1801C197.628 13.1222 197.599 13.0642 197.571 13.0063C197.484 12.7166 197.398 12.4269 197.254 12.1662C196.074 9.38539 193.338 7.44458 190.143 7.44458C187.667 7.44458 185.479 8.60327 184.068 10.4282C183.837 10.7179 183.607 11.0655 183.434 11.3841C182.801 12.5139 182.427 13.8174 182.427 15.2368C182.427 16.1927 182.196 17.0907 181.793 17.8728C181.39 18.6259 180.843 19.2922 180.152 19.8136C179.951 19.7846 179.749 19.7267 179.576 19.6688C178.367 19.3212 177.216 18.8577 177.187 18.8577C177.705 19.466 178.367 20.0453 178.972 20.5088C179.807 21.1751 180.584 21.6385 180.814 21.7834C180.814 21.7834 180.814 21.7834 180.843 21.7834C180.901 21.7544 180.93 21.7254 180.987 21.6965C181.016 21.6965 181.045 21.6675 181.074 21.6385C181.563 21.2909 182.024 20.9144 182.455 20.4798C182.599 20.335 182.715 20.1902 182.83 20.0453C182.945 19.9295 183.031 19.7846 183.118 19.6688C183.146 19.6108 183.175 19.5819 183.204 19.5239C183.262 19.437 183.319 19.3501 183.348 19.2922C183.377 19.2343 183.406 19.1763 183.434 19.1474C184.068 18.0176 184.442 16.7141 184.442 15.2947C184.442 14.3388 184.672 13.4408 185.075 12.6587C186.026 10.8048 187.955 9.55919 190.143 9.55919C193.281 9.55919 195.843 12.1373 195.843 15.2947C195.843 18.4521 193.281 21.0302 190.143 21.0302C187.955 21.0302 186.026 19.7557 185.075 17.9307C184.845 18.7128 184.5 19.437 184.068 20.0743C185.479 21.8992 187.695 23.0579 190.143 23.0579C191.496 23.0579 192.763 22.7103 193.885 22.102C193.885 22.102 193.972 22.0441 194.029 22.0151C195.181 21.3489 196.16 20.364 196.822 19.2053C196.966 18.9446 197.11 18.6549 197.254 18.3652C197.34 18.1625 197.427 17.9307 197.513 17.699C197.686 17.1776 197.801 16.6272 197.859 16.0768C197.859 15.9899 197.859 15.903 197.859 15.8451C197.859 15.7582 197.859 15.6713 197.859 15.6133C197.859 15.5264 197.859 15.4106 197.859 15.3237L197.887 15.2078Z" fill="white"/>
<path d="M211.764 16.2217C211.88 15.7292 211.937 15.2368 211.937 14.7443C211.937 14.5705 211.937 14.3967 211.937 14.194C211.937 13.8464 211.851 13.4987 211.793 13.1511C211.649 12.4559 211.419 11.7607 211.102 11.1234C210.929 10.7758 210.728 10.4282 210.498 10.1096C210.44 10.0516 210.411 9.96474 210.354 9.90681C209.432 8.69018 207.762 7.24182 204.941 7.24182C202.407 7.24182 200.392 8.31361 199.183 10.3703C198.837 10.9496 198.607 11.529 198.405 12.0794C198.78 13.0353 198.981 14.1071 198.981 15.1788C198.981 16.6851 198.607 18.1045 197.945 19.3791V22.971H199.96V15.1788C199.96 14.6864 200.018 12.8904 200.939 11.4131C201.803 9.96474 203.127 9.26953 204.97 9.26953C207.331 9.26953 208.741 10.6889 209.432 12.2532C209.691 12.8615 209.864 13.4987 209.951 14.0781V15.3527C209.864 16.0768 209.605 16.7431 209.202 17.3224C209.116 17.4673 209 17.5831 208.914 17.699C208.05 18.6839 206.812 19.1763 205.2 19.1763H202.81L206.524 22.9421H209.375L207.359 20.9144C208.569 20.5668 209.432 19.9874 210.037 19.437C210.181 19.2922 210.296 19.1763 210.411 19.0315C210.526 18.8867 210.67 18.7418 210.757 18.568C211.045 18.1625 211.304 17.699 211.505 17.2066C211.649 16.8589 211.764 16.5113 211.822 16.1637L211.764 16.2217Z" fill="white"/>
<path d="M213.06 16.2217H220.574V14.194H212.945C212.945 14.3678 212.945 14.5416 212.945 14.7443C212.945 15.2368 212.887 15.7582 212.801 16.2506H213.06V16.2217Z" fill="white"/>
<path d="M174.221 15.5844C173.069 12.1373 174.797 9.87782 175.517 10.1385C175.517 10.1385 175.114 9.64608 174.826 8.5743C175.517 9.32744 176.064 10.1385 176.927 10.1965C178.079 10.2834 179.144 9.93576 179.691 10.2544C180.008 10.4282 180.267 10.602 180.469 10.7179C180.613 10.7758 180.728 10.8337 180.843 10.8048C181.073 10.7758 181.764 10.2254 181.966 9.93576C182.023 9.81989 182.052 9.76195 182.081 9.67505C182.139 9.47228 182.081 9.35641 181.908 8.835C181.908 8.80603 181.851 8.71913 181.793 8.6612C181.534 8.34256 180.843 7.70528 180.008 7.01006C179.115 6.22795 178.05 5.35893 177.1 4.63475C177.273 4.57681 177.417 4.63475 177.503 4.63475C177.33 4.43198 177.1 4.28714 176.553 3.93953C176.035 3.64986 175.603 3.50503 175.517 3.50503C175.488 3.44709 175.43 3.33122 175.344 3.12845C175.085 2.49117 174.653 1.18765 175.114 0.0579224C175.114 0.0579224 174.624 0.521398 174.365 1.07178C174.077 1.68009 174.307 2.2015 173.876 2.3753C173.876 2.3753 173.616 2.25943 173.472 1.70906C173.329 1.12971 173.76 0.144824 173.76 0.0868896C173.76 0.0868896 172.868 0.984874 172.465 3.01258C172.436 3.15742 172.407 3.30225 172.378 3.47606C170.651 3.59193 169.471 3.99747 168.492 4.66372C168.031 4.98236 167.628 5.35893 167.254 5.82241C169.557 4.34508 172.091 5.32996 172.177 5.35893C172.119 5.35893 169.931 5.53273 167.599 6.86523C165.958 7.79218 165.382 9.41435 165.21 10.7468C165.123 11.3841 165.152 11.9345 165.21 12.34C165.238 12.7166 165.296 12.9773 165.296 12.9773C165.497 9.18261 168.952 7.56044 170.392 7.70528C167.455 8.63223 165.066 12.5428 165.67 15.932C166.275 18.1625 167.542 20.306 169.989 21.5806C170.19 21.6965 170.392 21.7834 170.593 21.8703C170.018 20.3929 169.298 17.9018 169.384 15.9899C169.442 14.6574 169.701 13.1222 170.363 12.369C168.981 16.7141 172.206 21.9861 172.638 22.6234C175.344 23.3476 177.734 22.971 179.663 22.2468C178.223 21.4068 175.517 19.437 174.221 15.5844ZM178.281 6.63349H176.927L176.524 5.61964L178.281 6.63349Z" fill="white"/>
</g>
<path d="M24.654 16.6069V20.1732H14.0531V11.402L6.10181 6.39093H15.467V16.6069H24.654Z" fill="#FF872D"/>
<path fill-rule="evenodd" clip-rule="evenodd" d="M24.6538 11.402L32.6051 6.39093H24.6538V11.402Z" fill="white"/>
<path d="M126.581 8.81836H128.598V13.8498C128.598 14.5738 128.786 15.1575 129.163 15.6008C129.547 16.0367 130.064 16.2547 130.715 16.2547C131.365 16.2547 131.878 16.0367 132.255 15.6008C132.639 15.1575 132.831 14.5738 132.831 13.8498V8.81836H134.848V13.8498C134.848 14.6921 134.675 15.4346 134.327 16.0774C133.988 16.7128 133.504 17.2041 132.876 17.5513C132.255 17.8986 131.535 18.0722 130.715 18.0722C129.894 18.0722 129.17 17.8986 128.542 17.5513C127.922 17.2041 127.438 16.7128 127.091 16.0774C126.751 15.4346 126.581 14.6921 126.581 13.8498V8.81836Z" fill="white"/>
<path d="M120.089 14.8472C120.089 15.0762 120.148 15.3016 120.266 15.5232C120.392 15.7375 120.569 15.9148 120.798 16.0552C121.027 16.1882 121.3 16.2547 121.618 16.2547C122.113 16.2547 122.501 16.0958 122.782 15.7781C123.07 15.4604 123.214 15.0393 123.214 14.5147V8.81836H125.231V14.5147C125.231 15.224 125.08 15.8483 124.777 16.3877C124.481 16.927 124.06 17.3408 123.513 17.6289C122.967 17.9244 122.335 18.0722 121.618 18.0722C120.909 18.0722 120.288 17.9281 119.756 17.64C119.224 17.3592 118.811 16.975 118.515 16.4874C118.227 15.9924 118.079 15.4457 118.072 14.8472H120.089Z" fill="white"/>
<path d="M107.698 8.81836H109.305L112.419 13.872L115.533 8.81836H117.14V17.8506H115.123V12.8967L113.028 16.3655H111.809L109.715 12.8967V17.8506H107.698V8.81836Z" fill="white"/>
<path d="M94.7864 8.81847H96.4709L100.981 14.2489V8.70764H102.998V17.7398H101.314L96.8034 12.3094V17.8507H94.7864V8.81847Z" fill="white"/>
<path d="M88.7115 18.0724C87.7879 18.0724 86.9531 17.8655 86.2068 17.4518C85.468 17.0454 84.888 16.4839 84.4669 15.7672C84.0458 15.0432 83.8352 14.2305 83.8352 13.3291C83.8352 12.4277 84.0458 11.6187 84.4669 10.902C84.888 10.178 85.468 9.61279 86.2068 9.20643C86.9531 8.79269 87.7879 8.58582 88.7115 8.58582C89.635 8.58582 90.4662 8.79269 91.205 9.20643C91.9513 9.61279 92.5349 10.178 92.9561 10.902C93.3772 11.6187 93.5878 12.4277 93.5878 13.3291C93.5878 14.2305 93.3772 15.0432 92.9561 15.7672C92.5349 16.4839 91.9513 17.0454 91.205 17.4518C90.4662 17.8655 89.635 18.0724 88.7115 18.0724ZM88.7115 16.2549C89.2508 16.2549 89.7385 16.1293 90.1744 15.8781C90.6103 15.6269 90.9501 15.2796 91.194 14.8363C91.4452 14.3856 91.5708 13.8832 91.5708 13.3291C91.5708 12.7676 91.4452 12.2652 91.194 11.8219C90.9501 11.3786 90.6103 11.0313 90.1744 10.7801C89.7385 10.5289 89.2508 10.4033 88.7115 10.4033C88.1721 10.4033 87.6845 10.5289 87.2486 10.7801C86.8127 11.0313 86.4691 11.3786 86.2179 11.8219C85.9741 12.2652 85.8522 12.7676 85.8522 13.3291C85.8522 13.8832 85.9741 14.3856 86.2179 14.8363C86.4691 15.2796 86.8127 15.6269 87.2486 15.8781C87.6845 16.1293 88.1721 16.2549 88.7115 16.2549Z" fill="white"/>
<path d="M82.6361 8.81836V17.8506H80.6191V8.81836H82.6361Z" fill="white"/>
<path d="M75.0929 8.81836V16.0663H79.6035V17.8506H73.0759V8.81836H75.0929Z" fill="white"/>
<path d="M64.905 8.81836H71.621V10.5694H66.922V12.4091H71.2331V14.1601H66.922V16.0995H71.7207V17.8506H64.905V8.81836Z" fill="white"/>
<path d="M58.9959 14.4039L57.7658 15.8225V17.8506H55.7488V8.81836H57.7658V13.074L61.3787 8.81836H63.85L60.3037 12.9078L64.0384 17.8506H61.5227L58.9959 14.4039Z" fill="white"/>
<path d="M54.1508 8.81836V17.8506H52.1338V8.81836H54.1508Z" fill="white"/>
<path d="M46.6076 8.81836V16.0663H51.1181V17.8506H44.5906V8.81836H46.6076Z" fill="white"/>
<path d="M151.088 13.384L155.152 19.592H152.976L150 14.808L147.024 19.592H144.848L148.912 13.384L144.944 7.49597H147.152L150 11.976L152.848 7.49597H155.056L151.088 13.384Z" fill="white"/>
<defs>
<clipPath id="clip0_2445_3402">
<rect width="60" height="23" fill="white" transform="translate(165.152)"/>
</clipPath>
</defs>
</svg>
