<svg width="253" height="87" viewBox="0 0 253 87" fill="none" xmlns="http://www.w3.org/2000/svg">
<path d="M86.292 78.84H88.668V73.632H86.292V78.84ZM90.012 72.84V79.668C90.012 79.92 89.916 80.004 89.676 80.004H85.272C85.02 80.004 84.948 79.92 84.948 79.668V72.84C84.948 72.6 85.032 72.504 85.284 72.504H89.676C89.904 72.504 90.012 72.612 90.012 72.84ZM92.904 76.932V82.608H91.56V71.868H92.904V75.72H94.368V76.932H92.904ZM100.489 79.344L99.5888 80.256C98.6768 79.668 97.9688 78.792 97.6328 77.976C97.3448 78.888 96.5288 79.836 95.6168 80.604L94.5008 79.764C96.1928 78.696 96.9368 77.1 96.9368 74.784V73.68H95.3048V72.54H99.9848V73.68H98.3528V74.82C98.3528 75.9 98.5208 76.812 98.8448 77.568C99.1688 78.252 99.7088 78.852 100.489 79.344ZM104.233 71.868V82.608H102.925V71.868H104.233ZM102.121 72.048V82.104H100.801V76.476H99.2648V75.216H100.801V72.048H102.121ZM114.722 77.28L113.846 78.264C113.078 78.024 112.286 77.58 111.614 77.052C110.942 76.524 110.402 75.912 110.126 75.336C109.454 76.632 108.242 77.652 106.454 78.276L105.506 77.256C106.61 76.932 107.594 76.38 108.278 75.696C108.998 74.976 109.406 74.148 109.406 73.224V72.228H110.87V73.224C110.858 74.148 111.338 75.024 112.058 75.744C112.778 76.464 113.75 77.028 114.722 77.28ZM115.106 80.136V81.288H105.182V80.136H115.106ZM122.835 78.552V79.704C122.163 79.8 121.191 79.944 120.279 79.992C119.319 80.052 118.215 80.052 116.811 80.052C116.559 80.052 116.487 79.968 116.487 79.716V72.72C116.487 72.48 116.571 72.384 116.823 72.384H121.743V73.524H117.831V75.6H121.599V76.74H117.831V78.9C118.359 78.9 119.295 78.9 120.267 78.852C121.083 78.816 122.067 78.684 122.835 78.552ZM124.683 71.868V82.608H123.315V71.868H124.683ZM132.1 73.86V75.396H130.48V73.86H132.1ZM132.1 78.648V80.184H130.48V78.648H132.1ZM138.045 73.452C138.177 73.152 138.369 72.9 138.597 72.696C139.065 72.252 139.749 71.964 140.613 71.964C141.009 71.964 141.393 72.036 141.765 72.168C142.089 72.3 142.377 72.468 142.617 72.696C143.097 73.128 143.361 73.728 143.361 74.352C143.361 74.976 143.097 75.576 142.617 76.02C142.149 76.464 141.477 76.74 140.613 76.74C139.749 76.74 139.065 76.464 138.597 76.02C138.117 75.576 137.865 74.976 137.865 74.352C137.865 74.04 137.925 73.74 138.045 73.452ZM141.225 75.552C141.753 75.324 142.017 74.868 142.017 74.352C142.017 74.028 141.897 73.728 141.657 73.452C141.429 73.176 141.081 73.032 140.613 73.032C140.133 73.032 139.773 73.176 139.545 73.452C139.317 73.728 139.209 74.028 139.209 74.352C139.209 75.024 139.653 75.66 140.613 75.66C140.841 75.66 141.045 75.624 141.225 75.552ZM141.189 78.792V82.356H139.845V78.816H137.169V77.664H140.313C140.709 77.664 141.477 77.652 142.257 77.604C143.037 77.556 143.865 77.484 144.393 77.388V78.552C143.565 78.696 142.401 78.756 141.189 78.792ZM146.097 71.868V82.608H144.753V71.868H146.097ZM156.418 71.868V77.988H155.074V75.24H153.274C153.166 75.876 152.866 76.404 152.362 76.836C151.87 77.244 151.246 77.448 150.502 77.448C149.674 77.448 148.966 77.16 148.474 76.68C147.982 76.188 147.694 75.504 147.694 74.724C147.694 73.956 147.982 73.272 148.474 72.78C148.966 72.3 149.674 71.988 150.502 71.988C151.21 71.988 151.822 72.192 152.314 72.588C152.806 72.984 153.118 73.476 153.25 74.076H155.074V71.868H156.418ZM151.102 76.188C151.666 75.912 151.954 75.396 151.954 74.724C151.954 73.824 151.414 73.14 150.502 73.14C149.578 73.14 149.05 73.812 149.05 74.724C149.05 75.588 149.578 76.308 150.502 76.308C150.754 76.308 150.946 76.272 151.102 76.188ZM150.538 81.384H155.074V79.548H150.538V81.384ZM156.418 78.768V82.152C156.418 82.404 156.322 82.488 156.082 82.488H149.53C149.278 82.488 149.194 82.404 149.194 82.152V78.768C149.194 78.528 149.278 78.432 149.53 78.432H156.082C156.31 78.432 156.418 78.54 156.418 78.768Z" fill="white"/>
<g clip-path="url(#clip0_2374_3686)">
<path d="M44.703 1.81166L45.5022 1.05225H37.1319L21.8169 37.0376C21.1905 35.4211 20.5424 33.6311 19.8944 31.7108L13.0361 11.8359C12.3665 9.86144 11.8589 8.21242 11.5241 6.95397C11.2001 5.71721 11.0273 4.66488 11.0273 3.82953C11.0273 2.88569 11.2433 2.21306 11.6645 1.82251L12.4961 1.05225H0.356445L1.11248 1.81166C1.97651 2.67956 2.98095 3.99226 4.08259 5.69551V38.5564C4.08259 41.0191 3.85578 43.2756 3.41297 45.2501C2.98095 47.1703 2.40853 48.4722 1.7173 49.1231L0.918068 49.8825H9.3316L8.53237 49.1231C7.84114 48.4722 7.27952 47.1595 6.8367 45.2501C6.39388 43.2756 6.16708 41.0191 6.16708 38.5564V9.44918C6.54509 10.2411 6.9015 11.0331 7.21472 11.8142L13.9434 31.3311C15.4986 36.0178 17.0215 39.7715 18.4688 42.4836C19.9484 45.2501 21.7737 47.3547 23.8906 48.7217C26.0183 50.0995 28.686 50.7938 31.8181 50.7938C34.9502 50.7938 37.4559 49.8825 39.0004 48.0925C40.5232 46.335 41.4737 44.1001 41.8193 41.453C42.1541 38.8602 42.3269 35.3669 42.3269 31.0708V12.3892C42.3269 9.92653 42.5537 7.66999 42.9965 5.69551C43.4285 3.77528 44.001 2.47343 44.6814 1.82251L44.703 1.81166ZM36.9807 6.70445V30.7127C36.9807 34.5532 36.8943 37.7427 36.7107 40.1729C36.5379 42.5596 36.0519 44.6425 35.2634 46.335C34.5182 47.9406 33.395 48.7108 31.8181 48.7108C30.0576 48.7108 28.5132 47.9406 27.0767 46.3675C25.6402 44.7944 24.247 42.5379 22.9401 39.6847L36.9807 6.70445Z" fill="white" stroke="white" stroke-width="0.27" stroke-miterlimit="10"/>
<path d="M82.8284 45.1959C81.6727 43.3842 80.6359 41.3555 79.7395 39.1749L65.9257 1.0415H57.1018L57.9226 1.81177C58.927 2.74476 60.0503 4.25274 61.2491 6.25976L49.6387 38.806C48.7422 41.1602 47.6946 43.2649 46.5174 45.0658C45.3509 46.8667 44.2925 48.2227 43.3636 49.1232L42.5752 49.8826H51.0535L50.3083 49.1232C49.9195 48.7326 49.7251 48.0709 49.7251 47.1596C49.7251 45.7384 50.2219 43.4818 51.1831 40.4876L54.2937 31.7977V32.926H71.6607L73.8964 39.0989C74.5661 41.0843 75.0737 42.7224 75.4085 43.9809C75.7325 45.2176 75.9053 46.27 75.9053 47.1053C75.9053 48.0492 75.6893 48.7218 75.2681 49.1123L74.4365 49.8826H86.6193L85.8201 49.1232C84.9777 48.3095 83.9624 46.986 82.8176 45.1959H82.8284ZM54.4989 31.2553L62.5884 8.64648C63.1068 9.68796 63.582 10.7294 64.014 11.7601L71.0667 31.2553H54.4989Z" fill="white" stroke="white" stroke-width="0.27" stroke-miterlimit="10"/>
<path d="M90.4752 1.8118C91.1664 2.46272 91.728 3.77542 92.16 5.6848C92.6028 7.65928 92.8296 9.91582 92.8296 12.3785V29.8016C92.8296 33.642 92.7432 36.8316 92.5596 39.2617C92.3868 41.6484 91.89 43.7205 91.08 45.4238C90.324 47.0294 89.1791 47.8105 87.6022 47.8105H87.1594V49.8935H87.6022C90.864 49.8935 93.2941 48.9822 94.8277 47.1921C96.329 45.4346 97.2686 43.2215 97.6358 40.5853C97.9923 38.0249 98.1759 34.5208 98.1759 30.1704V12.3893C98.1759 9.91582 98.4027 7.65928 98.8455 5.69565C99.2775 3.77542 99.8499 2.47357 100.53 1.82265L101.33 1.06323H89.6435L90.4428 1.82265L90.4752 1.8118Z" fill="white" stroke="white" stroke-width="0.27" stroke-miterlimit="10"/>
<path d="M163.248 24.4639C161.509 23.3465 159.155 22.088 156.25 20.7211C153.744 19.582 151.735 18.5513 150.277 17.6617C148.862 16.8047 147.674 15.6439 146.713 14.2335C145.773 12.8341 145.298 11.0657 145.298 8.97189C145.298 7.62665 145.687 6.46583 146.486 5.44605C147.296 4.41542 148.344 3.61261 149.618 3.07017C150.914 2.51688 152.275 2.23482 153.679 2.23482C156.25 2.23482 158.313 2.90744 159.792 4.25269C161.272 5.58708 162.179 7.44222 162.482 9.76385L162.622 10.7945L168.011 3.99231H167.093C166.305 3.99231 165.57 3.87298 164.89 3.62346C164.177 3.37394 163.302 2.98338 162.276 2.47349C160.753 1.74662 159.339 1.18249 158.075 0.770235C156.79 0.357982 155.213 0.151855 153.377 0.151855C150.99 0.151855 148.733 0.574957 146.681 1.41031C144.607 2.25651 142.933 3.50412 141.702 5.10974C140.459 6.73705 139.822 8.64643 139.822 10.7728C139.822 13.5609 140.449 15.9368 141.68 17.8462C142.9 19.723 144.412 21.2635 146.162 22.4027C147.89 23.5309 150.191 24.7894 153.01 26.1455C155.515 27.328 157.535 28.3912 159.015 29.3242C160.451 30.2246 161.661 31.3854 162.611 32.7632C163.551 34.1193 164.026 35.8117 164.026 37.7753C164.026 39.9559 163.529 41.9087 162.568 43.5686C161.596 45.2284 160.311 46.5303 158.734 47.4199C157.157 48.3203 155.494 48.7651 153.798 48.7651C151.001 48.7651 148.7 48.1901 146.972 47.0402C145.233 45.8902 143.851 44.4365 142.879 42.7332C141.885 40.9866 140.762 38.5456 139.541 35.4537C138.148 31.8953 136.777 28.9553 135.459 26.7313C134.12 24.4639 132.1 22.522 129.465 20.9815C126.819 19.4301 123.298 18.649 118.988 18.649C117.109 18.649 115.532 18.9094 114.29 19.4301C113.458 19.7773 112.746 20.2871 112.162 20.9381V12.3893C112.162 10.3063 112.249 8.60304 112.422 7.33373C112.584 6.12952 113.016 5.09889 113.696 4.29608C114.344 3.51497 115.338 3.13526 116.731 3.13526H123.352C126.462 3.13526 128.773 3.43903 130.221 4.02486C131.668 4.62154 132.899 5.44605 133.882 6.46583L134.638 7.25779V1.04145H103.652L104.451 1.80087C105.142 2.45179 105.704 3.76449 106.136 5.67387C106.579 7.64835 106.805 9.90489 106.805 12.3676V38.5348C106.805 40.9974 106.579 43.254 106.136 45.2284C105.704 47.1487 105.131 48.4505 104.451 49.1014L103.652 49.8609H133.936L136.344 41.3771L135.059 42.8309C133.904 44.1436 132.413 45.3152 130.62 46.3025C128.849 47.2789 126.257 47.7779 122.93 47.7779H116.796C115.37 47.7779 114.355 47.3982 113.707 46.6171C113.026 45.8143 112.605 44.7836 112.432 43.5794C112.26 42.3101 112.173 40.6069 112.173 38.5239V28.1633C112.173 25.3861 112.713 23.4224 113.772 22.3376C114.83 21.2527 116.591 20.6994 118.999 20.6994C121.408 20.6994 123.308 21.2635 124.918 22.381C126.549 23.5201 127.909 24.9521 128.968 26.6228C130.048 28.3369 131.312 30.7237 132.726 33.7288C134.476 37.4065 136.118 40.379 137.619 42.5922C139.142 44.827 141.226 46.7798 143.829 48.3746C146.454 49.991 149.813 50.8047 153.809 50.8047C156.682 50.8047 159.36 50.2297 161.779 49.0906C164.21 47.9406 166.154 46.3025 167.558 44.2087C168.973 42.1148 169.685 39.6739 169.685 36.9508C169.685 33.8481 169.048 31.2444 167.806 29.2048C166.564 27.1761 165.03 25.5705 163.259 24.4205L163.248 24.4639Z" fill="white" stroke="white" stroke-width="0.27" stroke-miterlimit="10"/>
<path d="M207.66 1.0415H170.701L168.357 9.27571L169.545 8.08235C169.739 7.88707 170.247 7.40972 171.057 6.66116C171.835 5.93429 173.077 5.15318 174.74 4.33953C176.382 3.53672 178.725 3.12447 181.695 3.12447H181.933C183.316 3.12447 184.309 3.50417 184.968 4.28528C185.648 5.08809 186.07 6.11872 186.242 7.32293C186.415 8.59224 186.502 10.2955 186.502 12.3785V38.5457C186.502 41.0083 186.275 43.2649 185.832 45.2393C185.4 47.1596 184.828 48.4614 184.136 49.1232L183.337 49.8826H195.023L194.224 49.1232C193.533 48.4723 192.971 47.1596 192.539 45.2393C192.096 43.2757 191.869 41.0192 191.869 38.5457V12.3893C191.869 10.3063 191.956 8.60309 192.129 7.33378C192.291 6.12957 192.723 5.09894 193.403 4.29613C194.062 3.51502 195.045 3.13531 196.438 3.13531H196.676C198.998 3.13531 201.082 3.44993 202.854 4.06831C204.614 4.68669 206.007 5.45695 206.99 6.36824C208.016 7.32293 208.632 7.89792 208.826 8.0932L210.014 9.28656L208.124 2.57118L207.67 1.05235L207.66 1.0415Z" fill="white" stroke="white" stroke-width="0.27" stroke-miterlimit="10"/>
<path d="M243.625 1.0415L244.478 1.81177C244.781 2.08298 244.932 2.53863 244.932 3.15701C244.932 4.01406 244.673 5.13148 244.154 6.47673C243.625 7.85452 242.837 9.63372 241.822 11.7601L232.674 30.0185L223.418 11.7601C222.392 9.70966 221.582 7.93046 221.02 6.49843C220.469 5.09894 220.188 3.95982 220.188 3.10277C220.188 2.48439 220.318 2.05044 220.577 1.81177L221.441 1.0415H208.772L210.09 1.86601C211.073 2.47354 212.228 3.72115 213.535 5.57628C214.874 7.46397 216.181 9.68796 217.434 12.1723L228.353 33.5769V38.5565C228.353 41.0192 228.127 43.2757 227.684 45.2502C227.252 47.1704 226.679 48.4723 225.988 49.1232L225.189 49.8826H236.875L236.076 49.1232C235.384 48.4723 234.823 47.1596 234.38 45.2502C233.937 43.2757 233.71 41.0192 233.71 38.5565V32.5571L243.971 12.0638C245.299 9.54693 246.66 7.35548 248.021 5.53289C249.36 3.74284 250.494 2.50609 251.412 1.85516L252.536 1.05235H243.625V1.0415Z" fill="white" stroke="white" stroke-width="0.27" stroke-miterlimit="10"/>
</g>
<defs>
<clipPath id="clip0_2374_3686">
<rect width="253" height="51" fill="white"/>
</clipPath>
</defs>
</svg>
