<svg width="103" height="77" viewBox="0 0 103 77" fill="none" xmlns="http://www.w3.org/2000/svg">
<path d="M44.603 11H39.351V10.129L41.041 8.413C41.4397 8.00567 41.769 7.62867 42.029 7.282C42.2977 6.93533 42.497 6.58 42.627 6.216C42.7657 5.84333 42.835 5.423 42.835 4.955C42.835 4.54767 42.7397 4.22267 42.549 3.98C42.3583 3.73733 42.0463 3.616 41.613 3.616C41.249 3.616 40.9327 3.68967 40.664 3.837C40.3953 3.98433 40.1483 4.28767 39.923 4.747L39.351 4.539C39.585 3.89767 39.949 3.408 40.443 3.07C40.9457 2.732 41.548 2.563 42.25 2.563C42.7527 2.563 43.1947 2.654 43.576 2.836C43.966 3.018 44.2693 3.27367 44.486 3.603C44.7113 3.93233 44.824 4.318 44.824 4.76C44.824 5.18467 44.7373 5.579 44.564 5.943C44.3993 6.29833 44.1437 6.658 43.797 7.022C43.4503 7.37733 43.017 7.77167 42.497 8.205L40.989 9.453V9.557L41.808 9.466H43.303C43.6497 9.466 43.8923 9.388 44.031 9.232C44.1697 9.06733 44.3127 8.79 44.46 8.4H45.019L44.603 11ZM48.6605 11.143C48.1319 11.143 47.6812 11.0347 47.3085 10.818C46.9445 10.6013 46.6499 10.298 46.4245 9.908C46.1992 9.518 46.0345 9.063 45.9305 8.543C45.8265 8.01433 45.7745 7.44667 45.7745 6.84C45.7745 5.956 45.8829 5.202 46.0995 4.578C46.3249 3.954 46.6542 3.47733 47.0875 3.148C47.5209 2.81867 48.0539 2.654 48.6865 2.654C49.2585 2.654 49.7569 2.81433 50.1815 3.135C50.6149 3.447 50.9485 3.915 51.1825 4.539C51.4165 5.163 51.5335 5.943 51.5335 6.879C51.5335 7.477 51.4772 8.036 51.3645 8.556C51.2605 9.06733 51.0959 9.518 50.8705 9.908C50.6452 10.298 50.3505 10.6013 49.9865 10.818C49.6225 11.0347 49.1805 11.143 48.6605 11.143ZM48.6475 10.545C48.9422 10.545 49.1675 10.2503 49.3235 9.661C49.4882 9.063 49.5705 8.16167 49.5705 6.957C49.5705 5.683 49.4925 4.74267 49.3365 4.136C49.1805 3.52933 48.9509 3.226 48.6475 3.226C48.3529 3.226 48.1232 3.52933 47.9585 4.136C47.7939 4.74267 47.7115 5.66567 47.7115 6.905C47.7115 8.11833 47.7939 9.02833 47.9585 9.635C48.1232 10.2417 48.3529 10.545 48.6475 10.545ZM57.476 11H52.224V10.129L53.914 8.413C54.3127 8.00567 54.642 7.62867 54.902 7.282C55.1707 6.93533 55.37 6.58 55.5 6.216C55.6387 5.84333 55.708 5.423 55.708 4.955C55.708 4.54767 55.6127 4.22267 55.422 3.98C55.2314 3.73733 54.9194 3.616 54.486 3.616C54.122 3.616 53.8057 3.68967 53.537 3.837C53.2684 3.98433 53.0214 4.28767 52.796 4.747L52.224 4.539C52.458 3.89767 52.822 3.408 53.316 3.07C53.8187 2.732 54.421 2.563 55.123 2.563C55.6257 2.563 56.0677 2.654 56.449 2.836C56.839 3.018 57.1424 3.27367 57.359 3.603C57.5844 3.93233 57.697 4.318 57.697 4.76C57.697 5.18467 57.6104 5.579 57.437 5.943C57.2724 6.29833 57.0167 6.658 56.67 7.022C56.3234 7.37733 55.89 7.77167 55.37 8.205L53.862 9.453V9.557L54.681 9.466H56.176C56.5227 9.466 56.7654 9.388 56.904 9.232C57.0427 9.06733 57.1857 8.79 57.333 8.4H57.892L57.476 11ZM63.5226 11H61.6376V9.414H58.5046V7.984L62.0016 2.615H63.5226V7.893H64.5886V9.414H63.5226V11ZM59.5446 7.841V7.893H61.6376V4.617H61.5986L59.5446 7.841Z" fill="#C5C0BF"/>
<path d="M17.1675 34H13.1035V33.312C13.5302 33.312 13.8448 33.28 14.0475 33.216C14.2608 33.152 14.3995 32.9973 14.4635 32.752C14.5382 32.5067 14.5755 32.112 14.5755 31.568V25.664C14.5755 25.2587 14.5382 24.9493 14.4635 24.736C14.3995 24.5227 14.2608 24.3787 14.0475 24.304C13.8448 24.2187 13.5408 24.176 13.1355 24.176V23.488H17.6315L20.6395 30.896H20.7675L23.7595 23.488H27.9515V24.176C27.5888 24.176 27.3062 24.2187 27.1035 24.304C26.9008 24.3787 26.7622 24.5227 26.6875 24.736C26.6128 24.9493 26.5755 25.2533 26.5755 25.648V32.016C26.5755 32.368 26.6128 32.64 26.6875 32.832C26.7728 33.0133 26.9168 33.1413 27.1195 33.216C27.3222 33.28 27.6048 33.312 27.9675 33.312V34H22.7995V33.312C23.2048 33.312 23.5088 33.28 23.7115 33.216C23.9142 33.1413 24.0475 33.0133 24.1115 32.832C24.1755 32.64 24.2075 32.368 24.2075 32.016V25.648H24.1115L20.6395 34H19.3755L15.8555 25.648H15.7595V31.568C15.7595 32.112 15.7915 32.5067 15.8555 32.752C15.9302 32.9973 16.0688 33.152 16.2715 33.216C16.4742 33.28 16.7728 33.312 17.1675 33.312V34ZM36.881 34H31.297V33.312C31.7663 33.312 32.113 33.2853 32.337 33.232C32.561 33.1787 32.705 33.0453 32.769 32.832C32.8437 32.6187 32.881 32.2773 32.881 31.808V30L30.721 26.336C30.4223 25.824 30.1717 25.424 29.969 25.136C29.7663 24.848 29.585 24.6347 29.425 24.496C29.265 24.3573 29.1103 24.272 28.961 24.24C28.8223 24.1973 28.657 24.176 28.465 24.176V23.488H33.441V24.176C33.0143 24.176 32.7423 24.208 32.625 24.272C32.5077 24.336 32.449 24.4267 32.449 24.544C32.449 24.7147 32.529 24.944 32.689 25.232L34.033 27.664L34.641 28.96H34.753L36.721 25.088C36.7637 25.024 36.801 24.944 36.833 24.848C36.865 24.7413 36.881 24.6507 36.881 24.576C36.881 24.4587 36.8277 24.3627 36.721 24.288C36.625 24.2133 36.3743 24.176 35.969 24.176V23.488H39.601V24.176C39.3023 24.1867 39.0517 24.224 38.849 24.288C38.6463 24.352 38.4543 24.48 38.273 24.672C38.1023 24.8533 37.8997 25.1467 37.665 25.552L35.265 30.016V31.808C35.265 32.2667 35.3077 32.6027 35.393 32.816C35.489 33.0293 35.6543 33.168 35.889 33.232C36.1237 33.2853 36.4543 33.312 36.881 33.312V34ZM44.7809 34.224C43.6609 34.224 42.7062 34.0107 41.9169 33.584C41.1382 33.1573 40.5409 32.5333 40.1249 31.712C39.7195 30.8907 39.5169 29.8987 39.5169 28.736C39.5169 27.616 39.7249 26.6507 40.1409 25.84C40.5569 25.0293 41.1595 24.4053 41.9489 23.968C42.7382 23.52 43.6822 23.296 44.7809 23.296C45.9009 23.296 46.8502 23.5093 47.6289 23.936C48.4182 24.352 49.0155 24.9547 49.4209 25.744C49.8369 26.5333 50.0449 27.4827 50.0449 28.592C50.0449 29.7547 49.8369 30.7573 49.4209 31.6C49.0155 32.4427 48.4182 33.0933 47.6289 33.552C46.8502 34 45.9009 34.224 44.7809 34.224ZM44.7969 33.392C45.7249 33.392 46.4129 33.0133 46.8609 32.256C47.3195 31.488 47.5489 30.2827 47.5489 28.64C47.5489 27.648 47.4315 26.816 47.1969 26.144C46.9729 25.472 46.6475 24.9653 46.2209 24.624C45.8049 24.272 45.3089 24.096 44.7329 24.096C43.8902 24.096 43.2235 24.4853 42.7329 25.264C42.2529 26.0427 42.0129 27.168 42.0129 28.64C42.0129 30.144 42.2422 31.312 42.7009 32.144C43.1595 32.976 43.8582 33.392 44.7969 33.392ZM61.7576 34.112H59.9176L53.7896 25.856H53.2136L52.7336 25.072C52.5523 24.8053 52.3816 24.6133 52.2216 24.496C52.0723 24.368 51.9123 24.2827 51.7416 24.24C51.571 24.1973 51.3736 24.176 51.1496 24.176V23.488H54.9896L60.6056 31.024H60.6856V26.24C60.6856 25.824 60.659 25.4613 60.6056 25.152C60.563 24.8427 60.435 24.6027 60.2216 24.432C60.019 24.2613 59.667 24.176 59.1656 24.176V23.488H63.1976V24.176C62.739 24.176 62.4083 24.2613 62.2056 24.432C62.003 24.6027 61.875 24.8427 61.8216 25.152C61.779 25.4613 61.7576 25.824 61.7576 26.24V34.112ZM55.1656 34H51.1496V33.312C51.5763 33.312 51.8963 33.168 52.1096 32.88C52.323 32.592 52.467 32.2187 52.5416 31.76C52.6163 31.2907 52.6536 30.7893 52.6536 30.256V24.704H53.7096V31.408C53.7096 31.9413 53.747 32.3467 53.8216 32.624C53.8963 32.8907 54.0403 33.072 54.2536 33.168C54.467 33.264 54.771 33.312 55.1656 33.312V34ZM69.5484 34.176C67.735 34.176 66.391 33.7067 65.5164 32.768C64.6417 31.8187 64.2044 30.4853 64.2044 28.768C64.2044 27.5093 64.439 26.48 64.9084 25.68C65.3777 24.8693 66.0177 24.272 66.8284 23.888C67.639 23.4933 68.5564 23.296 69.5804 23.296C70.1457 23.296 70.5937 23.344 70.9244 23.44C71.2657 23.536 71.5377 23.6373 71.7404 23.744C71.943 23.84 72.1137 23.888 72.2524 23.888C72.423 23.888 72.5404 23.8293 72.6044 23.712C72.679 23.584 72.7377 23.4453 72.7804 23.296H73.4844V27.152H72.7004C72.4977 26.096 72.135 25.3333 71.6124 24.864C71.0897 24.3947 70.407 24.16 69.5644 24.16C68.5724 24.16 67.847 24.528 67.3884 25.264C66.9404 25.9893 66.7164 27.0613 66.7164 28.48C66.7164 30.0587 66.935 31.2427 67.3724 32.032C67.8097 32.8213 68.535 33.216 69.5484 33.216C70.0177 33.216 70.407 33.1627 70.7164 33.056C71.0257 32.9493 71.3297 32.7733 71.6284 32.528V31.136C71.6284 30.752 71.5964 30.4587 71.5324 30.256C71.4684 30.0533 71.335 29.92 71.1324 29.856C70.9404 29.7813 70.6417 29.744 70.2364 29.744V29.04H74.7644V29.744C74.3164 29.744 74.0284 29.824 73.9004 29.984C73.7724 30.144 73.7084 30.4747 73.7084 30.976V33.088C73.1217 33.4187 72.503 33.6853 71.8524 33.888C71.2017 34.08 70.4337 34.176 69.5484 34.176ZM77.5525 34.208C77.2005 34.208 76.8485 34.1653 76.4965 34.08C76.1552 33.9947 75.8725 33.8453 75.6485 33.632C75.4245 33.4187 75.3125 33.12 75.3125 32.736C75.3125 32.4267 75.3978 32.1813 75.5685 32C75.7392 31.808 75.9738 31.712 76.2725 31.712C76.5178 31.712 76.7098 31.7707 76.8485 31.888C76.9978 32.0053 77.1098 32.1493 77.1845 32.32C77.2698 32.4907 77.3445 32.6667 77.4085 32.848C77.4725 33.0187 77.5472 33.1627 77.6325 33.28C77.7178 33.3973 77.8352 33.456 77.9845 33.456C78.2832 33.456 78.4805 33.3547 78.5765 33.152C78.6725 32.9387 78.7205 32.5173 78.7205 31.888V25.824C78.7205 25.3973 78.6885 25.0667 78.6245 24.832C78.5605 24.5973 78.4112 24.432 78.1765 24.336C77.9525 24.2293 77.5845 24.176 77.0725 24.176V23.488H82.6245V24.176C82.1445 24.176 81.7978 24.2293 81.5845 24.336C81.3712 24.432 81.2378 24.6027 81.1845 24.848C81.1312 25.0827 81.1045 25.408 81.1045 25.824V31.36C81.1045 31.9787 80.9978 32.48 80.7845 32.864C80.5712 33.2373 80.2885 33.5253 79.9365 33.728C79.5845 33.92 79.2005 34.048 78.7845 34.112C78.3685 34.176 77.9578 34.208 77.5525 34.208ZM88.6841 34H83.3881V33.312C83.8575 33.312 84.1935 33.2747 84.3961 33.2C84.6095 33.1147 84.7428 32.96 84.7961 32.736C84.8495 32.5013 84.8761 32.1547 84.8761 31.696V25.824C84.8761 25.3973 84.8441 25.0667 84.7801 24.832C84.7268 24.5973 84.5935 24.432 84.3801 24.336C84.1775 24.2293 83.8468 24.176 83.3881 24.176V23.488H88.7481V24.176C88.2788 24.176 87.9375 24.2293 87.7241 24.336C87.5108 24.432 87.3775 24.6027 87.3241 24.848C87.2815 25.0827 87.2601 25.408 87.2601 25.824V31.696C87.2601 32.144 87.2815 32.4853 87.3241 32.72C87.3775 32.9547 87.5055 33.1147 87.7081 33.2C87.9108 33.2747 88.2361 33.312 88.6841 33.312V34ZM6.7185 54.224C5.0545 54.224 3.8545 53.8987 3.1185 53.248C2.3825 52.5973 2.0145 51.5307 2.0145 50.048V45.584C2.0145 45.2107 1.97717 44.9227 1.9025 44.72C1.82783 44.5173 1.68383 44.3787 1.4705 44.304C1.25717 44.2187 0.937167 44.176 0.5105 44.176V43.488H5.9025V44.176C5.47583 44.176 5.1505 44.2187 4.9265 44.304C4.71317 44.3787 4.56917 44.5227 4.4945 44.736C4.4305 44.9493 4.3985 45.2587 4.3985 45.664V49.76C4.3985 50.4533 4.4785 51.0347 4.6385 51.504C4.7985 51.9627 5.07583 52.3093 5.4705 52.544C5.86517 52.768 6.4145 52.88 7.1185 52.88C8.12117 52.88 8.85183 52.656 9.3105 52.208C9.76917 51.7493 9.9985 50.9707 9.9985 49.872V46.24C9.9985 45.6747 9.9665 45.2427 9.9025 44.944C9.8385 44.6453 9.69983 44.4427 9.4865 44.336C9.27317 44.2293 8.9425 44.176 8.4945 44.176V43.488H12.6545V44.176C12.1958 44.176 11.8545 44.2293 11.6305 44.336C11.4172 44.4427 11.2785 44.64 11.2145 44.928C11.1612 45.216 11.1345 45.6373 11.1345 46.192V49.776C11.1345 51.2587 10.7932 52.3733 10.1105 53.12C9.4385 53.856 8.30783 54.224 6.7185 54.224ZM23.8358 54.112H21.9958L15.8678 45.856H15.2918L14.8118 45.072C14.6304 44.8053 14.4598 44.6133 14.2998 44.496C14.1504 44.368 13.9904 44.2827 13.8198 44.24C13.6491 44.1973 13.4518 44.176 13.2278 44.176V43.488H17.0677L22.6838 51.024H22.7638V46.24C22.7638 45.824 22.7371 45.4613 22.6838 45.152C22.6411 44.8427 22.5131 44.6027 22.2998 44.432C22.0971 44.2613 21.7451 44.176 21.2438 44.176V43.488H25.2758V44.176C24.8171 44.176 24.4864 44.2613 24.2838 44.432C24.0811 44.6027 23.9531 44.8427 23.8998 45.152C23.8571 45.4613 23.8358 45.824 23.8358 46.24V54.112ZM17.2438 54H13.2278V53.312C13.6544 53.312 13.9744 53.168 14.1878 52.88C14.4011 52.592 14.5451 52.2187 14.6198 51.76C14.6944 51.2907 14.7318 50.7893 14.7318 50.256V44.704H15.7878V51.408C15.7878 51.9413 15.8251 52.3467 15.8998 52.624C15.9744 52.8907 16.1184 53.072 16.3318 53.168C16.5451 53.264 16.8491 53.312 17.2438 53.312V54ZM31.4185 54H26.1225V53.312C26.5918 53.312 26.9278 53.2747 27.1305 53.2C27.3438 53.1147 27.4772 52.96 27.5305 52.736C27.5838 52.5013 27.6105 52.1547 27.6105 51.696V45.824C27.6105 45.3973 27.5785 45.0667 27.5145 44.832C27.4612 44.5973 27.3278 44.432 27.1145 44.336C26.9118 44.2293 26.5812 44.176 26.1225 44.176V43.488H31.4825V44.176C31.0132 44.176 30.6718 44.2293 30.4585 44.336C30.2452 44.432 30.1118 44.6027 30.0585 44.848C30.0158 45.0827 29.9945 45.408 29.9945 45.824V51.696C29.9945 52.144 30.0158 52.4853 30.0585 52.72C30.1118 52.9547 30.2398 53.1147 30.4425 53.2C30.6452 53.2747 30.9705 53.312 31.4185 53.312V54ZM38.4469 54.08H37.1829L33.3429 45.6C33.1829 45.248 33.0335 44.9707 32.8949 44.768C32.7669 44.5547 32.6069 44.4053 32.4149 44.32C32.2335 44.224 31.9775 44.176 31.6469 44.176V43.488H36.9909V44.176C36.7882 44.176 36.6015 44.192 36.4309 44.224C36.2709 44.2453 36.1429 44.304 36.0469 44.4C35.9509 44.4853 35.9029 44.624 35.9029 44.816C35.9029 45.0827 35.9669 45.3707 36.0949 45.68L37.9029 49.744L38.5109 51.312H38.6389L39.2309 49.712L40.9429 45.392C40.9642 45.3387 40.9909 45.2533 41.0229 45.136C41.0655 45.0187 41.0869 44.8853 41.0869 44.736C41.0869 44.5227 41.0015 44.3787 40.8309 44.304C40.6709 44.2187 40.4202 44.176 40.0789 44.176V43.488H43.7109V44.176C43.4762 44.176 43.2789 44.2027 43.1189 44.256C42.9589 44.3093 42.8095 44.416 42.6709 44.576C42.5322 44.736 42.3829 44.9813 42.2229 45.312C42.0629 45.6427 41.8602 46.0907 41.6149 46.656L38.4469 54.08ZM53.1343 54H43.9663V53.312C44.3289 53.312 44.6169 53.2853 44.8303 53.232C45.0543 53.168 45.2143 53.0453 45.3103 52.864C45.4063 52.672 45.4543 52.3787 45.4543 51.984V45.632C45.4543 45.2267 45.4223 44.9227 45.3583 44.72C45.2943 44.5173 45.1556 44.3787 44.9423 44.304C44.7289 44.2293 44.4036 44.192 43.9663 44.192V43.488H52.9583L53.0543 46.384H52.2383C52.1636 45.904 52.0569 45.5253 51.9183 45.248C51.7903 44.9707 51.5769 44.7787 51.2783 44.672C50.9796 44.5547 50.5316 44.496 49.9343 44.496H47.8223V48.176H49.2463C49.7796 48.176 50.1689 48.1493 50.4143 48.096C50.6596 48.0427 50.8143 47.92 50.8783 47.728C50.9529 47.536 50.9903 47.232 50.9903 46.816H51.7423V50.512H50.9903C50.9903 50.064 50.9529 49.7387 50.8783 49.536C50.8143 49.3227 50.6596 49.1893 50.4143 49.136C50.1689 49.072 49.7796 49.04 49.2463 49.04H47.8223V53.024H49.7103C50.2329 53.024 50.6649 52.992 51.0063 52.928C51.3476 52.864 51.6196 52.752 51.8223 52.592C52.0356 52.432 52.2116 52.2133 52.3503 51.936C52.4889 51.648 52.6223 51.2853 52.7503 50.848H53.5183L53.1343 54ZM59.9848 54H54.5288V53.312C54.9341 53.312 55.2434 53.28 55.4568 53.216C55.6701 53.152 55.8141 53.0133 55.8888 52.8C55.9741 52.5867 56.0168 52.2613 56.0168 51.824V45.424C56.0168 45.104 55.9794 44.8533 55.9048 44.672C55.8408 44.4907 55.7021 44.3627 55.4888 44.288C55.2754 44.2133 54.9554 44.176 54.5288 44.176V43.488H59.7448C60.4914 43.488 61.1794 43.5733 61.8088 43.744C62.4488 43.904 62.9608 44.1813 63.3448 44.576C63.7394 44.96 63.9368 45.4933 63.9368 46.176C63.9368 46.7627 63.8194 47.2373 63.5848 47.6C63.3501 47.9627 63.0408 48.2453 62.6568 48.448C62.2728 48.6507 61.8568 48.8053 61.4088 48.912V48.992C61.5794 49.0987 61.7608 49.2747 61.9528 49.52C62.1448 49.7547 62.4061 50.1067 62.7368 50.576C63.0674 51.0453 63.5208 51.6853 64.0968 52.496C64.3421 52.848 64.5928 53.072 64.8488 53.168C65.1154 53.264 65.4301 53.312 65.7928 53.312V54H62.1608C61.7981 53.36 61.4994 52.832 61.2648 52.416C61.0301 52 60.8274 51.6587 60.6568 51.392C60.4968 51.1147 60.3474 50.864 60.2088 50.64C60.0808 50.416 59.9368 50.176 59.7768 49.92C59.6381 49.6747 59.4941 49.52 59.3448 49.456C59.2061 49.392 58.9981 49.36 58.7208 49.36H58.4008V51.84C58.4008 52.2667 58.4381 52.5867 58.5128 52.8C58.5874 53.0133 58.7368 53.152 58.9608 53.216C59.1848 53.28 59.5261 53.312 59.9848 53.312V54ZM58.4008 48.576L59.0088 48.592C59.5421 48.56 59.9901 48.4747 60.3528 48.336C60.7154 48.1973 60.9874 47.968 61.1688 47.648C61.3608 47.3173 61.4568 46.864 61.4568 46.288C61.4568 45.68 61.2914 45.1947 60.9608 44.832C60.6408 44.4587 60.1074 44.272 59.3608 44.272C59.1901 44.272 59.0248 44.2773 58.8648 44.288C58.7048 44.288 58.5501 44.2987 58.4008 44.32V48.576ZM66.969 54.208H66.281L66.137 50.752H66.937C67.1077 51.4347 67.2943 51.9627 67.497 52.336C67.7103 52.6987 67.9663 52.9493 68.265 53.088C68.5637 53.2267 68.9263 53.296 69.353 53.296C69.6943 53.296 70.0143 53.2533 70.313 53.168C70.6223 53.072 70.873 52.9227 71.065 52.72C71.257 52.5067 71.353 52.224 71.353 51.872C71.353 51.4133 71.241 51.04 71.017 50.752C70.793 50.4533 70.4997 50.2027 70.137 50C69.785 49.7867 69.401 49.584 68.985 49.392C68.4943 49.1467 68.0357 48.8907 67.609 48.624C67.1823 48.3467 66.841 48.0053 66.585 47.6C66.329 47.184 66.201 46.6507 66.201 46C66.201 45.4027 66.345 44.9067 66.633 44.512C66.921 44.1173 67.3317 43.8187 67.865 43.616C68.3983 43.4133 69.0277 43.312 69.753 43.312C70.1583 43.312 70.489 43.344 70.745 43.408C71.0117 43.472 71.2303 43.536 71.401 43.6C71.5717 43.664 71.721 43.696 71.849 43.696C71.945 43.696 72.041 43.6747 72.137 43.632C72.233 43.5787 72.297 43.472 72.329 43.312H72.937L73.033 46.672H72.281C72.0463 45.7013 71.7317 45.024 71.337 44.64C70.953 44.256 70.4623 44.064 69.865 44.064C69.2997 44.064 68.873 44.1653 68.585 44.368C68.297 44.5707 68.153 44.8853 68.153 45.312C68.153 45.7067 68.265 46.032 68.489 46.288C68.713 46.5333 69.0117 46.752 69.385 46.944C69.7583 47.136 70.1583 47.3333 70.585 47.536C70.969 47.7067 71.337 47.8987 71.689 48.112C72.0517 48.3147 72.377 48.5547 72.665 48.832C72.953 49.1093 73.1823 49.44 73.353 49.824C73.5237 50.1973 73.609 50.6347 73.609 51.136C73.609 51.7973 73.4383 52.3573 73.097 52.816C72.7663 53.264 72.297 53.6053 71.689 53.84C71.0917 54.0747 70.393 54.192 69.593 54.192C69.081 54.192 68.6863 54.1493 68.409 54.064C68.1317 53.9893 67.9183 53.9147 67.769 53.84C67.6303 53.7547 67.5023 53.712 67.385 53.712C67.2677 53.712 67.1663 53.76 67.081 53.856C67.0063 53.9413 66.969 54.0587 66.969 54.208ZM79.9498 54H74.6538V53.312C75.1231 53.312 75.4591 53.2747 75.6618 53.2C75.8751 53.1147 76.0084 52.96 76.0618 52.736C76.1151 52.5013 76.1418 52.1547 76.1418 51.696V45.824C76.1418 45.3973 76.1098 45.0667 76.0458 44.832C75.9924 44.5973 75.8591 44.432 75.6458 44.336C75.4431 44.2293 75.1124 44.176 74.6538 44.176V43.488H80.0138V44.176C79.5444 44.176 79.2031 44.2293 78.9898 44.336C78.7764 44.432 78.6431 44.6027 78.5898 44.848C78.5471 45.0827 78.5258 45.408 78.5258 45.824V51.696C78.5258 52.144 78.5471 52.4853 78.5898 52.72C78.6431 52.9547 78.7711 53.1147 78.9738 53.2C79.1764 53.2747 79.5018 53.312 79.9498 53.312V54ZM88.5781 54H83.0901V53.312C83.5595 53.312 83.9008 53.28 84.1141 53.216C84.3381 53.1413 84.4821 52.9867 84.5461 52.752C84.6208 52.5173 84.6581 52.16 84.6581 51.68V44.384H83.9381C83.3515 44.384 82.9088 44.4533 82.6101 44.592C82.3221 44.7307 82.1141 44.9653 81.9861 45.296C81.8581 45.6267 81.7355 46.08 81.6181 46.656H80.8181L80.9941 43.488H90.7381L90.8821 46.656H90.0821C89.9648 46.08 89.8368 45.6267 89.6981 45.296C89.5701 44.9653 89.3621 44.7307 89.0741 44.592C88.7861 44.4533 88.3435 44.384 87.7461 44.384H87.0421V51.68C87.0421 52.16 87.0741 52.5173 87.1381 52.752C87.2128 52.9867 87.3568 53.1413 87.5701 53.216C87.7941 53.28 88.1301 53.312 88.5781 53.312V54ZM99.381 54H93.797V53.312C94.2663 53.312 94.613 53.2853 94.837 53.232C95.061 53.1787 95.205 53.0453 95.269 52.832C95.3437 52.6187 95.381 52.2773 95.381 51.808V50L93.221 46.336C92.9223 45.824 92.6717 45.424 92.469 45.136C92.2663 44.848 92.085 44.6347 91.925 44.496C91.765 44.3573 91.6103 44.272 91.461 44.24C91.3223 44.1973 91.157 44.176 90.965 44.176V43.488H95.941V44.176C95.5143 44.176 95.2423 44.208 95.125 44.272C95.0077 44.336 94.949 44.4267 94.949 44.544C94.949 44.7147 95.029 44.944 95.189 45.232L96.533 47.664L97.141 48.96H97.253L99.221 45.088C99.2637 45.024 99.301 44.944 99.333 44.848C99.365 44.7413 99.381 44.6507 99.381 44.576C99.381 44.4587 99.3277 44.3627 99.221 44.288C99.125 44.2133 98.8743 44.176 98.469 44.176V43.488H102.101V44.176C101.802 44.1867 101.552 44.224 101.349 44.288C101.146 44.352 100.954 44.48 100.773 44.672C100.602 44.8533 100.4 45.1467 100.165 45.552L97.765 50.016V51.808C97.765 52.2667 97.8077 52.6027 97.893 52.816C97.989 53.0293 98.1543 53.168 98.389 53.232C98.6237 53.2853 98.9543 53.312 99.381 53.312V54Z" fill="#C5C0BF"/>
<path d="M26.2189 73H22.7689V72.57C23.0223 72.57 23.2156 72.55 23.3489 72.51C23.4823 72.4633 23.5723 72.38 23.6189 72.26C23.6723 72.1333 23.6989 71.9467 23.6989 71.7V67.7C23.6989 67.4667 23.6723 67.29 23.6189 67.17C23.5723 67.05 23.4823 66.97 23.3489 66.93C23.2156 66.89 23.0223 66.87 22.7689 66.87V66.43H28.3889L28.4589 68.27H27.9389C27.8989 68.03 27.8523 67.8333 27.7989 67.68C27.7523 67.52 27.6789 67.3967 27.5789 67.31C27.4789 67.2167 27.3323 67.1533 27.1389 67.12C26.9523 67.08 26.6956 67.06 26.3689 67.06H25.1789V69.41H25.9489C26.2356 69.41 26.4623 69.39 26.6289 69.35C26.8023 69.3033 26.9256 69.2133 26.9989 69.08C27.0723 68.9467 27.1089 68.7467 27.1089 68.48H27.5789V70.82H27.1089C27.1089 70.5467 27.0723 70.35 26.9989 70.23C26.9256 70.11 26.8023 70.0333 26.6289 70C26.4623 69.9667 26.2356 69.95 25.9489 69.95H25.1789V71.77C25.1789 71.9967 25.2089 72.1667 25.2689 72.28C25.3356 72.3933 25.4423 72.47 25.5889 72.51C25.7423 72.55 25.9523 72.57 26.2189 72.57V73ZM29.839 73.11C29.4724 73.11 29.169 73.0233 28.929 72.85C28.6957 72.67 28.579 72.3767 28.579 71.97C28.579 71.69 28.639 71.4567 28.759 71.27C28.879 71.0767 29.0357 70.9167 29.229 70.79C29.4224 70.6633 29.6357 70.56 29.869 70.48C30.1024 70.3933 30.3357 70.32 30.569 70.26C30.8024 70.2 31.0124 70.1433 31.199 70.09V69.61C31.199 69.1833 31.1557 68.9067 31.069 68.78C30.9824 68.6467 30.819 68.58 30.579 68.58C30.379 68.58 30.2424 68.6267 30.169 68.72C30.1024 68.8133 30.069 69.0033 30.069 69.29C30.069 69.5167 30.0024 69.68 29.869 69.78C29.7357 69.88 29.5824 69.93 29.409 69.93C29.2624 69.93 29.1224 69.8767 28.989 69.77C28.8624 69.6567 28.799 69.4867 28.799 69.26C28.799 69.06 28.8757 68.8767 29.029 68.71C29.1824 68.5367 29.399 68.4 29.679 68.3C29.9657 68.1933 30.3024 68.14 30.689 68.14C31.3157 68.14 31.7957 68.26 32.129 68.5C32.4624 68.74 32.629 69.1367 32.629 69.69V71.86C32.629 72.06 32.6524 72.19 32.699 72.25C32.7524 72.31 32.8324 72.34 32.939 72.34C33.019 72.34 33.099 72.3133 33.179 72.26C33.2657 72.2067 33.3457 72.1433 33.419 72.07L33.639 72.29C33.4724 72.5367 33.2857 72.7333 33.079 72.88C32.879 73.0267 32.5924 73.1 32.219 73.1C31.859 73.1 31.6157 73.0433 31.489 72.93C31.369 72.8167 31.289 72.62 31.249 72.34L31.199 72.14V70.48C30.939 70.56 30.719 70.6467 30.539 70.74C30.3657 70.8267 30.2324 70.9433 30.139 71.09C30.0524 71.2367 30.009 71.4367 30.009 71.69C30.009 71.9367 30.0457 72.1167 30.119 72.23C30.199 72.3433 30.3157 72.4 30.469 72.4C30.6157 72.4 30.749 72.3667 30.869 72.3C30.989 72.2267 31.139 72.0967 31.319 71.91L31.379 72.47H31.229C31.069 72.6033 30.9257 72.72 30.799 72.82C30.679 72.9133 30.5457 72.9833 30.399 73.03C30.259 73.0833 30.0724 73.11 29.839 73.11ZM36.6822 73H33.7222V72.6C33.9422 72.6 34.1022 72.58 34.2022 72.54C34.3089 72.4933 34.3756 72.4167 34.4022 72.31C34.4356 72.2033 34.4522 72.06 34.4522 71.88V67.05C34.4522 66.8567 34.4022 66.74 34.3022 66.7C34.2022 66.6533 34.0889 66.63 33.9622 66.63C33.8822 66.63 33.8089 66.6333 33.7422 66.64C33.6822 66.6467 33.6522 66.65 33.6522 66.65V66.25L35.2222 65.94H35.8822V71.88C35.8822 72.0667 35.8989 72.2133 35.9322 72.32C35.9656 72.4267 36.0389 72.5 36.1522 72.54C36.2656 72.58 36.4422 72.6 36.6822 72.6V73ZM39.9537 73H36.9937V72.6C37.2137 72.6 37.3737 72.58 37.4737 72.54C37.5804 72.4933 37.647 72.4167 37.6737 72.31C37.707 72.2033 37.7237 72.06 37.7237 71.88V67.05C37.7237 66.8567 37.6737 66.74 37.5737 66.7C37.4737 66.6533 37.3604 66.63 37.2337 66.63C37.1537 66.63 37.0804 66.6333 37.0137 66.64C36.9537 66.6467 36.9237 66.65 36.9237 66.65V66.25L38.4937 65.94H39.1537V71.88C39.1537 72.0667 39.1704 72.2133 39.2037 72.32C39.237 72.4267 39.3104 72.5 39.4237 72.54C39.537 72.58 39.7137 72.6 39.9537 72.6V73ZM46.2287 73H42.7787V72.57C43.032 72.57 43.2254 72.55 43.3587 72.51C43.492 72.4633 43.582 72.38 43.6287 72.26C43.682 72.1333 43.7087 71.9467 43.7087 71.7V67.7C43.7087 67.4667 43.682 67.29 43.6287 67.17C43.582 67.05 43.492 66.97 43.3587 66.93C43.2254 66.89 43.032 66.87 42.7787 66.87V66.43H48.3987L48.4687 68.27H47.9487C47.9087 68.03 47.862 67.8333 47.8087 67.68C47.762 67.52 47.6887 67.3967 47.5887 67.31C47.4887 67.2167 47.342 67.1533 47.1487 67.12C46.962 67.08 46.7054 67.06 46.3787 67.06H45.1887V69.41H45.9587C46.2454 69.41 46.472 69.39 46.6387 69.35C46.812 69.3033 46.9354 69.2133 47.0087 69.08C47.082 68.9467 47.1187 68.7467 47.1187 68.48H47.5887V70.82H47.1187C47.1187 70.5467 47.082 70.35 47.0087 70.23C46.9354 70.11 46.812 70.0333 46.6387 70C46.472 69.9667 46.2454 69.95 45.9587 69.95H45.1887V71.77C45.1887 71.9967 45.2187 72.1667 45.2787 72.28C45.3454 72.3933 45.452 72.47 45.5987 72.51C45.752 72.55 45.962 72.57 46.2287 72.57V73ZM50.8 73.11C50.3133 73.11 49.9 73.0167 49.56 72.83C49.2266 72.6433 48.97 72.3667 48.79 72C48.6166 71.6333 48.53 71.1867 48.53 70.66C48.53 70.0867 48.64 69.6167 48.86 69.25C49.08 68.8767 49.37 68.6 49.73 68.42C50.0966 68.24 50.4966 68.15 50.93 68.15C51.5633 68.15 52.07 68.3433 52.45 68.73C52.8366 69.11 53.0333 69.6767 53.04 70.43H49.88L49.87 69.96H51.47C51.47 69.6867 51.45 69.4467 51.41 69.24C51.37 69.0333 51.3 68.8733 51.2 68.76C51.1066 68.6467 50.97 68.59 50.79 68.59C50.4833 68.59 50.2733 68.7233 50.16 68.99C50.0466 69.2567 49.99 69.6867 49.99 70.28C49.99 70.72 50.04 71.0667 50.14 71.32C50.24 71.5733 50.39 71.7567 50.59 71.87C50.79 71.9767 51.0366 72.03 51.33 72.03C51.59 72.03 51.81 72.0033 51.99 71.95C52.1766 71.8967 52.3366 71.82 52.47 71.72C52.61 71.6133 52.7333 71.4933 52.84 71.36L53.1 71.54C52.9933 71.7333 52.88 71.9233 52.76 72.11C52.6466 72.2967 52.5066 72.4667 52.34 72.62C52.18 72.7667 51.9766 72.8867 51.73 72.98C51.4833 73.0667 51.1733 73.11 50.8 73.11ZM53.7564 73.12L53.7164 71.23H54.1564C54.2498 71.6967 54.3898 72.0467 54.5764 72.28C54.7631 72.5133 55.0364 72.63 55.3964 72.63C55.6298 72.63 55.8198 72.5833 55.9664 72.49C56.1198 72.3967 56.1964 72.2567 56.1964 72.07C56.1964 71.9633 56.1664 71.8667 56.1064 71.78C56.0464 71.6867 55.9331 71.59 55.7664 71.49C55.6064 71.39 55.3698 71.2667 55.0564 71.12C54.7698 70.98 54.5264 70.8433 54.3264 70.71C54.1331 70.5767 53.9831 70.4167 53.8764 70.23C53.7764 70.0433 53.7264 69.8033 53.7264 69.51C53.7264 69.09 53.8764 68.76 54.1764 68.52C54.4764 68.2733 54.8964 68.15 55.4364 68.15C55.7298 68.15 55.9698 68.1933 56.1564 68.28C56.3431 68.3667 56.4798 68.4367 56.5664 68.49H56.6064L56.7564 68.24H57.1664L57.1964 69.87H56.7564C56.6231 69.39 56.4598 69.0633 56.2664 68.89C56.0731 68.71 55.8398 68.62 55.5664 68.62C55.3331 68.62 55.1631 68.6733 55.0564 68.78C54.9498 68.88 54.8964 69.0033 54.8964 69.15C54.8964 69.3633 54.9931 69.5233 55.1864 69.63C55.3798 69.73 55.6498 69.8667 55.9964 70.04C56.2831 70.1733 56.5364 70.31 56.7564 70.45C56.9831 70.5833 57.1598 70.7467 57.2864 70.94C57.4131 71.1267 57.4764 71.37 57.4764 71.67C57.4764 72.0433 57.3831 72.3367 57.1964 72.55C57.0098 72.7633 56.7664 72.9133 56.4664 73C56.1731 73.08 55.8531 73.12 55.5064 73.12C55.1998 73.12 54.9631 73.09 54.7964 73.03C54.6298 72.97 54.4764 72.9067 54.3364 72.84H54.2964L54.0764 73.12H53.7564ZM61.3307 71.88L61.5807 72.16C61.4474 72.34 61.3074 72.5067 61.1607 72.66C61.0141 72.8067 60.8341 72.9233 60.6207 73.01C60.4074 73.0967 60.1241 73.14 59.7707 73.14C59.3841 73.14 59.0907 73.0333 58.8907 72.82C58.6974 72.6067 58.6007 72.2133 58.6007 71.64V68.93H57.9707V68.51C58.2507 68.3367 58.5141 68.1233 58.7607 67.87C59.0141 67.61 59.2407 67.27 59.4407 66.85H60.0307V68.32H61.2807V68.93H60.0307V71.29C60.0307 71.6567 60.0674 71.9033 60.1407 72.03C60.2141 72.15 60.3441 72.21 60.5307 72.21C60.7241 72.21 60.8741 72.18 60.9807 72.12C61.0941 72.06 61.2107 71.98 61.3307 71.88ZM64.7191 73H61.7591V72.6C61.9791 72.6 62.1424 72.5833 62.2491 72.55C62.3558 72.51 62.4258 72.44 62.4591 72.34C62.4991 72.2333 62.5191 72.0867 62.5191 71.9V69.35C62.5191 69.1233 62.4724 68.9867 62.3791 68.94C62.2858 68.8867 62.1624 68.86 62.0091 68.86C61.9424 68.86 61.8824 68.8633 61.8291 68.87C61.7758 68.8767 61.7491 68.88 61.7491 68.88V68.46L63.2491 68.18H63.9491V71.87C63.9491 72.0633 63.9658 72.2133 63.9991 72.32C64.0391 72.4267 64.1124 72.5 64.2191 72.54C64.3324 72.58 64.4991 72.6 64.7191 72.6V73ZM63.1991 67.55C62.9524 67.55 62.7558 67.48 62.6091 67.34C62.4691 67.1933 62.3991 67.0033 62.3991 66.77C62.3991 66.5367 62.4691 66.35 62.6091 66.21C62.7491 66.0633 62.9458 65.99 63.1991 65.99C63.4658 65.99 63.6658 66.06 63.7991 66.2C63.9391 66.34 64.0091 66.5267 64.0091 66.76C64.0091 67 63.9391 67.1933 63.7991 67.34C63.6658 67.48 63.4658 67.55 63.1991 67.55ZM67.9401 73.07H67.0601L65.5501 69.5C65.4568 69.2667 65.3668 69.09 65.2801 68.97C65.2001 68.85 65.1101 68.77 65.0101 68.73C64.9101 68.69 64.7935 68.67 64.6601 68.67V68.27H67.4701V68.67C67.2635 68.67 67.1168 68.6967 67.0301 68.75C66.9435 68.7967 66.9001 68.8633 66.9001 68.95C66.9001 69.01 66.9101 69.0767 66.9301 69.15C66.9501 69.2167 66.9735 69.2833 67.0001 69.35L67.7201 71.1L67.9401 71.73H68.0201L68.2601 71.08L69.0201 69.31C69.0201 69.31 69.0301 69.2767 69.0501 69.21C69.0701 69.1433 69.0801 69.0567 69.0801 68.95C69.0801 68.8367 69.0368 68.7633 68.9501 68.73C68.8635 68.69 68.7235 68.67 68.5301 68.67V68.27H70.4501V68.67C70.2501 68.67 70.0935 68.72 69.9801 68.82C69.8668 68.92 69.7468 69.11 69.6201 69.39L67.9401 73.07ZM71.6164 73.11C71.2497 73.11 70.9464 73.0233 70.7064 72.85C70.473 72.67 70.3564 72.3767 70.3564 71.97C70.3564 71.69 70.4164 71.4567 70.5364 71.27C70.6564 71.0767 70.813 70.9167 71.0064 70.79C71.1997 70.6633 71.413 70.56 71.6464 70.48C71.8797 70.3933 72.113 70.32 72.3464 70.26C72.5797 70.2 72.7897 70.1433 72.9764 70.09V69.61C72.9764 69.1833 72.933 68.9067 72.8464 68.78C72.7597 68.6467 72.5964 68.58 72.3564 68.58C72.1564 68.58 72.0197 68.6267 71.9464 68.72C71.8797 68.8133 71.8464 69.0033 71.8464 69.29C71.8464 69.5167 71.7797 69.68 71.6464 69.78C71.513 69.88 71.3597 69.93 71.1864 69.93C71.0397 69.93 70.8997 69.8767 70.7664 69.77C70.6397 69.6567 70.5764 69.4867 70.5764 69.26C70.5764 69.06 70.653 68.8767 70.8064 68.71C70.9597 68.5367 71.1764 68.4 71.4564 68.3C71.743 68.1933 72.0797 68.14 72.4664 68.14C73.093 68.14 73.573 68.26 73.9064 68.5C74.2397 68.74 74.4064 69.1367 74.4064 69.69V71.86C74.4064 72.06 74.4297 72.19 74.4764 72.25C74.5297 72.31 74.6097 72.34 74.7164 72.34C74.7964 72.34 74.8764 72.3133 74.9564 72.26C75.043 72.2067 75.123 72.1433 75.1964 72.07L75.4164 72.29C75.2497 72.5367 75.063 72.7333 74.8564 72.88C74.6564 73.0267 74.3697 73.1 73.9964 73.1C73.6364 73.1 73.393 73.0433 73.2664 72.93C73.1464 72.8167 73.0664 72.62 73.0264 72.34L72.9764 72.14V70.48C72.7164 70.56 72.4964 70.6467 72.3164 70.74C72.143 70.8267 72.0097 70.9433 71.9164 71.09C71.8297 71.2367 71.7864 71.4367 71.7864 71.69C71.7864 71.9367 71.823 72.1167 71.8964 72.23C71.9764 72.3433 72.093 72.4 72.2464 72.4C72.393 72.4 72.5264 72.3667 72.6464 72.3C72.7664 72.2267 72.9164 72.0967 73.0964 71.91L73.1564 72.47H73.0064C72.8464 72.6033 72.703 72.72 72.5764 72.82C72.4564 72.9133 72.323 72.9833 72.1764 73.03C72.0364 73.0833 71.8497 73.11 71.6164 73.11ZM78.4596 73H75.4996V72.6C75.7196 72.6 75.8796 72.58 75.9796 72.54C76.0862 72.4933 76.1529 72.4167 76.1796 72.31C76.2129 72.2033 76.2296 72.06 76.2296 71.88V67.05C76.2296 66.8567 76.1796 66.74 76.0796 66.7C75.9796 66.6533 75.8662 66.63 75.7396 66.63C75.6596 66.63 75.5862 66.6333 75.5196 66.64C75.4596 66.6467 75.4296 66.65 75.4296 66.65V66.25L76.9996 65.94H77.6596V71.88C77.6596 72.0667 77.6762 72.2133 77.7096 72.32C77.7429 72.4267 77.8162 72.5 77.9296 72.54C78.0429 72.58 78.2196 72.6 78.4596 72.6V73Z" fill="#C5C0BF"/>
</svg>
