<svg width="78" height="15" viewBox="0 0 78 15" fill="none" xmlns="http://www.w3.org/2000/svg">
<path d="M6.12328 10.86C6.12328 11.16 6.00233 11.265 5.71506 11.265H0.393099C0.0907152 11.265 0 11.16 0 10.86V2.67C0 2.385 0.105834 2.265 0.408219 2.265H5.71506C5.98721 2.265 6.12328 2.4 6.12328 2.67V10.86ZM4.50552 9.87V3.615H1.63287V9.87H4.50552ZM9.61582 14.385H7.98294V1.5H9.61582V6.12H11.3848V7.575H9.61582V14.385Z" fill="#181A20"/>
<path d="M17.7048 11.565C16.6011 10.86 15.7393 9.81 15.3462 8.835C14.9985 9.93 14.0157 11.07 12.912 11.985L11.5664 10.98C13.6075 9.705 14.5147 7.785 14.5147 5.01V3.69H12.534V2.325H18.1886V3.69H16.208V5.055C16.208 6.345 16.4046 7.44 16.7977 8.355C17.1908 9.18 17.8409 9.9 18.7783 10.485L17.6897 11.58L17.7048 11.565ZM20.7589 13.785H19.1562V7.035H17.2966V5.52H19.1562V1.71H20.7589V13.77V13.785ZM23.314 14.385H21.7265V1.5H23.314V14.385Z" fill="#181A20"/>
<path d="M36.4675 12.7951H24.4629V11.4151H36.4675V12.7951ZM34.9405 9.18006C34.0182 8.89506 33.0506 8.35506 32.2342 7.72506C31.4177 7.09506 30.7676 6.36006 30.435 5.67006C29.6185 7.23006 28.152 8.44506 25.9899 9.19506L24.8409 7.96506C26.1714 7.57506 27.3658 6.91506 28.1973 6.09006C29.0742 5.22006 29.5581 4.23006 29.5581 3.12006V1.93506H31.327V3.13506C31.327 4.24506 31.8864 5.29506 32.7633 6.16506C33.6403 7.03506 34.8044 7.71006 35.9837 8.01006L34.9254 9.19506L34.9405 9.18006Z" fill="#181A20"/>
<path d="M45.8114 10.905C44.995 11.025 43.8308 11.19 42.7271 11.25C41.5629 11.325 40.2324 11.325 38.5391 11.325C38.2367 11.325 38.146 11.22 38.146 10.92V2.52C38.146 2.235 38.2518 2.115 38.5542 2.115H44.5112V3.48H39.7789V5.97H44.3298V7.335H39.7789V9.93C40.4139 9.93 41.5478 9.93 42.7271 9.87C43.7099 9.825 44.9043 9.675 45.8266 9.51V10.89L45.8114 10.905ZM48.0491 14.385H46.4011V1.5H48.0491V14.385Z" fill="#181A20"/>
<path d="M52.7963 5.73001H50.8308V3.88501H52.7963V5.73001ZM52.7963 11.475H50.8308V9.63001H52.7963V11.475Z" fill="#181A20"/>
<path d="M59.585 14.085H57.9672V9.84H54.7317V8.46H58.5266C59.0104 8.46 59.9327 8.46 60.8701 8.385C61.8075 8.325 62.8205 8.235 63.4555 8.13V9.525C62.4576 9.705 61.0515 9.765 59.585 9.81V14.085ZM56.4402 2.49C56.9996 1.95 57.8311 1.605 58.8744 1.605C59.3582 1.605 59.8117 1.695 60.2653 1.845C60.6584 2.01 61.0062 2.205 61.2934 2.475C61.868 3 62.2006 3.72 62.2006 4.455C62.2006 5.19 61.8831 5.925 61.2934 6.45C60.734 6.99 59.9176 7.32 58.8744 7.32C57.8311 7.32 56.9996 6.99 56.4402 6.45C55.8656 5.925 55.5481 5.205 55.5481 4.455C55.5481 4.08 55.6237 3.72 55.7598 3.375C55.9261 3.015 56.1529 2.715 56.425 2.475L56.4402 2.49ZM60.5828 4.485C60.5828 4.095 60.4316 3.735 60.1444 3.405C59.8722 3.075 59.4489 2.895 58.8895 2.895C58.3301 2.895 57.8765 3.075 57.6043 3.405C57.3322 3.735 57.1961 4.095 57.1961 4.485C57.1961 5.295 57.7253 6.06 58.8895 6.06C59.1616 6.06 59.4186 6.015 59.6303 5.925C60.2653 5.655 60.5828 5.1 60.5828 4.485ZM65.5117 14.385H63.8939V1.5H65.5117V14.385Z" fill="#181A20"/>
<path d="M77.9997 8.835H76.3669V5.535H74.1897C74.0536 6.3 73.6908 6.93 73.086 7.455C72.4963 7.95 71.7404 8.19 70.8332 8.19C69.8354 8.19 68.9736 7.845 68.3839 7.275C67.7943 6.69 67.4465 5.865 67.4465 4.935C67.4465 4.005 67.7943 3.195 68.3839 2.61C68.9736 2.04 69.8354 1.665 70.8332 1.665C71.695 1.665 72.4359 1.905 73.0255 2.385C73.6152 2.865 73.9931 3.45 74.1595 4.17H76.3669V1.5H77.9997V8.835ZM72.6022 4.92C72.6022 3.84 71.9521 3.015 70.8484 3.015C69.7447 3.015 69.0945 3.825 69.0945 4.92C69.0945 5.955 69.7295 6.825 70.8484 6.825C71.1507 6.825 71.3775 6.78 71.5741 6.675C72.2544 6.345 72.6022 5.73 72.6022 4.92ZM77.9997 13.83C77.9997 14.13 77.8788 14.235 77.5915 14.235H69.6691C69.3667 14.235 69.2608 14.13 69.2608 13.83V9.765C69.2608 9.48 69.3667 9.36 69.6691 9.36H77.5915C77.8637 9.36 77.9997 9.495 77.9997 9.765V13.83ZM76.3669 12.915V10.71H70.8786V12.915H76.3669Z" fill="#181A20"/>
</svg>
