<svg width="66" height="66" viewBox="0 0 66 66" fill="none" xmlns="http://www.w3.org/2000/svg">
<rect width="66" height="66" rx="33" fill="#E5EAFD"/>
<path d="M40.6923 17.3913H38.0269L36.7163 15.3547C36.6461 15.2457 36.551 15.1562 36.4395 15.0944C36.328 15.0325 36.2034 15.0001 36.0769 15H29.9231C29.7966 15.0001 29.672 15.0325 29.5605 15.0944C29.449 15.1562 29.3539 15.2457 29.2837 15.3547L27.9721 17.3913H25.3077C24.6957 17.3913 24.1087 17.6432 23.6759 18.0917C23.2431 18.5402 23 19.1484 23 19.7826V30.942C23 31.5762 23.2431 32.1845 23.6759 32.6329C24.1087 33.0814 24.6957 33.3333 25.3077 33.3333H40.6923C41.3043 33.3333 41.8913 33.0814 42.3241 32.6329C42.7569 32.1845 43 31.5762 43 30.942V19.7826C43 19.1484 42.7569 18.5402 42.3241 18.0917C41.8913 17.6432 41.3043 17.3913 40.6923 17.3913ZM41.4615 30.942C41.4615 31.1534 41.3805 31.3562 41.2362 31.5057C41.092 31.6552 40.8963 31.7391 40.6923 31.7391H25.3077C25.1037 31.7391 24.908 31.6552 24.7638 31.5057C24.6195 31.3562 24.5385 31.1534 24.5385 30.942V19.7826C24.5385 19.5712 24.6195 19.3685 24.7638 19.219C24.908 19.0695 25.1037 18.9855 25.3077 18.9855H28.3846C28.5113 18.9856 28.636 18.9533 28.7477 18.8914C28.8595 18.8295 28.9547 18.74 29.025 18.6308L30.3346 16.5942H35.6644L36.975 18.6308C37.0453 18.74 37.1405 18.8295 37.2523 18.8914C37.364 18.9533 37.4887 18.9856 37.6154 18.9855H40.6923C40.8963 18.9855 41.092 19.0695 41.2362 19.219C41.3805 19.3685 41.4615 19.5712 41.4615 19.7826V30.942ZM33 20.5797C32.1632 20.5797 31.3453 20.8368 30.6495 21.3186C29.9538 21.8003 29.4115 22.485 29.0913 23.2861C28.7711 24.0871 28.6873 24.9686 28.8505 25.8191C29.0138 26.6695 29.4167 27.4506 30.0084 28.0638C30.6001 28.6769 31.3539 29.0944 32.1746 29.2636C32.9953 29.4327 33.846 29.3459 34.619 29.0141C35.3921 28.6823 36.0529 28.1204 36.5178 27.3994C36.9826 26.6785 37.2308 25.8309 37.2308 24.9638C37.2295 23.8014 36.7833 22.6871 35.9902 21.8652C35.1971 21.0433 34.1217 20.581 33 20.5797ZM33 27.7536C32.4675 27.7536 31.947 27.59 31.5042 27.2834C31.0615 26.9769 30.7164 26.5412 30.5126 26.0314C30.3089 25.5216 30.2555 24.9607 30.3594 24.4195C30.4633 23.8783 30.7197 23.3812 31.0963 22.991C31.4728 22.6009 31.9525 22.3352 32.4748 22.2275C32.997 22.1199 33.5383 22.1751 34.0303 22.3863C34.5223 22.5974 34.9427 22.955 35.2386 23.4138C35.5344 23.8726 35.6923 24.412 35.6923 24.9638C35.6923 25.7037 35.4087 26.4133 34.9037 26.9365C34.3988 27.4597 33.714 27.7536 33 27.7536Z" fill="#3C49A6"/>
<path d="M16.4326 46.4404L17.3335 47.627C17.6411 47.3047 17.8779 46.897 18.0439 46.4038C18.21 45.9106 18.293 45.3418 18.293 44.6973C18.293 43.9062 18.1685 43.2324 17.9194 42.6758C17.6753 42.1143 17.3311 41.6895 16.8867 41.4014C16.4424 41.1084 15.9297 40.9619 15.3486 40.9619C14.7676 40.9619 14.2549 41.1084 13.8105 41.4014C13.3662 41.6895 13.0195 42.1143 12.7705 42.6758C12.5264 43.2324 12.4043 43.9062 12.4043 44.6973C12.4043 45.4883 12.5264 46.1646 12.7705 46.7261C13.0195 47.2827 13.3662 47.7075 13.8105 48.0005C14.2549 48.2886 14.7676 48.4326 15.3486 48.4326C15.6172 48.4326 15.8809 48.3984 16.1396 48.3301L14.6895 46.4404H16.4326ZM20.2119 44.6973C20.2119 45.6396 20.0605 46.4795 19.7578 47.2168C19.46 47.9492 19.0376 48.5547 18.4907 49.0332L19.9629 50.9229H18.1025L17.2163 49.8022C16.645 50.0317 16.0225 50.1465 15.3486 50.1465C14.416 50.1465 13.5811 49.9292 12.8438 49.4946C12.1113 49.0552 11.5352 48.4253 11.1152 47.605C10.6953 46.7798 10.4854 45.8105 10.4854 44.6973C10.4854 43.5791 10.6953 42.6099 11.1152 41.7896C11.5352 40.9692 12.1113 40.3418 12.8438 39.9072C13.5811 39.4678 14.416 39.248 15.3486 39.248C16.2812 39.248 17.1138 39.4678 17.8462 39.9072C18.5835 40.3418 19.1621 40.9692 19.582 41.7896C20.002 42.6099 20.2119 43.5791 20.2119 44.6973ZM21.9258 39.3945H25.9102C26.7061 39.3945 27.3823 39.5361 27.939 39.8193C28.5005 40.0977 28.9253 40.4907 29.2134 40.9985C29.5015 41.5063 29.6455 42.0996 29.6455 42.7783C29.6455 43.501 29.4819 44.1211 29.1548 44.6387C28.8325 45.1562 28.3589 45.542 27.7339 45.7959L30.0264 50H27.9023L25.8223 46.1182H23.8301V50H21.9258V39.3945ZM25.6172 44.5215C27.0039 44.5215 27.6973 43.9404 27.6973 42.7783C27.6973 42.2021 27.5264 41.7603 27.1846 41.4526C26.8428 41.145 26.3203 40.9912 25.6172 40.9912H23.8301V44.5215H25.6172ZM38.3906 40.2588H35.6733C35.7124 40.5273 35.8564 40.7788 36.1055 41.0132C36.3594 41.2427 36.7061 41.4404 37.1455 41.6064C37.5898 41.7676 38.1025 41.8799 38.6836 41.9434L38.1416 43.1299C37.3701 43.0273 36.7036 42.8369 36.1421 42.5586C35.5854 42.2754 35.1631 41.9238 34.875 41.5039C34.582 41.9434 34.1523 42.3145 33.5859 42.6172C33.0195 42.9199 32.3408 43.1299 31.5498 43.2471L31.0078 42.0752C31.5986 42.002 32.1162 41.8774 32.5605 41.7017C33.0098 41.5259 33.3613 41.3135 33.6152 41.0645C33.8691 40.8154 34.0132 40.5469 34.0474 40.2588H31.3447V39.0576H34.0547V38.0322H35.666V39.0576H38.3906V40.2588ZM35.666 43.855C36.8721 43.7964 37.9414 43.7109 38.874 43.5986L38.9912 44.7119C37.7754 44.9072 36.5107 45.0342 35.1973 45.0928C33.8838 45.1514 32.4482 45.1807 30.8906 45.1807L30.7148 43.9502C31.9453 43.9502 33.0586 43.938 34.0547 43.9136V42.7051H35.666V43.855ZM41.2324 49.0771H34.04V49.9707H41.7012V51.1865H32.4141V47.9639H39.6064V47.1289H32.3848V45.9424H41.2324V49.0771ZM41.2324 41.0059H43.0195V42.3389H41.2324V45.4297H39.6064V38.0615H41.2324V41.0059ZM47.3848 38.8086C47.9121 38.8086 48.4004 38.9014 48.8496 39.0869C49.3037 39.2676 49.6895 39.5264 50.0068 39.8633H53.1709V38.0615H54.7969V45.8545H53.1709V44.1699H49.9995C49.687 44.502 49.3037 44.7607 48.8496 44.9463C48.4004 45.127 47.9121 45.2148 47.3848 45.21C46.7305 45.2148 46.1348 45.0806 45.5977 44.8071C45.0654 44.5337 44.6455 44.1528 44.3379 43.6646C44.0352 43.1763 43.8838 42.627 43.8838 42.0166C43.8838 41.4014 44.0352 40.8496 44.3379 40.3613C44.6455 39.873 45.0654 39.4922 45.5977 39.2188C46.1299 38.9453 46.7256 38.8086 47.3848 38.8086ZM47.3848 40.2002C47.0039 40.2002 46.667 40.2759 46.374 40.4272C46.0811 40.5737 45.8516 40.7837 45.6855 41.0571C45.5195 41.3306 45.4365 41.6504 45.4365 42.0166C45.4365 42.373 45.5195 42.6904 45.6855 42.9688C45.8516 43.2422 46.0811 43.4546 46.374 43.606C46.6719 43.7573 47.0088 43.833 47.3848 43.833C47.7461 43.833 48.0708 43.7573 48.3589 43.606C48.6519 43.4546 48.8813 43.2422 49.0474 42.9688C49.2134 42.6904 49.2988 42.373 49.3037 42.0166C49.2988 41.6504 49.2134 41.3306 49.0474 41.0571C48.8813 40.7837 48.6543 40.5737 48.3662 40.4272C48.0781 40.2759 47.751 40.2002 47.3848 40.2002ZM50.3145 46.1328C51.2373 46.1328 52.0381 46.2354 52.7168 46.4404C53.4004 46.6455 53.9253 46.9409 54.2915 47.3267C54.6577 47.7124 54.8408 48.1738 54.8408 48.7109C54.8408 49.248 54.6577 49.7095 54.2915 50.0952C53.9253 50.481 53.4004 50.7764 52.7168 50.9814C52.0381 51.1865 51.2373 51.2891 50.3145 51.2891C49.3916 51.2891 48.5908 51.1865 47.9121 50.9814C47.2383 50.7764 46.7183 50.481 46.3521 50.0952C45.9907 49.7095 45.8125 49.248 45.8174 48.7109C45.8125 48.1738 45.9907 47.7124 46.3521 47.3267C46.7183 46.9409 47.2383 46.6455 47.9121 46.4404C48.5908 46.2354 49.3916 46.1328 50.3145 46.1328ZM50.3145 47.3779C49.3867 47.3779 48.6689 47.4927 48.1611 47.7222C47.6582 47.9517 47.4092 48.2812 47.4141 48.7109C47.4092 49.126 47.6582 49.4482 48.1611 49.6777C48.6689 49.9023 49.3867 50.0146 50.3145 50.0146C51.252 50.0146 51.9746 49.9023 52.4824 49.6777C52.9902 49.4482 53.2441 49.126 53.2441 48.7109C53.2441 48.2812 52.9902 47.9517 52.4824 47.7222C51.9795 47.4927 51.2568 47.3779 50.3145 47.3779ZM50.7393 41.167C50.8174 41.4551 50.8564 41.7383 50.8564 42.0166C50.8564 42.2803 50.8198 42.5586 50.7466 42.8516H53.1709V41.167H50.7393Z" fill="#3C49A6"/>
</svg>
