<svg width="66" height="66" viewBox="0 0 66 66" fill="none" xmlns="http://www.w3.org/2000/svg">
<rect width="66" height="66" rx="33" fill="#E5EAFD"/>
<path d="M35.625 23.1553V26.9998H39C39.7956 26.9998 40.5587 27.3159 41.1213 27.8785C41.6839 28.4411 42 29.2041 42 29.9998H24C24 29.2041 24.3161 28.4411 24.8787 27.8785C25.4413 27.3159 26.2044 26.9998 27 26.9998H30.375V23.1553C29.6014 22.5997 29.0241 21.813 28.726 20.9084C28.428 20.0039 28.4246 19.028 28.7164 18.1214C29.0083 17.2148 29.5802 16.4242 30.35 15.8633C31.1197 15.3024 32.0476 15.0002 33 15.0002C33.9524 15.0002 34.8803 15.3024 35.65 15.8633C36.4198 16.4242 36.9917 17.2148 37.2836 18.1214C37.5754 19.028 37.572 20.0039 37.274 20.9084C36.9759 21.813 36.3986 22.5997 35.625 23.1553ZM24 32.9998V31.4998H42V32.9998H24Z" fill="#3C49A6"/>
<path d="M16.125 49.9996V42.0455H18V49.9996H16.125ZM17.0771 40.9176C16.4912 40.9176 15.9932 40.4635 15.9932 39.8922C15.9932 39.3356 16.4912 38.8815 17.0771 38.8815C17.6777 38.8815 18.1611 39.3356 18.1611 39.8922C18.1611 40.4635 17.6777 40.9176 17.0771 40.9176ZM21.6621 45.3414V49.9996H19.7871V42.0455H21.5742V43.3932H21.6768C22.043 42.4996 22.8486 41.943 24.0352 41.943C25.6904 41.943 26.7744 43.027 26.7598 44.9313V49.9996H24.8994V45.2242C24.8994 44.1549 24.3281 43.525 23.3467 43.525C22.3506 43.525 21.6621 44.1842 21.6621 45.3414ZM28.5469 52.9879V42.0455H30.3779V43.3492H30.4951C30.7881 42.778 31.374 41.943 32.7803 41.943C34.6113 41.943 36.0615 43.3785 36.0615 46.0299C36.0615 48.652 34.6553 50.1461 32.7803 50.1461C31.4033 50.1461 30.7881 49.3258 30.4951 48.7399H30.4219V52.9879H28.5469ZM30.3779 46.0153C30.3779 47.568 31.0518 48.608 32.2676 48.608C33.498 48.608 34.1572 47.524 34.1572 46.0153C34.1572 44.5358 33.5127 43.4664 32.2676 43.4664C31.0518 43.4664 30.3779 44.4772 30.3779 46.0153ZM42.6094 46.6598V42.0455H44.4697V49.9996H42.668V48.5934H42.5801C42.2139 49.4723 41.3789 50.1022 40.1924 50.1022C38.625 50.1022 37.541 49.0182 37.5264 47.1139V42.0455H39.4014V46.8209C39.4014 47.8317 40.002 48.4762 40.9102 48.4762C41.7305 48.4762 42.6094 47.8756 42.6094 46.6598ZM50.2266 42.0455V43.4811H48.6592V47.6119C48.6592 48.3737 49.04 48.5348 49.5088 48.5348C49.7285 48.5348 50.0947 48.5201 50.3291 48.5055V50.0289C50.1094 50.0729 49.7432 50.1022 49.2744 50.1022C47.8682 50.1022 46.7842 49.4137 46.7988 47.9196V43.4811H45.6562V42.0455H46.7988V40.1412H48.6592V42.0455H50.2266Z" fill="#3C49A6"/>
</svg>
