<svg width="66" height="66" viewBox="0 0 66 66" fill="none" xmlns="http://www.w3.org/2000/svg">
<rect width="66" height="66" rx="33" fill="#3C49A6"/>
<path d="M41.2499 22.4991C41.4489 22.4991 41.6396 22.4201 41.7803 22.2794C41.921 22.1388 42 21.948 42 21.7491V15.7501C42 15.5511 41.921 15.3604 41.7803 15.2197C41.6396 15.079 41.4489 15 41.2499 15H35.2494C35.0505 15 34.8597 15.079 34.7191 15.2197C34.5784 15.3604 34.4994 15.5511 34.4994 15.7501V21.7491C34.4994 21.948 34.5784 22.1388 34.7191 22.2794C34.8597 22.4201 35.0505 22.4991 35.2494 22.4991H41.2499ZM30.7491 22.4991C30.948 22.4991 31.1388 22.4201 31.2794 22.2794C31.4201 22.1388 31.4991 21.948 31.4991 21.7491V15.7501C31.4991 15.5511 31.4201 15.3604 31.2794 15.2197C31.1388 15.079 30.948 15 30.7491 15H24.7501C24.5511 15 24.3604 15.079 24.2197 15.2197C24.079 15.3604 24 15.5511 24 15.7501V21.7491C24 21.948 24.079 22.1388 24.2197 22.2794C24.3604 22.4201 24.5511 22.4991 24.7501 22.4991H30.7491ZM41.2499 33C41.4489 33 41.6396 32.921 41.7803 32.7803C41.921 32.6396 42 32.4489 42 32.2499V26.2494C42 26.0505 41.921 25.8597 41.7803 25.7191C41.6396 25.5784 41.4489 25.4994 41.2499 25.4994H35.2494C35.0505 25.4994 34.8597 25.5784 34.7191 25.7191C34.5784 25.8597 34.4994 26.0505 34.4994 26.2494V32.2499C34.4994 32.4489 34.5784 32.6396 34.7191 32.7803C34.8597 32.921 35.0505 33 35.2494 33H41.2499ZM30.7491 33C30.948 33 31.1388 32.921 31.2794 32.7803C31.4201 32.6396 31.4991 32.4489 31.4991 32.2499V26.2494C31.4991 26.0505 31.4201 25.8597 31.2794 25.7191C31.1388 25.5784 30.948 25.4994 30.7491 25.4994H24.7501C24.5511 25.4994 24.3604 25.5784 24.2197 25.7191C24.079 25.8597 24 26.0505 24 26.2494V32.2499C24 32.4489 24.079 32.6396 24.2197 32.7803C24.3604 32.921 24.5511 33 24.7501 33H30.7491Z" fill="white"/>
<path d="M16.125 50V42.0459H18V50H16.125ZM17.0771 40.918C16.4912 40.918 15.9932 40.4639 15.9932 39.8926C15.9932 39.3359 16.4912 38.8818 17.0771 38.8818C17.6777 38.8818 18.1611 39.3359 18.1611 39.8926C18.1611 40.4639 17.6777 40.918 17.0771 40.918ZM21.6621 45.3418V50H19.7871V42.0459H21.5742V43.3936H21.6768C22.043 42.5 22.8486 41.9434 24.0352 41.9434C25.6904 41.9434 26.7744 43.0273 26.7598 44.9316V50H24.8994V45.2246C24.8994 44.1553 24.3281 43.5254 23.3467 43.5254C22.3506 43.5254 21.6621 44.1846 21.6621 45.3418ZM28.5469 52.9883V42.0459H30.3779V43.3496H30.4951C30.7881 42.7783 31.374 41.9434 32.7803 41.9434C34.6113 41.9434 36.0615 43.3789 36.0615 46.0303C36.0615 48.6523 34.6553 50.1465 32.7803 50.1465C31.4033 50.1465 30.7881 49.3262 30.4951 48.7402H30.4219V52.9883H28.5469ZM30.3779 46.0156C30.3779 47.5684 31.0518 48.6084 32.2676 48.6084C33.498 48.6084 34.1572 47.5244 34.1572 46.0156C34.1572 44.5361 33.5127 43.4668 32.2676 43.4668C31.0518 43.4668 30.3779 44.4775 30.3779 46.0156ZM42.6094 46.6602V42.0459H44.4697V50H42.668V48.5938H42.5801C42.2139 49.4727 41.3789 50.1025 40.1924 50.1025C38.625 50.1025 37.541 49.0186 37.5264 47.1143V42.0459H39.4014V46.8213C39.4014 47.832 40.002 48.4766 40.9102 48.4766C41.7305 48.4766 42.6094 47.876 42.6094 46.6602ZM50.2266 42.0459V43.4814H48.6592V47.6123C48.6592 48.374 49.04 48.5352 49.5088 48.5352C49.7285 48.5352 50.0947 48.5205 50.3291 48.5059V50.0293C50.1094 50.0732 49.7432 50.1025 49.2744 50.1025C47.8682 50.1025 46.7842 49.4141 46.7988 47.9199V43.4814H45.6562V42.0459H46.7988V40.1416H48.6592V42.0459H50.2266Z" fill="white"/>
</svg>
