<svg width="66" height="66" viewBox="0 0 66 66" fill="none" xmlns="http://www.w3.org/2000/svg">
<rect width="66" height="66" rx="33" fill="#E5EAFD"/>
<path d="M35.625 23.1553V26.9998H39C39.7956 26.9998 40.5587 27.3159 41.1213 27.8785C41.6839 28.4411 42 29.2041 42 29.9998H24C24 29.2041 24.3161 28.4411 24.8787 27.8785C25.4413 27.3159 26.2044 26.9998 27 26.9998H30.375V23.1553C29.6014 22.5997 29.0241 21.813 28.726 20.9084C28.428 20.0039 28.4246 19.028 28.7164 18.1214C29.0083 17.2148 29.5802 16.4242 30.35 15.8633C31.1197 15.3024 32.0476 15.0002 33 15.0002C33.9524 15.0002 34.8803 15.3024 35.65 15.8633C36.4198 16.4242 36.9917 17.2148 37.2836 18.1214C37.5754 19.028 37.572 20.0039 37.274 20.9084C36.9759 21.813 36.3986 22.5997 35.625 23.1553ZM24 32.9998V31.4998H42V32.9998H24Z" fill="#3C49A6"/>
<path d="M24.7456 45.3707H20.8198V48.403H26.0933V49.736H13.9937V48.403H19.2085V45.3707H15.4585V39.0426H24.6431V40.3463H17.0845V44.0817H24.7456V45.3707ZM31.7036 40.4489C31.7036 41.0006 31.8208 41.5255 32.0552 42.0236C32.2944 42.5216 32.6484 42.9635 33.1172 43.3492C33.5859 43.7301 34.1548 44.0231 34.8237 44.2281L34.0474 45.5026C33.3198 45.278 32.6899 44.941 32.1577 44.4918C31.6304 44.0426 31.2178 43.5128 30.9199 42.9025C30.6221 43.6105 30.1948 44.2257 29.6382 44.7482C29.0815 45.2706 28.4126 45.6637 27.6313 45.9274L26.811 44.6383C27.5044 44.4088 28.0952 44.0817 28.5835 43.6569C29.0718 43.2272 29.4404 42.7365 29.6895 42.1847C29.9385 41.6329 30.063 41.0592 30.063 40.4635V40.3024H27.2651V38.984H34.4575V40.3024H31.7036V40.4489ZM37.4019 41.2399H39.2476V42.5729H37.4019V45.9567H35.7759V38.0612H37.4019V41.2399ZM33.0952 46.2496C34.0034 46.2496 34.7896 46.3497 35.4536 46.5499C36.1226 46.7452 36.6353 47.0309 36.9917 47.4069C37.3481 47.7828 37.5288 48.2321 37.5337 48.7545C37.5288 49.2819 37.3457 49.736 36.9844 50.1168C36.6279 50.4977 36.1177 50.7882 35.4536 50.9884C34.7896 51.1886 34.0034 51.2887 33.0952 51.2887C32.1772 51.2887 31.3813 51.1886 30.7075 50.9884C30.0337 50.7882 29.5161 50.4977 29.1548 50.1168C28.7935 49.736 28.6128 49.2819 28.6128 48.7545C28.6128 48.2321 28.7935 47.7828 29.1548 47.4069C29.5161 47.0309 30.0337 46.7452 30.7075 46.5499C31.3813 46.3497 32.1772 46.2496 33.0952 46.2496ZM33.0952 47.524C32.1821 47.524 31.4766 47.629 30.9785 47.839C30.4854 48.049 30.2388 48.3541 30.2388 48.7545C30.2388 49.1647 30.4854 49.4772 30.9785 49.692C31.4766 49.9069 32.1821 50.0143 33.0952 50.0143C34.0083 50.0143 34.7065 49.9069 35.1899 49.692C35.6782 49.4772 35.9224 49.1647 35.9224 48.7545C35.9224 48.3541 35.6782 48.049 35.1899 47.839C34.7065 47.629 34.0083 47.524 33.0952 47.524ZM47.3774 40.5221H46.2202V44.4406C46.7524 44.4015 47.314 44.3453 47.9048 44.2721L48.022 45.4733C46.8306 45.6686 45.5659 45.8004 44.228 45.8688C42.8901 45.9371 41.5034 45.9713 40.0679 45.9713L39.8921 44.653L41.4155 44.6383V40.5221H40.2437V39.2184H47.3774V40.5221ZM50.3657 41.899H52.2114V43.2614H50.3657V47.817H48.7397V38.0758H50.3657V41.899ZM50.8931 51.0397H41.8843V46.8942H43.5103V49.7213H50.8931V51.0397ZM42.9829 44.6017C43.3442 44.5919 43.896 44.5724 44.6382 44.5431V40.5221H42.9829V44.6017Z" fill="#3C49A6"/>
</svg>
