<svg width="66" height="66" viewBox="0 0 66 66" fill="none" xmlns="http://www.w3.org/2000/svg">
<rect width="66" height="66" rx="33" fill="#3C49A6"/>
<path d="M41.2499 22.4991C41.4489 22.4991 41.6396 22.4201 41.7803 22.2794C41.921 22.1388 42 21.948 42 21.7491V15.7501C42 15.5511 41.921 15.3604 41.7803 15.2197C41.6396 15.079 41.4489 15 41.2499 15H35.2494C35.0505 15 34.8597 15.079 34.7191 15.2197C34.5784 15.3604 34.4994 15.5511 34.4994 15.7501V21.7491C34.4994 21.948 34.5784 22.1388 34.7191 22.2794C34.8597 22.4201 35.0505 22.4991 35.2494 22.4991H41.2499ZM30.7491 22.4991C30.948 22.4991 31.1388 22.4201 31.2794 22.2794C31.4201 22.1388 31.4991 21.948 31.4991 21.7491V15.7501C31.4991 15.5511 31.4201 15.3604 31.2794 15.2197C31.1388 15.079 30.948 15 30.7491 15H24.7501C24.5511 15 24.3604 15.079 24.2197 15.2197C24.079 15.3604 24 15.5511 24 15.7501V21.7491C24 21.948 24.079 22.1388 24.2197 22.2794C24.3604 22.4201 24.5511 22.4991 24.7501 22.4991H30.7491ZM41.2499 33C41.4489 33 41.6396 32.921 41.7803 32.7803C41.921 32.6396 42 32.4489 42 32.2499V26.2494C42 26.0505 41.921 25.8597 41.7803 25.7191C41.6396 25.5784 41.4489 25.4994 41.2499 25.4994H35.2494C35.0505 25.4994 34.8597 25.5784 34.7191 25.7191C34.5784 25.8597 34.4994 26.0505 34.4994 26.2494V32.2499C34.4994 32.4489 34.5784 32.6396 34.7191 32.7803C34.8597 32.921 35.0505 33 35.2494 33H41.2499ZM30.7491 33C30.948 33 31.1388 32.921 31.2794 32.7803C31.4201 32.6396 31.4991 32.4489 31.4991 32.2499V26.2494C31.4991 26.0505 31.4201 25.8597 31.2794 25.7191C31.1388 25.5784 30.948 25.4994 30.7491 25.4994H24.7501C24.5511 25.4994 24.3604 25.5784 24.2197 25.7191C24.079 25.8597 24 26.0505 24 26.2494V32.2499C24 32.4489 24.079 32.6396 24.2197 32.7803C24.3604 32.921 24.5511 33 24.7501 33H30.7491Z" fill="white"/>
<path d="M26.0859 42.9395H27.624V38.2959H29.1768V50.6592H27.624V44.2578H26.0859V47.8906H20.8857V39.4971H26.0859V42.9395ZM22.4092 46.6016H24.5625V40.7861H22.4092V46.6016ZM31.9014 51.3037H30.334V38.0615H31.9014V51.3037ZM44.1328 43.6572H34.9336V38.6914H36.5596V42.3389H44.1328V43.6572ZM45.5098 46.6016H42.6094V51.3037H40.9688V46.6016H37.9805V51.3037H36.3545V46.6016H33.4395V45.2832H45.5098V46.6016Z" fill="white"/>
</svg>
