<svg width="66" height="66" viewBox="0 0 66 66" fill="none" xmlns="http://www.w3.org/2000/svg">
<rect width="66" height="66" rx="33" fill="#E5EAFD"/>
<path d="M40.6923 17.3913H38.0269L36.7163 15.3547C36.6461 15.2457 36.551 15.1562 36.4395 15.0944C36.328 15.0325 36.2034 15.0001 36.0769 15H29.9231C29.7966 15.0001 29.672 15.0325 29.5605 15.0944C29.449 15.1562 29.3539 15.2457 29.2837 15.3547L27.9721 17.3913H25.3077C24.6957 17.3913 24.1087 17.6432 23.6759 18.0917C23.2431 18.5402 23 19.1484 23 19.7826V30.942C23 31.5762 23.2431 32.1845 23.6759 32.6329C24.1087 33.0814 24.6957 33.3333 25.3077 33.3333H40.6923C41.3043 33.3333 41.8913 33.0814 42.3241 32.6329C42.7569 32.1845 43 31.5762 43 30.942V19.7826C43 19.1484 42.7569 18.5402 42.3241 18.0917C41.8913 17.6432 41.3043 17.3913 40.6923 17.3913ZM41.4615 30.942C41.4615 31.1534 41.3805 31.3562 41.2362 31.5057C41.092 31.6552 40.8963 31.7391 40.6923 31.7391H25.3077C25.1037 31.7391 24.908 31.6552 24.7638 31.5057C24.6195 31.3562 24.5385 31.1534 24.5385 30.942V19.7826C24.5385 19.5712 24.6195 19.3685 24.7638 19.219C24.908 19.0695 25.1037 18.9855 25.3077 18.9855H28.3846C28.5113 18.9856 28.636 18.9533 28.7477 18.8914C28.8595 18.8295 28.9547 18.74 29.025 18.6308L30.3346 16.5942H35.6644L36.975 18.6308C37.0453 18.74 37.1405 18.8295 37.2523 18.8914C37.364 18.9533 37.4887 18.9856 37.6154 18.9855H40.6923C40.8963 18.9855 41.092 19.0695 41.2362 19.219C41.3805 19.3685 41.4615 19.5712 41.4615 19.7826V30.942ZM33 20.5797C32.1632 20.5797 31.3453 20.8368 30.6495 21.3186C29.9538 21.8003 29.4115 22.485 29.0913 23.2861C28.7711 24.0871 28.6873 24.9686 28.8505 25.8191C29.0138 26.6695 29.4167 27.4506 30.0084 28.0638C30.6001 28.6769 31.3539 29.0944 32.1746 29.2636C32.9953 29.4327 33.846 29.3459 34.619 29.0141C35.3921 28.6823 36.0529 28.1204 36.5178 27.3994C36.9826 26.6785 37.2308 25.8309 37.2308 24.9638C37.2295 23.8014 36.7833 22.6871 35.9902 21.8652C35.1971 21.0433 34.1217 20.581 33 20.5797ZM33 27.7536C32.4675 27.7536 31.947 27.59 31.5042 27.2834C31.0615 26.9769 30.7164 26.5412 30.5126 26.0314C30.3089 25.5216 30.2555 24.9607 30.3594 24.4195C30.4633 23.8783 30.7197 23.3812 31.0963 22.991C31.4728 22.6009 31.9525 22.3352 32.4748 22.2275C32.997 22.1199 33.5383 22.1751 34.0303 22.3863C34.5223 22.5974 34.9427 22.955 35.2386 23.4138C35.5344 23.8726 35.6923 24.412 35.6923 24.9638C35.6923 25.7037 35.4087 26.4133 34.9037 26.9365C34.3988 27.4597 33.714 27.7536 33 27.7536Z" fill="#3C49A6"/>
<path d="M16.125 50V42.0459H18V50H16.125ZM17.0771 40.918C16.4912 40.918 15.9932 40.4639 15.9932 39.8926C15.9932 39.3359 16.4912 38.8818 17.0771 38.8818C17.6777 38.8818 18.1611 39.3359 18.1611 39.8926C18.1611 40.4639 17.6777 40.918 17.0771 40.918ZM21.6621 45.3418V50H19.7871V42.0459H21.5742V43.3936H21.6768C22.043 42.5 22.8486 41.9434 24.0352 41.9434C25.6904 41.9434 26.7744 43.0273 26.7598 44.9316V50H24.8994V45.2246C24.8994 44.1553 24.3281 43.5254 23.3467 43.5254C22.3506 43.5254 21.6621 44.1846 21.6621 45.3418ZM28.5469 52.9883V42.0459H30.3779V43.3496H30.4951C30.7881 42.7783 31.374 41.9434 32.7803 41.9434C34.6113 41.9434 36.0615 43.3789 36.0615 46.0303C36.0615 48.6523 34.6553 50.1465 32.7803 50.1465C31.4033 50.1465 30.7881 49.3262 30.4951 48.7402H30.4219V52.9883H28.5469ZM30.3779 46.0156C30.3779 47.5684 31.0518 48.6084 32.2676 48.6084C33.498 48.6084 34.1572 47.5244 34.1572 46.0156C34.1572 44.5361 33.5127 43.4668 32.2676 43.4668C31.0518 43.4668 30.3779 44.4775 30.3779 46.0156ZM42.6094 46.6602V42.0459H44.4697V50H42.668V48.5938H42.5801C42.2139 49.4727 41.3789 50.1025 40.1924 50.1025C38.625 50.1025 37.541 49.0186 37.5264 47.1143V42.0459H39.4014V46.8213C39.4014 47.832 40.002 48.4766 40.9102 48.4766C41.7305 48.4766 42.6094 47.876 42.6094 46.6602ZM50.2266 42.0459V43.4814H48.6592V47.6123C48.6592 48.374 49.04 48.5352 49.5088 48.5352C49.7285 48.5352 50.0947 48.5205 50.3291 48.5059V50.0293C50.1094 50.0732 49.7432 50.1025 49.2744 50.1025C47.8682 50.1025 46.7842 49.4141 46.7988 47.9199V43.4814H45.6562V42.0459H46.7988V40.1416H48.6592V42.0459H50.2266Z" fill="#3C49A6"/>
</svg>
