<svg width="24" height="24" viewBox="0 0 24 24" fill="none" xmlns="http://www.w3.org/2000/svg">
<path fill-rule="evenodd" clip-rule="evenodd" d="M5 5.94444C4.73478 5.94444 4.48043 6.04687 4.29289 6.2292C4.10536 6.41153 4 6.65882 4 6.91667V16.6389C4 16.8967 4.10536 17.144 4.29289 17.3264C4.48043 17.5087 4.73478 17.6111 5 17.6111H12.17C12.3766 17.0418 12.7597 16.5489 13.2666 16.2002C13.7735 15.8515 14.3791 15.6643 15 15.6643C15.6209 15.6643 16.2265 15.8515 16.7334 16.2002C17.2403 16.5489 17.6234 17.0418 17.83 17.6111H19C19.2652 17.6111 19.5196 17.5087 19.7071 17.3264C19.8946 17.144 20 16.8967 20 16.6389V6.91667C20 6.65882 19.8946 6.41153 19.7071 6.2292C19.5196 6.04687 19.2652 5.94444 19 5.94444H17.83C17.6234 6.51371 17.2403 7.00666 16.7334 7.35534C16.2265 7.70403 15.6209 7.89127 15 7.89127C14.3791 7.89127 13.7735 7.70403 13.2666 7.35534C12.7597 7.00666 12.3766 6.51371 12.17 5.94444H5ZM2 6.91667C2 6.14312 2.31607 5.40125 2.87868 4.85427C3.44129 4.30729 4.20435 4 5 4H13C13.2652 4 13.5196 4.10243 13.7071 4.28476C13.8946 4.46708 14 4.71437 14 4.97222C14 5.23007 14.1054 5.47736 14.2929 5.65969C14.4804 5.84201 14.7348 5.94444 15 5.94444C15.2652 5.94444 15.5196 5.84201 15.7071 5.65969C15.8946 5.47736 16 5.23007 16 4.97222C16 4.71437 16.1054 4.46708 16.2929 4.28476C16.4804 4.10243 16.7348 4 17 4H19C19.7956 4 20.5587 4.30729 21.1213 4.85427C21.6839 5.40125 22 6.14312 22 6.91667V16.6389C22 17.4124 21.6839 18.1543 21.1213 18.7013C20.5587 19.2483 19.7956 19.5556 19 19.5556H17C16.7348 19.5556 16.4804 19.4531 16.2929 19.2708C16.1054 19.0885 16 18.8412 16 18.5833C16 18.3255 15.8946 18.0782 15.7071 17.8959C15.5196 17.7135 15.2652 17.6111 15 17.6111C14.7348 17.6111 14.4804 17.7135 14.2929 17.8959C14.1054 18.0782 14 18.3255 14 18.5833C14 18.8412 13.8946 19.0885 13.7071 19.2708C13.5196 19.4531 13.2652 19.5556 13 19.5556H5C4.20435 19.5556 3.44129 19.2483 2.87868 18.7013C2.31607 18.1543 2 17.4124 2 16.6389V6.91667ZM15 8.86111C15.2652 8.86111 15.5196 8.96354 15.7071 9.14587C15.8946 9.3282 16 9.57548 16 9.83333V10.3194C16 10.5773 15.8946 10.8246 15.7071 11.0069C15.5196 11.1892 15.2652 11.2917 15 11.2917C14.7348 11.2917 14.4804 11.1892 14.2929 11.0069C14.1054 10.8246 14 10.5773 14 10.3194V9.83333C14 9.57548 14.1054 9.3282 14.2929 9.14587C14.4804 8.96354 14.7348 8.86111 15 8.86111ZM16 13.2361C16 12.9783 15.8946 12.731 15.7071 12.5486C15.5196 12.3663 15.2652 12.2639 15 12.2639C14.7348 12.2639 14.4804 12.3663 14.2929 12.5486C14.1054 12.731 14 12.9783 14 13.2361V13.7222C14 13.9801 14.1054 14.2274 14.2929 14.4097C14.4804 14.592 14.7348 14.6944 15 14.6944C15.2652 14.6944 15.5196 14.592 15.7071 14.4097C15.8946 14.2274 16 13.9801 16 13.7222V13.2361Z" fill="white"/>
</svg>
