<svg width="48" height="48" viewBox="0 0 48 48" fill="none" xmlns="http://www.w3.org/2000/svg">
<g clip-path="url(#clip0_1990_3205)">
<circle cx="24" cy="24" r="23" stroke="black" stroke-opacity="0.5" stroke-width="2"/>
<path d="M35.6492 14.1113C36.1804 13.5703 36.0991 12.756 35.4679 12.3007C34.8367 11.8454 33.8868 11.915 33.3556 12.4561L24 22.0019L14.6507 12.4614C14.1195 11.915 13.1695 11.8454 12.5383 12.3007C11.9071 12.756 11.8196 13.5703 12.3508 14.1113L22.0439 24L12.3508 33.8887C11.8196 34.4351 11.9009 35.244 12.5321 35.6993C13.1633 36.1546 14.1132 36.085 14.6444 35.5439L24 25.9981L33.3493 35.5386C33.8805 36.085 34.8305 36.1546 35.4617 35.6939C36.0929 35.2332 36.1804 34.4244 35.6429 33.8833L25.9561 24L35.6429 14.1113H35.6492Z" fill="black" fill-opacity="0.5"/>
</g>
<defs>
<clipPath id="clip0_1990_3205">
<rect width="48" height="48" fill="white"/>
</clipPath>
</defs>
</svg>
