<svg width="48" height="48" viewBox="0 0 48 48" fill="none" xmlns="http://www.w3.org/2000/svg">
<g clip-path="url(#clip0_1723_2508)">
<circle cx="24" cy="24" r="23" stroke="#002968" stroke-width="2"/>
<path d="M18.7176 30.1629L13.5397 24.6438C13.2607 24.3464 12.8823 24.1793 12.4877 24.1793C12.0932 24.1793 11.7148 24.3464 11.4357 24.6438C11.1567 24.9412 11 25.3445 11 25.7651C11 25.9733 11.0385 26.1795 11.1132 26.3719C11.188 26.5643 11.2976 26.7392 11.4357 26.8864L17.673 33.5348C18.255 34.1551 19.1951 34.1551 19.777 33.5348L35.5643 16.7071C35.8433 16.4097 36 16.0064 36 15.5858C36 15.1652 35.8433 14.7619 35.5643 14.4645C35.2853 14.1671 34.9068 14 34.5123 14C34.1177 14 33.7393 14.1671 33.4603 14.4645L18.7176 30.1629Z" fill="#002968"/>
</g>
<defs>
<clipPath id="clip0_1723_2508">
<rect width="48" height="48" fill="white"/>
</clipPath>
</defs>
</svg>
