<svg width="24" height="24" viewBox="0 0 24 24" fill="none" xmlns="http://www.w3.org/2000/svg">
<rect x="-0.5" y="0.5" width="17" height="17" transform="matrix(-1 0 0 1 20 3)" stroke="#002968"/>
<path d="M9.70444 14.7582L7.21906 12.109C7.08514 11.9663 6.90351 11.8861 6.71411 11.8861C6.52472 11.8861 6.34308 11.9663 6.20916 12.109C6.07524 12.2518 6 12.4454 6 12.6472C6 12.7472 6.01847 12.8462 6.05436 12.9385C6.09025 13.0309 6.14285 13.1148 6.20916 13.1855L9.20306 16.3767C9.4824 16.6744 9.93363 16.6744 10.213 16.3767L17.7908 8.29941C17.9248 8.15666 18 7.96305 18 7.76117C18 7.5593 17.9248 7.36569 17.7908 7.22294C17.6569 7.0802 17.4753 7 17.2859 7C17.0965 7 16.9149 7.0802 16.7809 7.22294L9.70444 14.7582Z" fill="#002968"/>
</svg>
