<svg width="24" height="24" viewBox="0 0 24 24" fill="none" xmlns="http://www.w3.org/2000/svg">
<path d="M19.6689 11.8689L12.3992 4.17522C12.3469 4.11968 12.2847 4.07561 12.2162 4.04554C12.1478 4.01548 12.0744 4 12.0003 4C11.9262 4 11.8529 4.01548 11.7844 4.04554C11.716 4.07561 11.6538 4.11968 11.6015 4.17522L4.3318 11.8689C4.12001 12.0932 4 12.3979 4 12.7157C4 13.3755 4.50653 13.912 5.12954 13.912H5.89551V19.4019C5.89551 19.7327 6.14789 20 6.46028 20H10.8708V15.813H12.8475V20H17.5404C17.8528 20 18.1052 19.7327 18.1052 19.4019V13.912H18.8711C19.1712 13.912 19.4588 13.7867 19.6706 13.5606C20.1101 13.0932 20.1101 12.3362 19.6689 11.8689Z" fill="white"/>
</svg>
