<svg width="94" height="45" viewBox="0 0 94 45" fill="none" xmlns="http://www.w3.org/2000/svg">
<path d="M17.0324 9.50393V11.9949H9.62795V5.86852L4.07422 2.36841H10.6155V9.50393H17.0324Z" fill="#FF872D"/>
<path fill-rule="evenodd" clip-rule="evenodd" d="M17.0322 5.86852L22.586 2.36841H17.0322V5.86852Z" fill="white"/>
<path d="M88.2251 4.06396H89.6339V7.57827C89.6339 8.084 89.7655 8.49168 90.0287 8.80131C90.297 9.10579 90.6583 9.25802 91.1124 9.25802C91.5665 9.25802 91.9252 9.10579 92.1884 8.80131C92.4567 8.49168 92.5909 8.084 92.5909 7.57827V4.06396H93.9997V7.57827C93.9997 8.16657 93.8784 8.6852 93.6359 9.13417C93.3985 9.57797 93.0605 9.92115 92.6219 10.1637C92.1884 10.4062 91.6852 10.5275 91.1124 10.5275C90.5396 10.5275 90.0339 10.4062 89.5952 10.1637C89.1617 9.92115 88.8237 9.57797 88.5812 9.13417C88.3438 8.6852 88.2251 8.16657 88.2251 7.57827V4.06396Z" fill="white"/>
<path d="M83.6911 8.27494C83.6911 8.43492 83.7323 8.59231 83.8149 8.74713C83.9026 8.89678 84.0265 9.02064 84.1865 9.11869C84.3464 9.21158 84.5374 9.25802 84.7593 9.25802C85.105 9.25802 85.376 9.14707 85.5721 8.92517C85.7733 8.70327 85.8739 8.40912 85.8739 8.04272V4.06396H87.2828V8.04272C87.2828 8.53813 87.177 8.97419 86.9654 9.35091C86.759 9.72763 86.4648 10.0166 86.0829 10.2179C85.7011 10.4243 85.2598 10.5275 84.7593 10.5275C84.2639 10.5275 83.8304 10.4269 83.4588 10.2256C83.0873 10.0295 82.7983 9.76117 82.5919 9.42058C82.3906 9.07482 82.2874 8.69294 82.2822 8.27494H83.6911Z" fill="white"/>
<path d="M75.0361 4.06396H76.1585L78.3337 7.59375L80.5089 4.06396H81.6313V10.3727H80.2224V6.91257L78.7594 9.33543H77.908L76.445 6.91257V10.3727H75.0361V4.06396Z" fill="white"/>
<path d="M66.0176 4.06398H67.1942L70.3447 7.85696V3.98657H71.7535V10.2953H70.5769L67.4264 6.50232V10.3727H66.0176V4.06398Z" fill="white"/>
<path d="M61.7746 10.5275C61.1295 10.5275 60.5464 10.383 60.0252 10.094C59.5091 9.81015 59.104 9.41795 58.8099 8.91739C58.5157 8.41166 58.3687 7.844 58.3687 7.21442C58.3687 6.58483 58.5157 6.01976 58.8099 5.51919C59.104 5.01346 59.5091 4.61868 60.0252 4.33485C60.5464 4.04586 61.1295 3.90137 61.7746 3.90137C62.4197 3.90137 63.0002 4.04586 63.5163 4.33485C64.0375 4.61868 64.4452 5.01346 64.7393 5.51919C65.0335 6.01976 65.1805 6.58483 65.1805 7.21442C65.1805 7.844 65.0335 8.41166 64.7393 8.91739C64.4452 9.41795 64.0375 9.81015 63.5163 10.094C63.0002 10.383 62.4197 10.5275 61.7746 10.5275ZM61.7746 9.25798C62.1513 9.25798 62.4919 9.17025 62.7964 8.99479C63.1008 8.81934 63.3382 8.57679 63.5085 8.26716C63.684 7.95237 63.7717 7.60145 63.7717 7.21442C63.7717 6.82222 63.684 6.4713 63.5085 6.16167C63.3382 5.85204 63.1008 5.6095 62.7964 5.43404C62.4919 5.25858 62.1513 5.17085 61.7746 5.17085C61.3979 5.17085 61.0573 5.25858 60.7528 5.43404C60.4483 5.6095 60.2084 5.85204 60.0329 6.16167C59.8626 6.4713 59.7775 6.82222 59.7775 7.21442C59.7775 7.60145 59.8626 7.95237 60.0329 8.26716C60.2084 8.57679 60.4483 8.81934 60.7528 8.99479C61.0573 9.17025 61.3979 9.25798 61.7746 9.25798Z" fill="white"/>
<path d="M57.5314 4.06396V10.3727H56.1226V4.06396H57.5314Z" fill="white"/>
<path d="M52.2623 4.06396V9.12643H55.4128V10.3727H50.8535V4.06396H52.2623Z" fill="white"/>
<path d="M45.1465 4.06396H49.8374V5.28701H46.5553V6.57197H49.5665V7.79501H46.5553V9.14965H49.9071V10.3727H45.1465V4.06396Z" fill="white"/>
<path d="M41.019 7.96531L40.1598 8.95613V10.3727H38.751V4.06396H40.1598V7.03642L42.6833 4.06396H44.4095L41.9324 6.92031L44.5411 10.3727H42.7839L41.019 7.96531Z" fill="white"/>
<path d="M37.6354 4.06396V10.3727H36.2266V4.06396H37.6354Z" fill="white"/>
<path d="M32.3663 4.06396V9.12643H35.5168V10.3727H30.9575V4.06396H32.3663Z" fill="white"/>
<path d="M88.9836 35.4594C90.6568 35.4594 92.0812 36.5434 92.5919 38.0458L94 38.076C93.4605 35.8062 91.4164 34.113 88.9836 34.113C87.4098 34.113 85.9984 34.822 85.0527 35.9371C85.3141 36.394 85.5198 36.8944 85.66 37.4093C86.3127 36.2468 87.5579 35.4594 88.9836 35.4594Z" fill="white"/>
<path d="M88.9838 43.0774C87.4466 43.0774 86.1188 42.1618 85.518 40.8475C85.3268 41.3345 85.0631 41.7881 84.7344 42.1837C85.1671 42.8132 85.7358 43.342 86.3983 43.7269C87.1499 44.1647 88.0218 44.4177 88.9508 44.4233C88.9619 44.4233 88.9726 44.4233 88.9838 44.4233C88.9949 44.4233 89.006 44.4233 89.0172 44.4233C89.9466 44.4177 90.818 44.1647 91.5697 43.7269C92.6704 43.0866 93.5135 42.05 93.9026 40.8136L92.4782 40.7834C91.8914 42.1321 90.546 43.0774 88.9838 43.0774Z" fill="white"/>
<path d="M75.8207 39.2682C75.8207 39.2208 75.8202 39.1735 75.8184 39.1261V39.1238C75.8072 38.7069 75.746 38.303 75.6406 37.9162C75.6299 37.8777 75.6192 37.8392 75.6076 37.8006C75.5505 37.6094 75.4827 37.4223 75.4047 37.2407C74.6159 35.4027 72.7882 34.1125 70.6646 34.1125C69.0211 34.1125 67.555 34.8855 66.6098 36.0871C66.4519 36.2876 66.3089 36.5002 66.1822 36.7231C65.7537 37.4743 65.509 38.3429 65.509 39.2677C65.509 39.8996 65.3544 40.4957 65.081 41.0208C64.8173 41.5277 64.4426 41.9683 63.9895 42.31C63.8567 42.2863 63.7272 42.2552 63.6018 42.219C62.8014 41.9878 62.0266 41.6842 62.0024 41.6749C62.3511 42.0797 62.7824 42.4595 63.1858 42.7752C63.7462 43.2139 64.2527 43.5273 64.4078 43.6104C64.4152 43.6058 64.4226 43.6011 64.4296 43.5955C64.4602 43.576 64.4904 43.5561 64.5201 43.5357C64.5419 43.5213 64.5628 43.5069 64.5842 43.4915C64.9148 43.2627 65.2272 43.0064 65.5006 42.7237C65.5884 42.6331 65.6724 42.5398 65.7513 42.4437C65.8201 42.3606 65.8851 42.2752 65.9463 42.1879C65.9477 42.186 65.9491 42.1837 65.9505 42.1819C65.9519 42.1795 65.9538 42.1772 65.9552 42.1749C65.9566 42.173 65.9579 42.1712 65.9593 42.1693C65.9807 42.1382 66.002 42.1062 66.0225 42.0746C66.0568 42.0217 66.0903 41.9688 66.1228 41.9145C66.1427 41.881 66.1627 41.8471 66.1822 41.8128C66.6107 41.0616 66.8554 40.1925 66.8554 39.2677C66.8554 38.6358 67.01 38.0393 67.2839 37.5142C67.919 36.2941 69.1962 35.4589 70.6646 35.4589C72.7649 35.4589 74.4739 37.1674 74.4739 39.2677C74.4739 41.368 72.7649 43.077 70.6646 43.077C69.1962 43.077 67.919 42.2418 67.2834 41.0212C67.1232 41.5305 66.8953 42.0101 66.6098 42.4488C67.555 43.6503 69.0211 44.4233 70.6646 44.4233C71.5658 44.4233 72.414 44.1912 73.1517 43.7826C73.1846 43.7645 73.2176 43.746 73.2506 43.7265C74.0231 43.2771 74.6689 42.6322 75.1197 41.8601C75.2232 41.6833 75.3165 41.4994 75.3987 41.31C75.4604 41.1679 75.5157 41.0221 75.5644 40.874C75.6782 40.5277 75.7562 40.1651 75.7938 39.7909C75.7993 39.7375 75.8035 39.6837 75.8072 39.6298C75.811 39.576 75.8137 39.5217 75.8161 39.4673C75.8188 39.4014 75.8202 39.335 75.8202 39.2682H75.8207Z" fill="white"/>
<path d="M85.0705 39.9413C85.143 39.6191 85.1806 39.2877 85.1796 38.9543C85.1792 38.8355 85.1745 38.7152 85.1653 38.595C85.1471 38.3633 85.1133 38.1303 85.064 37.8986C84.9656 37.4371 84.8078 36.9826 84.5979 36.562C84.4823 36.3285 84.3505 36.1052 84.2038 35.8967C84.1713 35.8493 84.1374 35.8029 84.1026 35.757C83.4953 34.9552 82.376 33.9993 80.4943 33.9993C78.7984 33.9993 77.4701 34.7161 76.6544 36.0727C76.4293 36.4473 76.264 36.834 76.1428 37.2073C76.3847 37.8485 76.5175 38.543 76.5175 39.2682C76.5175 40.2714 76.2635 41.2162 75.8169 42.0426V44.4233H77.1633V39.2682C77.1633 38.933 77.2097 37.7612 77.8081 36.7667C78.3833 35.8103 79.2622 35.3456 80.4943 35.3456C82.0682 35.3456 83.0037 36.2788 83.4674 37.3155C83.649 37.7199 83.7581 38.1405 83.8054 38.5272V39.3805C83.7414 39.8564 83.5691 40.31 83.3068 40.6902C83.2455 40.7789 83.1791 40.8638 83.1081 40.9441C82.538 41.5881 81.7065 41.9205 80.6368 41.9326L79.0365 41.9497L81.5101 44.4233H83.4141L82.077 43.0862C82.8792 42.8634 83.4577 42.479 83.8625 42.0978C83.9563 42.0096 84.0408 41.9219 84.1165 41.836C84.201 41.7408 84.2808 41.641 84.3556 41.5375C84.5561 41.2617 84.7228 40.9585 84.8528 40.6377C84.9438 40.413 85.0172 40.18 85.0705 39.9413Z" fill="white"/>
<path d="M85.9447 39.9413H90.9485V38.595H85.863C85.8713 38.7147 85.8755 38.8341 85.876 38.9525C85.8769 39.2853 85.8449 39.6168 85.7812 39.9413H85.9447Z" fill="white"/>
<path d="M60.0528 39.5184C59.2826 37.2435 60.4307 35.7305 60.9172 35.9046C60.9172 35.9046 60.6489 35.5717 60.459 34.8651C60.926 35.361 61.2817 35.893 61.8611 35.9376C62.6369 35.9975 63.3323 35.7714 63.7033 35.9738C63.908 36.0852 64.0821 36.2115 64.2297 36.2835C64.3226 36.329 64.4048 36.3531 64.4767 36.3382C64.623 36.3095 65.0821 35.9575 65.2214 35.7528C65.2595 35.6836 65.2841 35.6321 65.2966 35.5871C65.3356 35.458 65.2804 35.3744 65.1833 35.0313C65.1754 35.0053 65.1471 34.9636 65.1007 34.9083C64.9192 34.6957 64.4674 34.2843 63.9131 33.8103C63.3165 33.2997 62.6011 32.7161 61.9776 32.2291C62.0955 32.1994 62.1823 32.2137 62.2492 32.2119C62.1429 32.0861 61.9818 31.9728 61.6076 31.7588C61.2612 31.5605 60.9669 31.4793 60.9237 31.4677C60.9028 31.4273 60.862 31.3433 60.8137 31.2272C60.6359 30.7991 60.3597 29.9319 60.6526 29.1914C60.6526 29.1914 60.3295 29.5006 60.1554 29.8697C59.9636 30.2764 60.1085 30.6144 59.8383 30.7402C59.8383 30.7402 59.6716 30.6668 59.5774 30.307C59.478 29.93 59.7621 29.2671 59.7751 29.236C59.7561 29.2545 59.186 29.8219 58.9181 31.1766C58.8986 31.2741 58.8805 31.3758 58.8647 31.4811C57.7199 31.5564 56.9172 31.8201 56.2742 32.2676C56.2742 32.2676 56.2728 32.2681 56.2723 32.2685C55.964 32.4821 55.6929 32.7384 55.4376 33.0364C55.4376 33.036 55.4385 33.036 55.4385 33.036C56.9715 32.0559 58.6656 32.7008 58.7176 32.7216C58.6711 32.7254 57.2236 32.8363 55.6595 33.718C54.529 34.3554 54.1451 35.426 54.0369 36.3071C53.9858 36.7213 53.996 37.0936 54.0183 37.3596C54.0397 37.6168 54.0726 37.7747 54.0726 37.7747C54.2087 35.2635 56.5128 34.1887 57.4738 34.2769C55.5295 34.9027 53.9375 37.5003 54.3456 39.7427C54.7481 41.2199 55.5894 42.6429 57.2324 43.492C57.3693 43.5631 57.5058 43.629 57.6409 43.6907C57.2561 42.7176 56.7811 41.0579 56.8313 39.7863C56.8661 38.8986 57.036 37.8893 57.484 37.3861C56.5597 40.2659 58.7157 43.7511 58.9924 44.1805C60.7975 44.6643 62.3954 44.4131 63.6717 43.9289C62.7195 43.3662 60.9149 42.0654 60.0528 39.5184ZM62.7455 33.5949L61.8485 33.5675L61.5839 32.9231L62.7455 33.5949Z" fill="white"/>
<path d="M83.4858 18.4141L85.4624 21.626H85.5269L87.5142 18.4141H88.6528L86.2144 22.3027L88.6528 26.1914H87.5142L85.5269 23.0439H85.4624L83.4751 26.1914H82.3364L84.8394 22.3027L82.3364 18.4141H83.4858Z" fill="white"/>
</svg>
