<svg width="85" height="45" viewBox="0 0 85 45" fill="none" xmlns="http://www.w3.org/2000/svg">
<path d="M82.9258 0.126953H84.5889V6.13184C84.5889 8.09961 83.0908 9.45801 80.8564 9.45801C78.6094 9.45801 77.124 8.09961 77.124 6.13184V0.126953H78.7744V5.99219C78.7744 7.14746 79.5869 7.98535 80.8564 7.98535C82.126 7.98535 82.9258 7.14746 82.9258 5.99219V0.126953Z" fill="white"/>
<path d="M73.7852 0.126953H75.4229V6.58887C75.4229 8.36621 74.2295 9.44531 72.4648 9.44531C70.8525 9.44531 69.6211 8.56934 69.6211 6.88086H71.2715C71.2715 7.62988 71.7793 8.08691 72.5283 8.08691C73.3281 8.08691 73.7725 7.56641 73.7852 6.58887V0.126953Z" fill="white"/>
<path d="M58.8174 0.126953H60.8486L63.5781 6.80469H63.6924L66.4219 0.126953H68.4531V9.31836H66.8662V2.99609H66.7773L64.2256 9.29297H63.0449L60.4932 2.9707H60.417V9.31836H58.8174V0.126953Z" fill="white"/>
<path d="M54.0312 0.126953V9.31836H52.5586L48.2041 3.03418H48.1279V9.31836H46.4775V0.126953H47.9756L52.3047 6.41113H52.3936V0.126953H54.0312Z" fill="white"/>
<path d="M45.0049 4.72266C45.0049 7.69336 43.2021 9.44531 40.79 9.44531C38.3779 9.44531 36.5752 7.68066 36.5752 4.72266C36.5752 1.75195 38.3779 0 40.79 0C43.2021 0 45.0049 1.75195 45.0049 4.72266ZM43.3418 4.72266C43.3418 2.62793 42.2881 1.48535 40.79 1.48535C39.292 1.48535 38.2383 2.62793 38.2383 4.72266C38.2383 6.81738 39.292 7.95996 40.79 7.95996C42.2881 7.95996 43.3418 6.81738 43.3418 4.72266Z" fill="white"/>
<path d="M35.0898 0.126953V9.31836H33.4395V0.126953H35.0898Z" fill="white"/>
<path d="M26.4062 9.31836V0.126953H28.0566V7.92188H32.1191V9.31836H26.4062Z" fill="white"/>
<path d="M18.8398 9.31836V0.126953H24.8193V1.51074H20.4902V4.02441H24.502V5.4082H20.4902V7.92188H24.8447V9.31836H18.8398Z" fill="white"/>
<path d="M10.3975 9.31836V0.126953H12.0479V4.35449H12.1748L15.7676 0.126953H17.7861L14.2314 4.25293L17.8242 9.31836H15.8311L13.0762 5.37012L12.0479 6.57617V9.31836H10.3975Z" fill="white"/>
<path d="M8.68359 0.126953V9.31836H7.0332V0.126953H8.68359Z" fill="white"/>
<path d="M0 9.31836V0.126953H1.65039V7.92188H5.71289V9.31836H0Z" fill="white"/>
<path d="M79.9836 35.268C81.6568 35.268 83.0812 36.352 83.5919 37.8544L85 37.8846C84.4605 35.6148 82.4164 33.9216 79.9836 33.9216C78.4098 33.9216 76.9984 34.6306 76.0527 35.7457C76.3141 36.2025 76.5198 36.703 76.66 37.2179C77.3127 36.0554 78.5579 35.268 79.9836 35.268Z" fill="white"/>
<path d="M79.9838 42.886C78.4466 42.886 77.1188 41.9704 76.518 40.6561C76.3268 41.1431 76.0631 41.5967 75.7344 41.9923C76.1671 42.6218 76.7358 43.1506 77.3983 43.5355C78.1499 43.9733 79.0218 44.2263 79.9508 44.2318C79.9619 44.2318 79.9726 44.2318 79.9838 44.2318C79.9949 44.2318 80.006 44.2318 80.0172 44.2318C80.9466 44.2263 81.818 43.9733 82.5697 43.5355C83.6704 42.8952 84.5135 41.8585 84.9026 40.6222L83.4782 40.592C82.8914 41.9407 81.546 42.886 79.9838 42.886Z" fill="white"/>
<path d="M66.8207 39.0768C66.8207 39.0294 66.8202 38.9821 66.8184 38.9347V38.9324C66.8072 38.5155 66.746 38.1116 66.6406 37.7248C66.6299 37.6863 66.6192 37.6478 66.6076 37.6092C66.5505 37.418 66.4827 37.2309 66.4047 37.0493C65.6159 35.2113 63.7882 33.9211 61.6646 33.9211C60.0211 33.9211 58.555 34.6941 57.6098 35.8956C57.4519 36.0962 57.3089 36.3088 57.1822 36.5317C56.7537 37.2829 56.509 38.1515 56.509 39.0763C56.509 39.7082 56.3544 40.3043 56.081 40.8293C55.8173 41.3363 55.4426 41.7769 54.9895 42.1186C54.8567 42.0949 54.7272 42.0638 54.6018 42.0276C53.8014 41.7964 53.0266 41.4928 53.0024 41.4835C53.3511 41.8883 53.7824 42.2681 54.1858 42.5838C54.7462 43.0225 55.2527 43.3359 55.4078 43.419C55.4152 43.4143 55.4226 43.4097 55.4296 43.4041C55.4602 43.3846 55.4904 43.3647 55.5201 43.3442C55.5419 43.3299 55.5628 43.3155 55.5842 43.3001C55.9148 43.0713 56.2272 42.815 56.5006 42.5323C56.5884 42.4417 56.6724 42.3484 56.7513 42.2523C56.8201 42.1692 56.8851 42.0838 56.9463 41.9965C56.9477 41.9946 56.9491 41.9923 56.9505 41.9905C56.9519 41.9881 56.9538 41.9858 56.9552 41.9835C56.9566 41.9816 56.9579 41.9798 56.9593 41.9779C56.9807 41.9468 57.002 41.9148 57.0225 41.8832C57.0568 41.8303 57.0903 41.7774 57.1228 41.723C57.1427 41.6896 57.1627 41.6557 57.1822 41.6214C57.6107 40.8702 57.8554 40.0011 57.8554 39.0763C57.8554 38.4444 58.01 37.8479 58.2839 37.3228C58.919 36.1027 60.1962 35.2675 61.6646 35.2675C63.7649 35.2675 65.4739 36.976 65.4739 39.0763C65.4739 41.1766 63.7649 42.8856 61.6646 42.8856C60.1962 42.8856 58.919 42.0504 58.2834 40.8298C58.1232 41.3391 57.8953 41.8187 57.6098 42.2574C58.555 43.4589 60.0211 44.2319 61.6646 44.2319C62.5658 44.2319 63.414 43.9998 64.1517 43.5912C64.1846 43.5731 64.2176 43.5546 64.2506 43.5351C65.0231 43.0857 65.6689 42.4408 66.1197 41.6687C66.2232 41.4918 66.3165 41.308 66.3987 41.1186C66.4604 40.9765 66.5157 40.8307 66.5644 40.6826C66.6782 40.3363 66.7562 39.9737 66.7938 39.5995C66.7993 39.5461 66.8035 39.4923 66.8072 39.4384C66.811 39.3846 66.8137 39.3302 66.8161 39.2759C66.8188 39.21 66.8202 39.1436 66.8202 39.0768H66.8207Z" fill="white"/>
<path d="M76.0705 39.7499C76.143 39.4277 76.1806 39.0963 76.1796 38.7629C76.1792 38.6441 76.1745 38.5238 76.1653 38.4036C76.1471 38.1719 76.1133 37.9389 76.064 37.7072C75.9656 37.2457 75.8078 36.7912 75.5979 36.3706C75.4823 36.1371 75.3505 35.9137 75.2038 35.7053C75.1713 35.6579 75.1374 35.6115 75.1026 35.5656C74.4953 34.7638 73.376 33.8079 71.4943 33.8079C69.7984 33.8079 68.4701 34.5247 67.6544 35.8813C67.4293 36.2559 67.264 36.6426 67.1428 37.0159C67.3847 37.657 67.5175 38.3516 67.5175 39.0768C67.5175 40.08 67.2635 41.0248 66.8169 41.8512V44.2319H68.1633V39.0768C68.1633 38.7416 68.2097 37.5698 68.8081 36.5753C69.3833 35.6189 70.2622 35.1542 71.4943 35.1542C73.0682 35.1542 74.0037 36.0874 74.4674 37.1241C74.649 37.5284 74.7581 37.9491 74.8054 38.3358V39.1891C74.7414 39.665 74.5691 40.1186 74.3068 40.4988C74.2455 40.5875 74.1791 40.6724 74.1081 40.7527C73.538 41.3967 72.7065 41.7291 71.6368 41.7412L70.0365 41.7583L72.5101 44.2319H74.4141L73.077 42.8948C73.8792 42.672 74.4577 42.2876 74.8625 41.9064C74.9563 41.8182 75.0408 41.7305 75.1165 41.6446C75.201 41.5494 75.2808 41.4496 75.3556 41.3461C75.5561 41.0703 75.7228 40.7671 75.8528 40.4463C75.9438 40.2216 76.0172 39.9886 76.0705 39.7499Z" fill="white"/>
<path d="M76.9447 39.7499H81.9485V38.4036H76.863C76.8713 38.5233 76.8755 38.6427 76.876 38.761C76.8769 39.0939 76.8449 39.4254 76.7812 39.7499H76.9447Z" fill="white"/>
<path d="M51.0528 39.327C50.2826 37.0521 51.4307 35.5391 51.9172 35.7132C51.9172 35.7132 51.6489 35.3803 51.459 34.6737C51.926 35.1696 52.2817 35.7016 52.8611 35.7462C53.6369 35.8061 54.3323 35.58 54.7033 35.7824C54.908 35.8938 55.0821 36.0201 55.2297 36.092C55.3226 36.1375 55.4048 36.1617 55.4767 36.1468C55.623 36.118 56.0821 35.7661 56.2214 35.5614C56.2595 35.4922 56.2841 35.4407 56.2966 35.3957C56.3356 35.2666 56.2804 35.183 56.1833 34.8399C56.1754 34.8139 56.1471 34.7722 56.1007 34.7169C55.9192 34.5043 55.4674 34.0929 54.9131 33.6189C54.3165 33.1082 53.6011 32.5247 52.9776 32.0377C53.0955 32.0079 53.1823 32.0223 53.2492 32.0205C53.1429 31.8947 52.9818 31.7814 52.6076 31.5674C52.2612 31.3691 51.9669 31.2879 51.9237 31.2763C51.9028 31.2359 51.862 31.1518 51.8137 31.0358C51.6359 30.6077 51.3597 29.7405 51.6526 29C51.6526 29 51.3295 29.3092 51.1554 29.6783C50.9636 30.085 51.1085 30.423 50.8383 30.5488C50.8383 30.5488 50.6716 30.4754 50.5774 30.1156C50.478 29.7386 50.7621 29.0757 50.7751 29.0446C50.7561 29.0631 50.186 29.6305 49.9181 30.9852C49.8986 31.0827 49.8805 31.1843 49.8647 31.2897C48.7199 31.3649 47.9172 31.6286 47.2742 32.0762C47.2742 32.0762 47.2728 32.0767 47.2723 32.0771C46.964 32.2907 46.6929 32.547 46.4376 32.845C46.4376 32.8445 46.4385 32.8445 46.4385 32.8445C47.9715 31.8645 49.6656 32.5093 49.7176 32.5302C49.6711 32.534 48.2236 32.6449 46.6595 33.5265C45.529 34.164 45.1451 35.2346 45.0369 36.1157C44.9858 36.5298 44.996 36.9022 45.0183 37.1682C45.0397 37.4254 45.0726 37.5833 45.0726 37.5833C45.2087 35.0721 47.5128 33.9973 48.4738 34.0855C46.5295 34.7113 44.9375 37.3089 45.3456 39.5513C45.7481 41.0285 46.5894 42.4515 48.2324 43.3006C48.3693 43.3717 48.5058 43.4376 48.6409 43.4993C48.2561 42.5262 47.7811 40.8665 47.8313 39.5949C47.8661 38.7072 48.036 37.6979 48.484 37.1947C47.5597 40.0745 49.7157 43.5597 49.9924 43.9891C51.7975 44.4729 53.3954 44.2217 54.6717 43.7375C53.7195 43.1748 51.9149 41.874 51.0528 39.327ZM53.7455 33.4035L52.8485 33.3761L52.5839 32.7317L53.7455 33.4035Z" fill="white"/>
<path d="M74.4858 18.2227L76.4624 21.4346H76.5269L78.5142 18.2227H79.6528L77.2144 22.1113L79.6528 26H78.5142L76.5269 22.8525H76.4624L74.4751 26H73.3364L75.8394 22.1113L73.3364 18.2227H74.4858Z" fill="white"/>
</svg>
