<svg width="25" height="24" viewBox="0 0 25 24" fill="none" xmlns="http://www.w3.org/2000/svg">
<path d="M22.0495 7.66246H21.9002V2.90096H22.0495C22.2988 2.90096 22.5 2.69856 22.5 2.45048C22.5 2.20241 22.2988 2.00001 22.0495 2.00001H2.95048C2.70117 1.99877 2.5 2.20118 2.5 2.44925C2.5 2.69732 2.70117 2.89973 2.95048 2.89973H3.09981V7.66122H2.95048C2.70117 7.66122 2.5 7.86363 2.5 8.1117C2.5 8.35977 2.70117 8.56218 2.95048 8.56218H3.09981V10.7714C3.09981 11.344 3.32197 11.8624 3.67741 12.2586V20.1611H3.55153C3.30222 20.1611 3.10105 20.3635 3.10105 20.6115C3.10105 20.8596 3.30222 21.062 3.55153 21.062H21.4497C21.699 21.062 21.9002 20.8596 21.9002 20.6115C21.9002 20.3635 21.699 20.1611 21.4497 20.1611H21.3238V12.2573C21.678 11.8612 21.9002 11.3428 21.9002 10.7701V8.56094H22.0495C22.2988 8.56094 22.5 8.35854 22.5 8.11047C22.5 7.86239 22.2988 7.65999 22.0495 7.65999V7.66246ZM20.998 2.90096V7.66246H4.00201V2.90096H20.998ZM20.4216 17.1459H4.57961V12.8707C4.81904 12.9584 5.07328 13.0127 5.3411 13.0127C6.07544 13.0127 6.72215 12.6535 7.13067 12.1055C7.53919 12.6523 8.18713 13.0127 8.92024 13.0127C9.65335 13.0127 10.3013 12.6535 10.7098 12.1055C11.1183 12.6523 11.7663 13.0127 12.4994 13.0127C13.2325 13.0127 13.8804 12.6535 14.289 12.1055C14.6975 12.6523 15.3454 13.0127 16.0785 13.0127C16.8116 13.0127 17.4596 12.6535 17.8681 12.1055C18.2766 12.6523 18.9246 13.0127 19.6577 13.0127C19.9267 13.0127 20.181 12.9571 20.4192 12.8707V17.1459H20.4216ZM10.2593 8.56341V10.7726C10.2593 11.5106 9.65828 12.1117 8.92024 12.1117C8.1822 12.1117 7.58115 11.5106 7.58115 10.7726V8.56341H10.2593ZM13.8397 8.56341V10.7726C13.8397 11.5106 13.2387 12.1117 12.5006 12.1117C11.7626 12.1117 11.1615 11.5106 11.1615 10.7726V8.56341H13.8397ZM17.4189 8.56341V10.7726C17.4189 11.5106 16.8178 12.1117 16.0798 12.1117C15.3417 12.1117 14.7407 11.5106 14.7407 10.7726V8.56341H17.4189ZM6.68019 10.7726C6.68019 11.5106 6.07914 12.1117 5.3411 12.1117C4.60305 12.1117 4.00201 11.5106 4.00201 10.7726V8.56341H6.68019V10.7726ZM20.998 10.7726C20.998 11.5106 20.3969 12.1117 19.6589 12.1117C18.9209 12.1117 18.3198 11.5106 18.3198 10.7726V8.56341H20.998V10.7726ZM4.57961 20.1623V18.0469H20.4216V20.1623H4.57961Z" fill="#002968"/>
<path d="M16.9824 4.39365V4H19.4997V4.39365H18.4901V7H17.9965V4.39365H16.9824Z" fill="#002968"/>
<path d="M16.4799 4V7H16.0267L14.3799 4.80801H14.353V7H13.8594V4H14.3171L15.9639 6.19613H15.9953V4H16.4799Z" fill="#002968"/>
<path d="M11.2168 7V4H13.254V4.39365H11.7104V5.30111H13.1463V5.69061H11.7104V6.60635H13.2719V7H11.2168Z" fill="#002968"/>
<path d="M8.43046 4L9.33238 6.44061H9.36828L10.2702 4H10.8042L9.63302 7H9.06315L7.89648 4H8.43046Z" fill="#002968"/>
<path d="M5.5 7V4H7.53718V4.39365H5.99359V5.30111H7.42949V5.69061H5.99359V6.60635H7.55513V7H5.5Z" fill="#002968"/>
</svg>
