<svg width="25" height="24" viewBox="0 0 25 24" fill="none" xmlns="http://www.w3.org/2000/svg">
<path d="M17.6226 21.0001C17.0638 21.0001 16.5051 20.8139 16.0705 20.4414L10.7312 15.7851C10.2967 15.4125 9.7379 15.2263 9.11705 15.2884C8.5583 15.3505 7.99954 15.6609 7.62703 16.0955C7.44078 16.3438 7.00619 16.4059 6.75785 16.2196C6.50952 16.0334 6.44743 15.5988 6.63369 15.3505C7.19244 14.6055 8.06162 14.1088 8.9308 14.0467C9.86207 13.9225 10.7933 14.2329 11.4763 14.8538L16.8155 19.5101C17.2501 19.8826 17.8709 19.8826 18.3055 19.448C18.7401 19.0134 18.7401 18.3305 18.3055 17.8959L17.188 16.7784C16.9397 16.5301 16.9397 16.1576 17.188 15.9092C17.4363 15.6609 17.8088 15.6609 18.0572 15.9092L19.1747 17.0267C20.106 17.958 20.106 19.3859 19.1747 20.3172C18.8643 20.7518 18.2434 21.0001 17.6226 21.0001Z" fill="#002968"/>
<path d="M7.87571 6.41022C8.93114 5.35478 9.55198 4.29935 9.73824 3.24392C8.37238 2.74725 6.75819 2.99558 5.64068 4.1131C4.52316 5.23061 4.21274 6.84481 4.7715 8.27274C5.76485 8.08649 6.88236 7.46565 7.87571 6.41022Z" fill="#002968"/>
<path d="M11.1664 4.11296C11.1043 4.05088 10.9802 3.92671 10.9181 3.86462C10.6077 4.98214 9.92473 6.16174 8.80721 7.27926C7.75178 8.33469 6.57218 9.0797 5.39258 9.39012C5.45466 9.4522 5.57883 9.57637 5.64092 9.63846C6.26176 10.2593 7.00677 10.5697 7.81386 10.5697C8.74513 10.5697 9.80056 10.073 10.7318 9.14178C12.346 7.46551 12.5323 5.5409 11.1664 4.11296Z" fill="#002968"/>
<path d="M18.9265 15.6607C18.4298 13.674 15.8223 10.0731 13.2148 7.21722C12.9664 8.21057 12.4698 9.20392 11.5385 10.0731C10.6693 10.9423 9.67596 11.501 8.68262 11.7494C11.5385 14.3569 15.1394 16.9644 17.1261 17.4611C17.1882 17.4611 17.2502 17.4611 17.2502 17.4611C17.4365 17.4611 17.5607 17.399 17.6848 17.2749L18.7403 16.2194C18.9265 16.0953 18.9886 15.8469 18.9265 15.6607ZM13.4631 12.0598C13.3389 12.184 13.1527 12.246 13.0285 12.246C12.9043 12.246 12.7181 12.184 12.5939 12.0598L12.0352 11.501C11.7868 11.2527 11.7868 10.8802 12.0352 10.6319C12.2835 10.3835 12.656 10.3835 12.9043 10.6319L13.4631 11.1906C13.7114 11.439 13.7114 11.8735 13.4631 12.0598Z" fill="#002968"/>
</svg>
