<svg width="24" height="24" viewBox="0 0 24 24" fill="none" xmlns="http://www.w3.org/2000/svg">
<path d="M22.5363 2H1.46242C1.20777 2 1 2.20651 1 2.46242V4.60478C1 4.8607 1.20777 5.0672 1.46242 5.0672H1.94132V19.4682C1.94132 19.7242 2.14909 19.9307 2.40374 19.9307H4.12675C4.34593 21.1545 5.41647 22.087 6.70239 22.087C7.98831 22.087 9.05885 21.1545 9.27803 19.9307H14.722C14.9411 21.1545 16.0117 22.087 17.2976 22.087C18.5835 22.087 19.6541 21.1545 19.8733 19.9307H21.5963C21.8522 19.9307 22.0587 19.7242 22.0587 19.4682V5.06847H22.5376C22.7935 5.06847 23 4.86196 23 4.60605V2.46242C23 2.20651 22.7922 2 22.5376 2H22.5363ZM17.4876 5.06847H18.9902V14.5298H12.8609C12.8355 13.2502 12.0817 12.1493 10.9972 11.621C11.3849 11.2434 11.6282 10.7177 11.6282 10.1349C11.6282 8.99084 10.697 8.05966 9.55295 8.05966C8.40893 8.05966 7.47774 8.99084 7.47774 10.1349C7.47774 10.7177 7.72099 11.2434 8.10867 11.6197C7.02419 12.148 6.27037 13.2489 6.24503 14.5285H5.00979V5.06847H16.5628M9.55295 11.284C8.91949 11.284 8.40386 10.7683 8.40386 10.1349C8.40386 9.50141 8.91949 8.98578 9.55295 8.98578C10.1864 8.98578 10.702 9.50141 10.702 10.1349C10.702 10.7683 10.1864 11.284 9.55295 11.284ZM11.9373 14.5285H7.16735C7.20282 13.2439 8.25943 12.2101 9.55168 12.2101C10.8439 12.2101 11.9005 13.2439 11.936 14.5285H11.9373ZM4.08367 14.5285H2.86743V5.06847H4.08367V14.5298V14.5285ZM6.70239 21.1621C5.76867 21.1621 5.00979 20.4032 5.00979 19.4682C5.00979 18.5333 5.76867 17.7756 6.70239 17.7756C7.63611 17.7756 8.39626 18.5345 8.39626 19.4682C8.39626 20.402 7.63611 21.1621 6.70239 21.1621ZM17.2963 21.1621C16.3626 21.1621 15.6037 20.4032 15.6037 19.4682C15.6037 18.5333 16.3626 17.7756 17.2963 17.7756C18.2301 17.7756 18.9902 18.5345 18.9902 19.4682C18.9902 20.402 18.2301 21.1621 17.2963 21.1621ZM21.1313 19.0058H19.872C19.6528 17.782 18.5823 16.8495 17.2963 16.8495C16.0104 16.8495 14.9411 17.782 14.7207 19.0058H9.27676C9.05759 17.782 7.98704 16.8495 6.70112 16.8495C5.4152 16.8495 4.34593 17.782 4.12548 19.0058H2.86617V15.4546C21.1478 15.4546 2.83956 15.4546 21.1313 15.4546V19.0058ZM21.1313 14.5285H19.9151V5.06847H21.1313V14.5298V14.5285ZM22.0739 4.14236H1.92612V2.92612H22.0739V4.14236Z" fill="#002968"/>
</svg>
