<svg width="24" height="24" viewBox="0 0 24 24" fill="none" xmlns="http://www.w3.org/2000/svg">
<path d="M5.95619 15.4248C4.73905 15.4248 3.75524 16.4095 3.75524 17.6257C3.75524 18.8429 4.73905 19.8267 5.95619 19.8267C7.17238 19.8267 8.15714 18.8429 8.15714 17.6257C8.15714 16.4095 7.17238 15.4248 5.95619 15.4248ZM5.95619 18.4686C5.49429 18.4686 5.11333 18.0876 5.11333 17.6257C5.11333 17.1638 5.49429 16.7829 5.95619 16.7829C6.4181 16.7829 6.79905 17.1638 6.79905 17.6257C6.79905 18.0876 6.4181 18.4686 5.95619 18.4686ZM19.8133 15.3305C18.5971 15.3305 17.6124 16.3152 17.6124 17.5324C17.6124 18.7486 18.5971 19.7333 19.8133 19.7333C21.0305 19.7333 22.0152 18.7486 22.0152 17.5324C22.0152 16.3152 21.0305 15.3305 19.8133 15.3305ZM19.8133 18.3752C19.3514 18.3752 18.9705 17.9943 18.9705 17.5324C18.9705 17.0695 19.3514 16.6886 19.8133 16.6886C20.2762 16.6886 20.6571 17.0695 20.6571 17.5324C20.6571 17.9943 20.2762 18.3752 19.8133 18.3752ZM0 5V16.3752C0 16.8019 0.335238 17.1905 0.761905 17.1905H2.85714C2.94476 17.1905 3.03143 17.08 3.04762 17C3.28762 15.6229 4.50762 14.6724 5.95619 14.6724C7.40476 14.6724 8.60571 15.6267 8.84571 17.0038C8.86191 17.0914 8.96 17.1905 9.04762 17.1905H12.1905V5H0ZM5.21714 8.6781C5.21714 8.94286 5.0019 9.15714 4.73714 9.15714V12.9914C4.73714 13.1676 4.59429 13.3114 4.4181 13.3114C4.2419 13.3114 4.0981 13.1676 4.0981 12.9914V9.15714C3.83333 9.15714 3.61905 8.94286 3.61905 8.6781V6.76H3.85905V8.1981H4.2981V6.76H4.5381V8.1981H4.97714V6.76H5.21714V8.6781ZM8.13048 12.9914C8.13048 13.08 8.09429 13.16 8.03619 13.2171C7.97905 13.2752 7.89905 13.3114 7.81048 13.3114C7.63429 13.3114 7.49143 13.1676 7.49143 12.9914V10.4352H7.17143V7.24C7.17143 6.97524 7.38571 6.76 7.65048 6.76C7.91524 6.76 8.13048 6.97524 8.13048 7.24V12.9914ZM23.8095 15.5714H23.3333V13.4762C23.3333 12.7714 22.8076 12.2381 22.0952 12.2381H19.8095C19.7619 12.2381 19.7048 12.2124 19.6724 12.18L16.1105 8.71333C15.9505 8.55333 15.7562 8.43619 15.5238 8.42857H12.9524V17.1905H16.7619C16.8495 17.1905 16.9362 17.08 16.9524 17C17.1924 15.6229 18.3648 14.5781 19.8133 14.5781C21.2629 14.5781 22.4629 15.6267 22.7029 17.0038C22.719 17.0914 22.8648 17.1905 22.9524 17.1905H23.1429C23.599 17.1905 24 16.78 24 16.3314V15.739C24 15.6505 23.9057 15.5714 23.8095 15.5714ZM18 12.2381H14.0952C13.999 12.2381 13.9048 12.1438 13.9048 12.0476V9.58857C13.9048 9.49238 13.999 9.38095 14.0952 9.38095H15.3333C15.381 9.38095 15.4781 9.43333 15.5181 9.46571L18.0952 11.9524C18.1914 12.0724 18.1524 12.2381 18 12.2381Z" fill="#002968"/>
</svg>
