<svg width="38" height="38" viewBox="0 0 38 38" fill="none" xmlns="http://www.w3.org/2000/svg">
<path d="M10.8571 4.75C7.50935 4.75 4.75 7.50935 4.75 10.8571V12.8929H6.78571V10.8571C6.78571 8.59877 8.59877 6.78571 10.8571 6.78571H12.8929V4.75H10.8571ZM14.9286 4.75V6.78571H23.0714V4.75H14.9286ZM25.1071 4.75V6.78571H27.1429C29.4012 6.78571 31.2143 8.59877 31.2143 10.8571V12.8929H33.25V10.8571C33.25 7.50935 30.4907 4.75 27.1429 4.75H25.1071ZM14.9286 12.8929C13.8073 12.8929 12.8929 13.8073 12.8929 14.9286C12.8929 16.0498 13.8073 16.9643 14.9286 16.9643C16.0498 16.9643 16.9643 16.0498 16.9643 14.9286C16.9643 13.8073 16.0498 12.8929 14.9286 12.8929ZM4.75 14.9286V23.0714H6.78571V14.9286H4.75ZM31.2143 14.9286V23.0714H33.25V14.9286H31.2143ZM22.0536 19L17.9821 23.0714L14.9286 21.0357L10.8571 25.1071V26.125C10.8571 27.1429 11.875 27.1429 11.875 27.1429H26.125C26.125 27.1429 27.0872 27.0713 27.1429 26.125V24.0893L22.0536 19ZM4.75 25.1071V27.1429C4.75 30.4907 7.50935 33.25 10.8571 33.25H12.8929V31.2143H10.8571C8.59877 31.2143 6.78571 29.4012 6.78571 27.1429V25.1071H4.75ZM31.2143 25.1071V27.1429C31.2143 29.4012 29.4012 31.2143 27.1429 31.2143H25.1071V33.25H27.1429C30.4907 33.25 33.25 30.4907 33.25 27.1429V25.1071H31.2143ZM14.9286 31.2143V33.25H23.0714V31.2143H14.9286Z" fill="#424D5C"/>
</svg>
