<svg width="49" height="48" viewBox="0 0 49 48" fill="none" xmlns="http://www.w3.org/2000/svg">
<g clip-path="url(#clip0_1990_3395)">
<circle cx="24.5" cy="24" r="23" stroke="black" stroke-opacity="0.5" stroke-width="2"/>
<path d="M36.1492 14.1113C36.6804 13.5703 36.5991 12.756 35.9679 12.3007C35.3367 11.8454 34.3868 11.915 33.8556 12.4561L24.5 22.0019L15.1507 12.4614C14.6195 11.915 13.6695 11.8454 13.0383 12.3007C12.4071 12.756 12.3196 13.5703 12.8508 14.1113L22.5439 24L12.8508 33.8887C12.3196 34.4351 12.4009 35.244 13.0321 35.6993C13.6633 36.1546 14.6132 36.085 15.1444 35.5439L24.5 25.9981L33.8493 35.5386C34.3805 36.085 35.3305 36.1546 35.9617 35.6939C36.5929 35.2332 36.6804 34.4244 36.1429 33.8833L26.4561 24L36.1429 14.1113H36.1492Z" fill="black" fill-opacity="0.5"/>
</g>
<defs>
<clipPath id="clip0_1990_3395">
<rect width="48" height="48" fill="white" transform="translate(0.5)"/>
</clipPath>
</defs>
</svg>
