<svg width="24" height="24" viewBox="0 0 24 24" fill="none" xmlns="http://www.w3.org/2000/svg">
<path d="M12 3C10.1441 3.00213 8.36488 3.74784 7.05258 5.07354C5.74028 6.39925 5.00211 8.19667 5 10.0715C5 16.1225 11.3636 20.6924 11.6349 20.8837C11.7419 20.9594 11.8694 21 12 21C12.1306 21 12.2581 20.9594 12.3651 20.8837C12.6364 20.6924 19 16.1225 19 10.0715C18.9979 8.19667 18.2597 6.39925 16.9474 5.07354C15.6351 3.74784 13.8559 3.00213 12 3ZM12 7.50004C12.5034 7.50004 12.9956 7.65086 13.4142 7.93341C13.8328 8.21597 14.159 8.61757 14.3517 9.08745C14.5444 9.55732 14.5948 10.0744 14.4965 10.5732C14.3983 11.072 14.1559 11.5302 13.7999 11.8898C13.4439 12.2494 12.9904 12.4943 12.4966 12.5935C12.0028 12.6928 11.491 12.6418 11.0259 12.4472C10.5608 12.2526 10.1632 11.923 9.88353 11.5001C9.60383 11.0772 9.45455 10.5801 9.45455 10.0715C9.45455 9.38951 9.72273 8.73545 10.2001 8.25321C10.6775 7.77097 11.3249 7.50004 12 7.50004Z" fill="#002968"/>
</svg>
