<svg width="24" height="24" viewBox="0 0 24 24" fill="none" xmlns="http://www.w3.org/2000/svg">
<path d="M5.82666 4.22408C5.76812 4.15814 5.69705 4.10446 5.61759 4.06616C5.53814 4.02786 5.45186 4.0057 5.36377 4.00096C5.27567 3.99623 5.18751 4.00901 5.1044 4.03857C5.02129 4.06813 4.94487 4.11388 4.87959 4.17317C4.8143 4.23246 4.76144 4.30411 4.72406 4.38396C4.68669 4.46381 4.66555 4.55029 4.66187 4.63837C4.65818 4.72644 4.67203 4.81438 4.70261 4.89707C4.73319 4.97976 4.77988 5.05556 4.83999 5.12009L6.44333 6.88295C3.41666 8.73908 2.11499 11.6003 2.05749 11.7302C2.01959 11.8154 2 11.9076 2 12.0008C2 12.0941 2.01959 12.1863 2.05749 12.2715C2.08666 12.3373 2.79249 13.9011 4.36166 15.4691C6.4525 17.5576 9.09333 18.6617 12 18.6617C13.4939 18.6703 14.9726 18.3629 16.3392 17.7599L18.1725 19.7759C18.2311 19.8419 18.3021 19.8955 18.3816 19.9338C18.461 19.9721 18.5473 19.9943 18.6354 19.999C18.7235 20.0038 18.8117 19.991 18.8948 19.9614C18.9779 19.9319 19.0543 19.8861 19.1196 19.8268C19.1849 19.7675 19.2377 19.6959 19.2751 19.616C19.3125 19.5362 19.3336 19.4497 19.3373 19.3616C19.341 19.2736 19.3271 19.1856 19.2966 19.1029C19.266 19.0202 19.2193 18.9444 19.1592 18.8799L5.82666 4.22408ZM9.77083 10.5394L13.2433 14.3574C12.7204 14.6323 12.1209 14.7259 11.539 14.6234C10.9571 14.521 10.4257 14.2283 10.0283 13.7913C9.63095 13.3544 9.39003 12.798 9.34342 12.2094C9.29681 11.6208 9.44715 11.0334 9.77083 10.5394ZM12 17.3294C9.435 17.3294 7.19416 16.3976 5.33916 14.5606C4.57779 13.8045 3.93022 12.9419 3.41666 12C3.80749 11.268 5.05499 9.21956 7.3625 7.88804L8.8625 9.53266C8.28178 10.2759 7.98269 11.2003 8.01811 12.1425C8.05352 13.0848 8.42115 13.9842 9.05603 14.6818C9.6909 15.3794 10.5521 15.8302 11.4875 15.9546C12.4229 16.079 13.3721 15.869 14.1675 15.3617L15.395 16.7107C14.3117 17.126 13.1603 17.3358 12 17.3294ZM12.5 9.38277C12.3263 9.34964 12.1729 9.24891 12.0735 9.10274C11.9741 8.95657 11.9368 8.77693 11.97 8.60334C12.0032 8.42976 12.104 8.27644 12.2502 8.17712C12.3965 8.0778 12.5763 8.04061 12.75 8.07374C13.5997 8.23834 14.3733 8.673 14.9556 9.31289C15.5378 9.95278 15.8975 10.7636 15.9808 11.6244C15.9973 11.8004 15.9432 11.9756 15.8303 12.1116C15.7175 12.2476 15.5552 12.3333 15.3792 12.3497C15.3584 12.351 15.3375 12.351 15.3167 12.3497C15.15 12.3505 14.9892 12.2888 14.8658 12.1769C14.7424 12.065 14.6654 11.911 14.65 11.7452C14.5939 11.1726 14.3543 10.6334 13.967 10.2078C13.5796 9.78214 13.0651 9.4928 12.5 9.38277ZM21.94 12.2715C21.905 12.3497 21.0608 14.2175 19.16 15.9188C19.0951 15.9788 19.0188 16.0252 18.9357 16.0555C18.8526 16.0857 18.7643 16.0991 18.676 16.095C18.5876 16.0908 18.501 16.0691 18.4212 16.0311C18.3413 15.9932 18.2698 15.9397 18.2108 15.8738C18.1518 15.808 18.1065 15.7311 18.0776 15.6476C18.0486 15.5641 18.0366 15.4756 18.0422 15.3874C18.0478 15.2992 18.0709 15.213 18.1101 15.1338C18.1494 15.0547 18.204 14.9841 18.2708 14.9262C19.2033 14.0889 19.9867 13.0995 20.5875 12C20.0728 11.0572 19.4238 10.1941 18.6608 9.43773C16.8058 7.60242 14.565 6.67061 12 6.67061C11.4595 6.66996 10.92 6.71369 10.3867 6.80134C10.2999 6.81667 10.211 6.81467 10.1251 6.79547C10.0391 6.77627 9.95786 6.74024 9.88593 6.68946C9.814 6.63869 9.75285 6.57418 9.70601 6.49965C9.65917 6.42513 9.62757 6.34207 9.61304 6.25527C9.59851 6.16848 9.60133 6.07966 9.62135 5.99396C9.64136 5.90826 9.67817 5.82737 9.72964 5.75597C9.78112 5.68456 9.84624 5.62406 9.92125 5.57795C9.99626 5.53183 10.0797 5.50103 10.1667 5.48732C10.7726 5.38733 11.3858 5.33748 12 5.33826C14.9067 5.33826 17.5475 6.44244 19.6383 8.53173C21.2075 10.0997 21.9133 11.6644 21.9425 11.7302C21.9804 11.8154 22 11.9076 22 12.0008C22 12.0941 21.9804 12.1863 21.9425 12.2715H21.94Z" fill="black"/>
</svg>
