<svg width="24" height="24" viewBox="0 0 24 24" fill="none" xmlns="http://www.w3.org/2000/svg">
<path d="M21.9425 11.7165C21.9133 11.6474 21.2075 10.0032 19.6383 8.35562C17.5475 6.16025 14.9067 5 12 5C9.09333 5 6.4525 6.16025 4.36166 8.35562C2.79249 10.0032 2.08333 11.65 2.05749 11.7165C2.01959 11.806 2 11.9029 2 12.0009C2 12.0988 2.01959 12.1957 2.05749 12.2852C2.08666 12.3544 2.79249 13.9976 4.36166 15.6453C6.4525 17.8398 9.09333 19 12 19C14.9067 19 17.5475 17.8398 19.6383 15.6453C21.2075 13.9976 21.9133 12.3544 21.9425 12.2852C21.9804 12.1957 22 12.0988 22 12.0009C22 11.9029 21.9804 11.806 21.9425 11.7165ZM12 17.6C9.435 17.6 7.19416 16.6209 5.33916 14.6906C4.57806 13.8958 3.93051 12.9896 3.41666 12C3.93032 11.0103 4.57788 10.104 5.33916 9.30937C7.19416 7.37913 9.435 6.4 12 6.4C14.565 6.4 16.8058 7.37913 18.6608 9.30937C19.4234 10.1039 20.0724 11.0102 20.5875 12C19.9867 13.1777 17.3692 17.6 12 17.6ZM12 7.8C11.2089 7.8 10.4355 8.04633 9.77772 8.50783C9.11992 8.96933 8.60723 9.62528 8.30448 10.3927C8.00173 11.1602 7.92251 12.0047 8.07686 12.8194C8.2312 13.6341 8.61216 14.3825 9.17157 14.9698C9.73098 15.5572 10.4437 15.9572 11.2196 16.1193C11.9956 16.2814 12.7998 16.1982 13.5307 15.8803C14.2616 15.5624 14.8864 15.0241 15.3259 14.3334C15.7654 13.6427 16 12.8307 16 12C15.9989 10.8864 15.5771 9.81883 14.8272 9.03143C14.0773 8.24403 13.0605 7.80116 12 7.8ZM12 14.8C11.4726 14.8 10.957 14.6358 10.5185 14.3281C10.0799 14.0204 9.73815 13.5831 9.53632 13.0715C9.33449 12.5599 9.28168 11.9969 9.38457 11.4537C9.48746 10.9106 9.74144 10.4117 10.1144 10.0201C10.4873 9.62851 10.9625 9.36184 11.4798 9.2538C11.997 9.14576 12.5332 9.20121 13.0205 9.41314C13.5078 9.62506 13.9242 9.98395 14.2173 10.4444C14.5103 10.9049 14.6667 11.4462 14.6667 12C14.6667 12.7426 14.3857 13.4548 13.8856 13.9799C13.3855 14.505 12.7072 14.8 12 14.8Z" fill="black"/>
</svg>
