<svg width="24" height="24" viewBox="0 0 24 24" fill="none" xmlns="http://www.w3.org/2000/svg">
<path d="M12.3333 22C10.1241 21.997 8.00628 21.124 6.44413 19.5724C4.88199 18.0209 4.00304 15.9174 4 13.7231C4 13.4961 4.09082 13.2783 4.25249 13.1177C4.41416 12.9571 4.63343 12.8669 4.86207 12.8669C5.0907 12.8669 5.30997 12.9571 5.47164 13.1177C5.63331 13.2783 5.72414 13.4961 5.72414 13.7231C5.72414 15.0215 6.11176 16.2906 6.83799 17.3701C7.56421 18.4496 8.59643 19.291 9.8041 19.7878C11.0118 20.2847 12.3407 20.4147 13.6227 20.1614C14.9048 19.9081 16.0824 19.2829 17.0067 18.3649C17.931 17.4468 18.5605 16.2772 18.8155 15.0038C19.0705 13.7304 18.9397 12.4105 18.4394 11.2111C17.9392 10.0116 17.0921 8.98635 16.0052 8.26504C14.9183 7.54374 13.6405 7.15874 12.3333 7.15874H9.45977C9.23113 7.15874 9.01186 7.06853 8.85019 6.90796C8.68852 6.74738 8.5977 6.5296 8.5977 6.30251C8.5977 6.07543 8.68852 5.85765 8.85019 5.69707C9.01186 5.5365 9.23113 5.44629 9.45977 5.44629H12.3333C14.5435 5.44629 16.6631 6.31831 18.2259 7.87052C19.7887 9.42273 20.6667 11.528 20.6667 13.7231C20.6667 15.9183 19.7887 18.0235 18.2259 19.5758C16.6631 21.128 14.5435 22 12.3333 22Z" fill="white"/>
<path d="M12.333 10.5836C12.2198 10.5841 12.1075 10.5622 12.0029 10.5191C11.8983 10.4759 11.8034 10.4125 11.7238 10.3325L8.27555 6.90755C8.11412 6.74701 8.02344 6.52939 8.02344 6.30249C8.02344 6.07559 8.11412 5.85796 8.27555 5.69742L11.7238 2.27252C11.8027 2.18839 11.8979 2.12092 12.0037 2.07412C12.1094 2.02733 12.2236 2.00216 12.3393 2.00013C12.4551 1.9981 12.57 2.01925 12.6774 2.06232C12.7847 2.10538 12.8822 2.16948 12.9641 2.25078C13.046 2.33209 13.1105 2.42894 13.1539 2.53555C13.1972 2.64217 13.2185 2.75636 13.2165 2.87133C13.2144 2.9863 13.1891 3.09968 13.142 3.20471C13.0948 3.30973 13.0269 3.40426 12.9422 3.48265L10.1031 6.30249L12.9422 9.12232C13.1037 9.28287 13.1943 9.50049 13.1943 9.72739C13.1943 9.95429 13.1037 10.1719 12.9422 10.3325C12.8626 10.4125 12.7677 10.4759 12.6631 10.5191C12.5585 10.5622 12.4463 10.5841 12.333 10.5836Z" fill="white"/>
</svg>
