<svg width="28" height="28" viewBox="0 0 28 28" fill="none" xmlns="http://www.w3.org/2000/svg">
<rect width="28" height="28" rx="14" fill="black" fill-opacity="0.5"/>
<path d="M21 21L16.3333 16.3333M7 12.4444C7 13.1594 7.14082 13.8674 7.41443 14.5279C7.68804 15.1885 8.08908 15.7887 8.59464 16.2942C9.1002 16.7998 9.7004 17.2008 10.3609 17.4745C11.0215 17.7481 11.7295 17.8889 12.4444 17.8889C13.1594 17.8889 13.8674 17.7481 14.5279 17.4745C15.1885 17.2008 15.7887 16.7998 16.2942 16.2942C16.7998 15.7887 17.2008 15.1885 17.4745 14.5279C17.7481 13.8674 17.8889 13.1594 17.8889 12.4444C17.8889 11.7295 17.7481 11.0215 17.4745 10.3609C17.2008 9.7004 16.7998 9.1002 16.2942 8.59464C15.7887 8.08908 15.1885 7.68804 14.5279 7.41443C13.8674 7.14082 13.1594 7 12.4444 7C11.7295 7 11.0215 7.14082 10.3609 7.41443C9.7004 7.68804 9.1002 8.08908 8.59464 8.59464C8.08908 9.1002 7.68804 9.7004 7.41443 10.3609C7.14082 11.0215 7 11.7295 7 12.4444Z" stroke="white" stroke-opacity="0.5" stroke-width="1.5" stroke-linecap="round" stroke-linejoin="round"/>
</svg>
