<svg width="24" height="24" viewBox="0 0 24 24" fill="none" xmlns="http://www.w3.org/2000/svg">
<path d="M19.7661 5.40755C20.1203 5.04685 20.0661 4.50403 19.6453 4.20048C19.2245 3.89693 18.5912 3.94335 18.2371 4.30404L12 10.6679L5.76711 4.30761C5.41297 3.94335 4.77968 3.89693 4.35888 4.20048C3.93808 4.50403 3.87975 5.04685 4.23389 5.40755L10.6959 12L4.23389 18.5925C3.87975 18.9567 3.93391 19.496 4.35471 19.7995C4.77552 20.1031 5.4088 20.0566 5.76295 19.696L12 13.3321L18.2329 19.6924C18.587 20.0566 19.2203 20.1031 19.6411 19.796C20.0619 19.4888 20.1203 18.9496 19.7619 18.5889L13.3041 12L19.7619 5.40755H19.7661Z" fill="black" fill-opacity="0.5"/>
</svg>
