<svg width="24" height="24" viewBox="0 0 24 24" fill="none" xmlns="http://www.w3.org/2000/svg">
<path d="M17.7117 14.8736L17.2103 14.8734L6.30237 14.8692C4.48144 14.8692 3 13.3837 3 11.5577C3 9.98144 4.08883 8.66378 5.5711 8.32868C5.54702 8.19611 5.5349 8.0608 5.5349 7.92332C5.5349 6.67976 6.5466 5.66805 7.79015 5.66805C8.20324 5.66805 8.5991 5.77824 8.94448 5.9848C9.89102 4.7331 11.3515 4 12.9453 4C15.4361 4 17.5357 5.83451 17.9084 8.25208C19.6327 8.36805 21 9.80737 21 11.56C21 13.3693 19.527 14.8557 17.7165 14.8735L17.7117 14.8736ZM17.2107 13.926L17.7096 13.9262C19.0018 13.9122 20.0526 12.8512 20.0526 11.56C20.0526 10.2542 18.9898 9.19191 17.6834 9.19191C17.6276 9.19191 17.5679 9.19554 17.5169 9.19908C17.3913 9.20791 17.2671 9.16607 17.1722 9.08306C17.0773 9.00005 17.0194 8.88265 17.0114 8.75685C16.8743 6.62069 15.0883 4.94737 12.9453 4.94737C11.5082 4.94737 10.2046 5.68206 9.4583 6.91265C9.38276 7.03722 9.25407 7.12009 9.10939 7.13737C8.96467 7.15442 8.82016 7.10437 8.71742 7.00105C8.4701 6.75236 8.14079 6.61542 7.79015 6.61542C7.06899 6.61542 6.48227 7.20213 6.48227 7.92332C6.48227 8.12908 6.52897 8.32628 6.62107 8.50946C6.6934 8.65332 6.68768 8.82409 6.6059 8.96281C6.52411 9.10152 6.37745 9.18918 6.21654 9.19554C4.94412 9.24578 3.94737 10.2834 3.94737 11.5577C3.94737 12.8613 5.00381 13.9219 6.30237 13.9219H6.78947L17.2107 13.926Z" fill="#6EA4FD"/>
<path d="M10.3401 19.9348C10.2188 19.9348 10.0975 19.8885 10.005 19.7959C9.82013 19.6108 9.82029 19.3109 10.0054 19.126L11.1916 17.941C11.3767 17.7561 11.6766 17.7563 11.8615 17.9413C12.0464 18.1264 12.0462 18.4263 11.8611 18.6112L10.6749 19.7962C10.5824 19.8886 10.4613 19.9348 10.3401 19.9348Z" fill="#6EA4FD"/>
<path d="M6.21905 17.2348C6.09773 17.2348 5.97644 17.1885 5.88393 17.0959C5.69903 16.9108 5.6992 16.6109 5.88427 16.426L6.63232 15.6787C6.8174 15.4938 7.11731 15.494 7.3022 15.6791C7.4871 15.8641 7.48694 16.164 7.30186 16.3489L6.55382 17.0962C6.46135 17.1886 6.3402 17.2348 6.21905 17.2348Z" fill="#6EA4FD"/>
<path d="M12.8033 17.2348C12.682 17.2348 12.5607 17.1885 12.4682 17.0959C12.2833 16.9108 12.2834 16.6109 12.4685 16.426L13.2165 15.6787C13.4016 15.4938 13.7015 15.494 13.8864 15.6791C14.0713 15.8641 14.0712 16.164 13.8861 16.3489L13.138 17.0962C13.0456 17.1886 12.9244 17.2348 12.8033 17.2348Z" fill="#6EA4FD"/>
<path d="M14.9349 18.4268C14.8135 18.4268 14.6922 18.3805 14.5997 18.2878C14.4148 18.1027 14.415 17.8028 14.6001 17.6179L16.5419 15.6787C16.727 15.4938 17.0269 15.494 17.2118 15.6791C17.3966 15.8642 17.3964 16.1641 17.2113 16.349L15.2696 18.2882C15.1771 18.3806 15.056 18.4268 14.9349 18.4268Z" fill="#6EA4FD"/>
<path d="M7.78222 18.9478C7.6609 18.9478 7.53962 18.9015 7.4471 18.8089C7.26221 18.6238 7.26237 18.3239 7.44745 18.139L9.91023 15.6787C10.0953 15.4938 10.3952 15.494 10.5801 15.6791C10.765 15.8641 10.7649 16.164 10.5798 16.3489L8.11699 18.8092C8.02452 18.9016 7.90334 18.9478 7.78222 18.9478Z" fill="#6EA4FD"/>
</svg>
