<svg width="24" height="24" viewBox="0 0 24 24" fill="none" xmlns="http://www.w3.org/2000/svg">
<path d="M12.0036 15.6878C9.97213 15.6878 8.3194 14.0351 8.3194 12.0036C8.3194 9.97213 9.97213 8.3194 12.0036 8.3194C14.0351 8.3194 15.6878 9.97213 15.6878 12.0036C15.6878 14.0351 14.0351 15.6878 12.0036 15.6878Z" fill="#FFB20A"/>
<path d="M12 7.72632C11.7965 7.72632 11.6315 7.56137 11.6315 7.35789V5.36842C11.6315 5.16494 11.7965 5 12 5C12.2034 5 12.3684 5.16494 12.3684 5.36842V7.35789C12.3684 7.56137 12.2034 7.72632 12 7.72632Z" fill="#FFB20A"/>
<path d="M12 18.9999C11.7965 18.9999 11.6315 18.835 11.6315 18.6315V16.642C11.6315 16.4386 11.7965 16.2736 12 16.2736C12.2034 16.2736 12.3684 16.4386 12.3684 16.642V18.6315C12.3684 18.835 12.2034 18.9999 12 18.9999Z" fill="#FFB20A"/>
<path d="M7.35789 12.3684H5.36842C5.16494 12.3684 5 12.2034 5 12C5 11.7965 5.16494 11.6315 5.36842 11.6315H7.35789C7.56137 11.6315 7.72632 11.7965 7.72632 12C7.72632 12.2034 7.56137 12.3684 7.35789 12.3684Z" fill="#FFB20A"/>
<path d="M18.6316 12.3684H16.6421C16.4386 12.3684 16.2737 12.2034 16.2737 12C16.2737 11.7965 16.4386 11.6315 16.6421 11.6315H18.6316C18.8351 11.6315 19 11.7965 19 12C19 12.2034 18.8351 12.3684 18.6316 12.3684Z" fill="#FFB20A"/>
<path d="M15.262 9.10634C15.1678 9.10634 15.0735 9.07038 15.0015 8.99844C14.8577 8.85456 14.8577 8.62127 15.0015 8.47739L16.4287 7.05023C16.5726 6.90635 16.8058 6.90635 16.9497 7.05023C17.0936 7.19411 17.0936 7.42739 16.9497 7.57127L15.5226 8.99844C15.4506 9.07038 15.3563 9.10634 15.262 9.10634Z" fill="#FFB20A"/>
<path d="M7.3108 17.0576C7.21652 17.0576 7.12222 17.0217 7.05028 16.9497C6.90642 16.8059 6.90642 16.5726 7.05028 16.4287L8.47744 15.0015C8.62132 14.8576 8.85461 14.8576 8.99848 15.0015C9.14235 15.1454 9.14235 15.3787 8.99848 15.5226L7.57132 16.9497C7.49938 17.0217 7.40508 17.0576 7.3108 17.0576Z" fill="#FFB20A"/>
<path d="M8.73796 9.10634C8.64368 9.10634 8.54938 9.07038 8.47744 8.99844L7.05028 7.57127C6.90642 7.42739 6.90642 7.19411 7.05028 7.05023C7.19416 6.90635 7.42744 6.90635 7.57132 7.05023L8.99848 8.47739C9.14235 8.62127 9.14235 8.85456 8.99848 8.99844C8.92655 9.07038 8.83225 9.10634 8.73796 9.10634Z" fill="#FFB20A"/>
<path d="M16.6892 17.0576C16.5949 17.0576 16.5006 17.0217 16.4287 16.9497L15.0015 15.5226C14.8577 15.3787 14.8577 15.1454 15.0015 15.0015C15.1454 14.8576 15.3787 14.8576 15.5226 15.0015L16.9497 16.4287C17.0936 16.5726 17.0936 16.8059 16.9497 16.9497C16.8778 17.0217 16.7835 17.0576 16.6892 17.0576Z" fill="#FFB20A"/>
</svg>
