<svg width="24" height="24" viewBox="0 0 24 24" fill="none" xmlns="http://www.w3.org/2000/svg">
<path d="M13.9081 5.54106C13.6439 5.54106 13.4296 5.32682 13.4296 5.06254V2.47852C13.4296 2.21424 13.6439 2 13.9081 2C14.1724 2 14.3867 2.21424 14.3867 2.47852V5.06254C14.3867 5.32682 14.1724 5.54106 13.9081 5.54106Z" fill="#FFB20A"/>
<path d="M7.87876 11.5704H5.29474C5.03046 11.5704 4.81622 11.3561 4.81622 11.0919C4.81622 10.8276 5.03046 10.6133 5.29474 10.6133H7.87876C8.14304 10.6133 8.35728 10.8276 8.35728 11.0919C8.35728 11.3561 8.14304 11.5704 7.87876 11.5704Z" fill="#FFB20A"/>
<path d="M22.5215 11.5704H19.9375C19.6732 11.5704 19.459 11.3561 19.459 11.0919C19.459 10.8276 19.6732 10.6133 19.9375 10.6133H22.5215C22.7858 10.6133 23 10.8276 23 11.0919C23 11.3561 22.7858 11.5704 22.5215 11.5704Z" fill="#FFB20A"/>
<path d="M18.145 7.33348C18.0226 7.33348 17.9001 7.28677 17.8067 7.19334C17.6198 7.00646 17.6198 6.70346 17.8067 6.51658L19.6603 4.66292C19.8472 4.47605 20.1502 4.47605 20.3371 4.66292C20.524 4.8498 20.524 5.1528 20.3371 5.33967L18.4834 7.19334C18.39 7.28677 18.2675 7.33348 18.145 7.33348Z" fill="#FFB20A"/>
<path d="M9.67117 7.33348C9.54871 7.33348 9.42623 7.28677 9.33279 7.19334L7.47913 5.33967C7.29228 5.1528 7.29228 4.8498 7.47913 4.66292C7.666 4.47605 7.969 4.47605 8.15588 4.66292L10.0095 6.51658C10.1964 6.70346 10.1964 7.00646 10.0095 7.19334C9.9161 7.28677 9.79362 7.33348 9.67117 7.33348Z" fill="#FFB20A"/>
<path d="M19.9987 17.0329C19.8762 17.0329 19.7538 16.9862 19.6603 16.8928L17.8067 15.0391C17.6198 14.8523 17.6198 14.5493 17.8067 14.3624C17.9936 14.1755 18.2965 14.1755 18.4834 14.3624L20.3371 16.216C20.524 16.4029 20.524 16.7059 20.3371 16.8928C20.2436 16.9862 20.1212 17.0329 19.9987 17.0329Z" fill="#FFB20A"/>
<path d="M13.925 15.4811C11.2933 15.4811 9.15222 13.425 9.15222 10.8978C9.15222 8.37053 11.2933 6.31445 13.925 6.31445C16.5567 6.31445 18.6978 8.37053 18.6978 10.8978C18.6978 13.425 16.5567 15.4811 13.925 15.4811Z" fill="#FFB20A"/>
<path d="M4.3361 22.0978C2.49514 22.0857 1 20.5829 1 18.7479C1 17.1533 2.09997 15.8203 3.59736 15.4814C3.57301 15.3474 3.56079 15.2107 3.56079 15.0718C3.56079 13.8156 4.58281 12.7936 5.83907 12.7936C6.25633 12.7936 6.65627 12.9049 7.00521 13.1136C7.96134 11.8492 9.43667 11.1087 11.0468 11.1087C13.5633 11.1087 15.6844 12.9624 16.0608 15.4051C17.8025 15.5224 19.1838 16.9769 19.1838 18.7479C19.1838 20.5769 17.6958 22.0796 15.8668 22.0976L4.3361 22.0978ZM5.83907 13.7506C5.11054 13.7506 4.51783 14.3433 4.51783 15.0718C4.51783 15.2796 4.56501 15.4789 4.65805 15.6639C4.73111 15.8093 4.72534 15.9818 4.64272 16.1219C4.5601 16.262 4.41194 16.3506 4.24939 16.357C2.96397 16.4078 1.95704 17.458 1.95704 18.7479C1.95704 20.0587 3.0257 21.1322 4.33925 21.1408L15.8621 21.1406C17.1638 21.1277 18.2268 20.0544 18.2268 18.7479C18.2268 17.4282 17.1531 16.3545 15.8334 16.3545C15.7842 16.3545 15.7307 16.3566 15.6652 16.3612C15.5385 16.3698 15.4128 16.3278 15.3169 16.244C15.2211 16.1601 15.1626 16.0415 15.1545 15.9144C15.016 13.7563 13.2117 12.0657 11.0468 12.0657C9.59499 12.0657 8.27815 12.8079 7.52424 14.0509C7.44793 14.1768 7.31793 14.2605 7.17178 14.2779C7.02565 14.2952 6.87959 14.2446 6.77581 14.1402C6.52591 13.889 6.19324 13.7506 5.83907 13.7506Z" fill="#9EC7FF"/>
<path d="M5.83907 13.7506C5.11054 13.7506 4.51783 14.3433 4.51783 15.0718C4.51783 15.2796 4.56501 15.4789 4.65805 15.6639C4.73111 15.8093 4.72534 15.9818 4.64272 16.1219C4.5601 16.262 4.41194 16.3506 4.24939 16.357C2.96397 16.4078 1.95704 17.458 1.95704 18.7479C1.95704 20.0587 3.0257 21.1322 4.33925 21.1408L15.8621 21.1406C17.1638 21.1277 18.2268 20.0544 18.2268 18.7479C18.2268 17.4282 17.1531 16.3545 15.8334 16.3545C15.7842 16.3545 15.7307 16.3566 15.6652 16.3612C15.5385 16.3698 15.4128 16.3278 15.3169 16.244C15.2211 16.1601 15.1626 16.0415 15.1545 15.9144C15.016 13.7563 13.2117 12.0657 11.0468 12.0657C9.59499 12.0657 8.27815 12.8079 7.52424 14.0509C7.44793 14.1768 7.31793 14.2605 7.17178 14.2779C7.02565 14.2952 6.87959 14.2446 6.77581 14.1402C6.52591 13.889 6.19324 13.7506 5.83907 13.7506Z" fill="#9EC7FF"/>
</svg>
