<svg width="24" height="24" viewBox="0 0 24 24" fill="none" xmlns="http://www.w3.org/2000/svg">
<path d="M15.7849 13.571C15.6711 13.571 15.5582 13.5215 15.4808 13.4262C15.3445 13.2584 15.37 13.0118 15.5379 12.8755C16.2746 12.2772 16.6971 11.3905 16.6971 10.4426C16.6971 8.71557 15.2921 7.3105 13.565 7.3105C11.9675 7.3105 10.6294 8.50574 10.4524 10.0907C10.4284 10.3056 10.2348 10.4603 10.0198 10.4364C9.80497 10.4124 9.6502 10.2187 9.67421 10.0038C9.89549 8.02198 11.5682 6.52747 13.565 6.52747C15.7239 6.52747 17.4802 8.28381 17.4802 10.4426C17.4802 11.6274 16.9522 12.7357 16.0315 13.4834C15.9589 13.5423 15.8716 13.571 15.7849 13.571Z" fill="#FFB20A"/>
<path d="M13.5612 5.89723C13.345 5.89723 13.1697 5.72194 13.1697 5.50571V3.39152C13.1697 3.17528 13.345 3 13.5612 3C13.7774 3 13.9527 3.17528 13.9527 3.39152V5.50571C13.9527 5.72194 13.7774 5.89723 13.5612 5.89723Z" fill="#FFB20A"/>
<path d="M8.62809 10.8303H6.51389C6.29766 10.8303 6.12238 10.6551 6.12238 10.4388C6.12238 10.2226 6.29766 10.0473 6.51389 10.0473H8.62809C8.84432 10.0473 9.0196 10.2226 9.0196 10.4388C9.0196 10.6551 8.84432 10.8303 8.62809 10.8303Z" fill="#FFB20A"/>
<path d="M20.6085 10.8303H18.4943C18.2781 10.8303 18.1028 10.6551 18.1028 10.4388C18.1028 10.2226 18.2781 10.0473 18.4943 10.0473H20.6085C20.8247 10.0473 21 10.2226 21 10.4388C21 10.6551 20.8247 10.8303 20.6085 10.8303Z" fill="#FFB20A"/>
<path d="M17.0278 7.36376C16.9275 7.36376 16.8274 7.32555 16.7509 7.2491C16.598 7.0962 16.598 6.84829 16.7509 6.69539L18.2675 5.17876C18.4205 5.02586 18.6683 5.02586 18.8212 5.17876C18.9741 5.33166 18.9741 5.57957 18.8212 5.73247L17.3046 7.2491C17.2281 7.32555 17.128 7.36376 17.0278 7.36376Z" fill="#FFB20A"/>
<path d="M10.0946 7.36376C9.99442 7.36376 9.8942 7.32555 9.81775 7.2491L8.30112 5.73247C8.14824 5.57957 8.14824 5.33166 8.30112 5.17876C8.45402 5.02586 8.70193 5.02586 8.85483 5.17876L10.3715 6.69539C10.5243 6.84829 10.5243 7.0962 10.3715 7.2491C10.295 7.32555 10.1948 7.36376 10.0946 7.36376Z" fill="#FFB20A"/>
<path d="M18.5444 15.8135C18.4442 15.8135 18.344 15.7753 18.2675 15.6989L16.7509 14.1822C16.598 14.0293 16.598 13.7814 16.7509 13.6285C16.9038 13.4756 17.1517 13.4756 17.3046 13.6285L18.8212 15.1452C18.9741 15.2981 18.9741 15.546 18.8212 15.6989C18.7448 15.7753 18.6446 15.8135 18.5444 15.8135Z" fill="#FFB20A"/>
<path d="M5.72953 19.4437C4.2233 19.4338 3 18.2042 3 16.7028C3 15.3981 3.89997 14.3075 5.12511 14.0302C5.10519 13.9206 5.09519 13.8088 5.09519 13.6951C5.09519 12.6673 5.93139 11.8311 6.95924 11.8311C7.30063 11.8311 7.62786 11.9222 7.91335 12.0929C8.69564 11.0584 9.90273 10.4526 11.2201 10.4526C13.279 10.4526 15.0145 11.9692 15.3225 13.9678C16.7475 14.0638 17.8777 15.2538 17.8777 16.7028C17.8777 18.1993 16.6602 19.4287 15.1637 19.4435L5.72953 19.4437ZM6.95924 12.6141C6.36317 12.6141 5.87823 13.099 5.87823 13.6951C5.87823 13.8652 5.91682 14.0282 5.99295 14.1796C6.05273 14.2985 6.048 14.4396 5.98041 14.5543C5.91281 14.6689 5.79159 14.7414 5.65859 14.7466C4.60688 14.7882 3.78303 15.6474 3.78303 16.7028C3.78303 17.7753 4.65739 18.6536 5.73211 18.6607L15.1599 18.6605C16.2249 18.65 17.0946 17.7718 17.0946 16.7028C17.0946 15.623 16.2162 14.7446 15.1364 14.7446C15.0962 14.7446 15.0524 14.7463 14.9988 14.75C14.8952 14.7571 14.7923 14.7228 14.7139 14.6541C14.6354 14.5855 14.5876 14.4885 14.5809 14.3845C14.4676 12.6188 12.9914 11.2356 11.2201 11.2356C10.0323 11.2356 8.95485 11.8428 8.33802 12.8599C8.27558 12.9628 8.16921 13.0313 8.04964 13.0456C7.93008 13.0597 7.81058 13.0183 7.72566 12.9329C7.5212 12.7273 7.24901 12.6141 6.95924 12.6141Z" fill="#6EA4FD"/>
</svg>
