<svg width="24" height="24" viewBox="0 0 24 24" fill="none" xmlns="http://www.w3.org/2000/svg">
<path d="M18.8768 13.5101C18.8228 13.4562 18.7552 13.418 18.6812 13.3996C18.6072 13.3812 18.5296 13.3834 18.4567 13.4057C17.3643 13.7359 16.2027 13.7635 15.0959 13.4856C13.989 13.2077 12.9783 12.6346 12.1715 11.8276C11.3647 11.0205 10.7919 10.0097 10.5143 8.90274C10.2366 7.79582 10.2646 6.63432 10.595 5.54201C10.6171 5.46916 10.619 5.39169 10.6004 5.31787C10.5819 5.24405 10.5437 5.17664 10.4898 5.12286C10.436 5.06908 10.3685 5.03093 10.2947 5.0125C10.2208 4.99407 10.1434 4.99605 10.0705 5.01822C8.62213 5.46259 7.35068 6.35229 6.43698 7.56081C5.40122 8.93615 4.89713 10.6393 5.01748 12.3569C5.13784 14.0744 5.87455 15.6906 7.09199 16.9081C8.30944 18.1255 9.92568 18.8622 11.6432 18.9826C13.3607 19.1029 15.0639 18.5988 16.4392 17.5631C17.6478 16.6494 18.5375 15.3779 18.9818 13.9295C19.004 13.8566 19.0059 13.7791 18.9874 13.7052C18.9689 13.6314 18.9307 13.5639 18.8768 13.5101Z" fill="#FFDD80"/>
</svg>
