<svg width="24" height="24" viewBox="0 0 24 24" fill="none" xmlns="http://www.w3.org/2000/svg">
<path d="M17.529 15.4776L16.9998 15.4774L5.48584 15.4731C3.56375 15.4731 2 13.905 2 11.9776C2 10.3137 3.14932 8.92288 4.71394 8.56917C4.68853 8.42922 4.67573 8.2864 4.67573 8.14128C4.67573 6.82864 5.74363 5.76072 7.05627 5.76072C7.49231 5.76072 7.91016 5.87703 8.27473 6.09507C9.27385 4.77383 10.8154 4 12.4978 4C15.127 4 17.3433 5.93643 17.7367 8.48831C19.5568 8.61072 21 10.13 21 11.98C21 13.8898 19.4452 15.4588 17.5341 15.4776L17.529 15.4776ZM17.0002 14.4774L17.5268 14.4776C18.8907 14.4629 20 13.343 20 11.98C20 10.6017 18.8781 9.48035 17.4992 9.48035C17.4402 9.48035 17.3772 9.48418 17.3234 9.48792C17.1908 9.49724 17.0597 9.45308 16.9595 9.36545C16.8594 9.27783 16.7983 9.15391 16.7898 9.02112C16.6451 6.76628 14.7599 5 12.4978 5C10.9809 5 9.60491 5.77551 8.81709 7.07446C8.73735 7.20596 8.60151 7.29343 8.4488 7.31167C8.29604 7.32966 8.14351 7.27683 8.03506 7.16777C7.774 6.90527 7.42639 6.76072 7.05627 6.76072C6.29504 6.76072 5.67573 7.38003 5.67573 8.14128C5.67573 8.35847 5.72502 8.56663 5.82224 8.75999C5.89858 8.91184 5.89255 9.09209 5.80623 9.23853C5.7199 9.38494 5.56509 9.47747 5.39524 9.48418C4.05212 9.53721 3 10.6324 3 11.9776C3 13.3536 4.11514 14.4731 5.48584 14.4731H6L17.0002 14.4774Z" fill="#9EC7FF"/>
<path d="M17.0002 14.4774L17.5268 14.4776C18.8907 14.4629 20 13.343 20 11.98C20 10.6017 18.8781 9.48035 17.4992 9.48035C17.4402 9.48035 17.3772 9.48418 17.3234 9.48792C17.1908 9.49724 17.0597 9.45308 16.9595 9.36545C16.8594 9.27783 16.7983 9.15391 16.7898 9.02112C16.6451 6.76628 14.7599 5 12.4978 5C10.9809 5 9.60491 5.77551 8.81709 7.07446C8.73735 7.20596 8.60151 7.29343 8.4488 7.31167C8.29604 7.32966 8.14351 7.27683 8.03506 7.16777C7.774 6.90527 7.42639 6.76072 7.05627 6.76072C6.29504 6.76072 5.67573 7.38003 5.67573 8.14128C5.67573 8.35847 5.72502 8.56663 5.82224 8.75999C5.89858 8.91184 5.89255 9.09209 5.80623 9.23853C5.7199 9.38494 5.56509 9.47747 5.39524 9.48418C4.05212 9.53721 3 10.6324 3 11.9776C3 13.3536 4.11514 14.4731 5.48584 14.4731H6L17.0002 14.4774Z" fill="#9EC7FF"/>
<path d="M9.74792 20.82C9.61987 20.82 9.49185 20.7712 9.39419 20.6734C9.19902 20.478 9.19919 20.1614 9.39456 19.9663L10.6467 18.7155C10.842 18.5203 11.1586 18.5205 11.3538 18.7158C11.5489 18.9112 11.5488 19.2278 11.3534 19.4229L10.1013 20.6737C10.0037 20.7713 9.87578 20.82 9.74792 20.82Z" fill="#9EC7FF"/>
<path d="M5.39789 17.9701C5.26984 17.9701 5.14181 17.9212 5.04415 17.8234C4.84899 17.6281 4.84916 17.3115 5.04452 17.1164L5.83412 16.3276C6.02948 16.1324 6.34606 16.1325 6.54122 16.3279C6.73639 16.5233 6.73622 16.8398 6.54086 17.035L5.75126 17.8238C5.65365 17.9213 5.52577 17.9701 5.39789 17.9701Z" fill="#9EC7FF"/>
<path d="M12.3479 17.9701C12.2198 17.9701 12.0918 17.9212 11.9942 17.8234C11.799 17.6281 11.7992 17.3115 11.9945 17.1164L12.7841 16.3276C12.9795 16.1324 13.2961 16.1325 13.4912 16.3279C13.6864 16.5233 13.6862 16.8398 13.4909 17.035L12.7013 17.8238C12.6037 17.9213 12.4758 17.9701 12.3479 17.9701Z" fill="#9EC7FF"/>
<path d="M14.598 19.2283C14.4699 19.2283 14.3418 19.1794 14.2442 19.0816C14.049 18.8862 14.0493 18.5696 14.2446 18.3745L16.2943 16.3275C16.4896 16.1324 16.8062 16.1326 17.0014 16.328C17.1965 16.5233 17.1963 16.8399 17.0009 17.035L14.9513 19.082C14.8537 19.1795 14.7258 19.2283 14.598 19.2283Z" fill="#9EC7FF"/>
<path d="M7.04791 19.7782C6.91986 19.7782 6.79183 19.7294 6.69418 19.6316C6.49901 19.4362 6.49918 19.1197 6.69454 18.9245L9.29415 16.3276C9.48951 16.1324 9.80609 16.1325 10.0013 16.3279C10.1964 16.5233 10.1963 16.8398 10.0009 17.035L7.40128 19.6319C7.30367 19.7295 7.17577 19.7782 7.04791 19.7782Z" fill="#9EC7FF"/>
</svg>
