<svg width="24" height="24" viewBox="0 0 24 24" fill="none" xmlns="http://www.w3.org/2000/svg">
<path d="M21.7583 13.1898C21.7294 13.1338 21.6859 13.0867 21.6323 13.0536C21.5787 13.0205 21.5172 13.0026 21.4542 13.0018C20.5119 12.9862 19.5915 12.7151 18.7911 12.2176C17.9907 11.7201 17.3403 11.0147 16.9092 10.1767C16.4781 9.33868 16.2825 8.39938 16.3431 7.45892C16.4038 6.51846 16.7184 5.61207 17.2536 4.83635C17.2893 4.78464 17.3103 4.72418 17.3144 4.66146C17.3184 4.59873 17.3053 4.53609 17.2765 4.48022C17.2477 4.42435 17.2043 4.37735 17.1509 4.34425C17.0974 4.31114 17.036 4.29318 16.9732 4.29226C15.7221 4.27667 14.498 4.6559 13.4749 5.37601C12.3137 6.19655 11.488 7.40891 11.1498 8.78991C10.8116 10.1709 10.9836 11.6276 11.6342 12.8919C12.2848 14.1561 13.3701 15.1428 14.6905 15.6703C16.0108 16.1978 17.4773 16.2307 18.8199 15.7628C20.0006 15.3488 21.0207 14.5732 21.7352 13.5461C21.771 13.4944 21.792 13.4339 21.7961 13.3711C21.8002 13.3084 21.7871 13.2457 21.7583 13.1898Z" fill="#FFDD80"/>
<path d="M3.4018 21.984C1.52459 21.9717 0 20.4393 0 18.5681C0 16.942 1.12161 15.5829 2.64854 15.2373C2.62371 15.1006 2.61123 14.9612 2.61123 14.8196C2.61123 13.5386 3.6534 12.4965 4.93435 12.4965C5.35988 12.4965 5.76767 12.61 6.12349 12.8228C7.09847 11.5335 8.60286 10.7784 10.2447 10.7784C12.8107 10.7784 14.9737 12.6687 15.3574 15.1594C17.1335 15.2791 18.542 16.7622 18.542 18.5681C18.542 20.4331 17.0246 21.9654 15.1596 21.9838L3.4018 21.984ZM4.93435 13.4724C4.19148 13.4724 3.58712 14.0767 3.58712 14.8196C3.58712 15.0315 3.63525 15.2346 3.73012 15.4234C3.8046 15.5716 3.79874 15.7475 3.71449 15.8904C3.63024 16.0333 3.47914 16.1236 3.31341 16.1301C2.00268 16.1819 0.975892 17.2528 0.975892 18.5681C0.975892 19.9047 2.06557 20.9993 3.405 21.0081L15.1548 21.0079C16.4822 20.9948 17.5661 19.9003 17.5661 18.5681C17.5661 17.2224 16.4712 16.1275 15.1255 16.1275C15.0754 16.1275 15.0209 16.1297 14.954 16.1343C14.825 16.1433 14.6967 16.1003 14.5989 16.0148C14.5012 15.9293 14.4415 15.8084 14.4332 15.6788C14.2921 13.4782 12.4522 11.7543 10.2447 11.7543C8.7643 11.7543 7.4215 12.5111 6.6527 13.7786C6.57488 13.907 6.44232 13.9923 6.29331 14.0101C6.14426 14.0278 5.9954 13.9761 5.88952 13.8697C5.63473 13.6135 5.2955 13.4724 4.93435 13.4724Z" fill="#9EC7FF"/>
<path d="M4.93435 13.4724C4.19148 13.4724 3.58712 14.0767 3.58712 14.8196C3.58712 15.0315 3.63525 15.2346 3.73012 15.4234C3.8046 15.5716 3.79874 15.7475 3.71449 15.8904C3.63024 16.0333 3.47914 16.1236 3.31341 16.1301C2.00268 16.1819 0.975892 17.2528 0.975892 18.5681C0.975892 19.9047 2.06557 20.9993 3.405 21.0081L15.1548 21.0079C16.4822 20.9948 17.5661 19.9003 17.5661 18.5681C17.5661 17.2224 16.4712 16.1275 15.1255 16.1275C15.0754 16.1275 15.0209 16.1297 14.954 16.1343C14.825 16.1433 14.6967 16.1003 14.5989 16.0148C14.5012 15.9293 14.4415 15.8084 14.4332 15.6788C14.2921 13.4782 12.4522 11.7543 10.2447 11.7543C8.7643 11.7543 7.4215 12.5111 6.6527 13.7786C6.57488 13.907 6.44232 13.9923 6.29331 14.0101C6.14426 14.0278 5.9954 13.9761 5.88952 13.8697C5.63473 13.6135 5.2955 13.4724 4.93435 13.4724Z" fill="#9EC7FF"/>
</svg>
