<svg width="24" height="24" viewBox="0 0 24 24" fill="none" xmlns="http://www.w3.org/2000/svg">
<path d="M12.0047 16.7415C9.39276 16.7415 7.26782 14.6166 7.26782 12.0047C7.26782 9.39276 9.39276 7.26782 12.0047 7.26782C14.6166 7.26782 16.7415 9.39276 16.7415 12.0047C16.7415 14.6166 14.6166 16.7415 12.0047 16.7415Z" fill="#FFB20A"/>
<path d="M11.9999 6.50526C11.7383 6.50526 11.5262 6.29319 11.5262 6.03158V3.47368C11.5262 3.21207 11.7383 3 11.9999 3C12.2615 3 12.4736 3.21207 12.4736 3.47368V6.03158C12.4736 6.29319 12.2615 6.50526 11.9999 6.50526Z" fill="#FFB20A"/>
<path d="M11.9999 20.9999C11.7383 20.9999 11.5262 20.7878 11.5262 20.5262V17.9683C11.5262 17.7067 11.7383 17.4946 11.9999 17.4946C12.2615 17.4946 12.4736 17.7067 12.4736 17.9683V20.5262C12.4736 20.7878 12.2615 20.9999 11.9999 20.9999Z" fill="#FFB20A"/>
<path d="M6.03158 12.4736H3.47368C3.21207 12.4736 3 12.2615 3 11.9999C3 11.7383 3.21207 11.5262 3.47368 11.5262H6.03158C6.29319 11.5262 6.50526 11.7383 6.50526 11.9999C6.50526 12.2615 6.29319 12.4736 6.03158 12.4736Z" fill="#FFB20A"/>
<path d="M20.5263 12.4736H17.9684C17.7068 12.4736 17.4948 12.2615 17.4948 11.9999C17.4948 11.7383 17.7068 11.5262 17.9684 11.5262H20.5263C20.7879 11.5262 21 11.7383 21 11.9999C21 12.2615 20.7879 12.4736 20.5263 12.4736Z" fill="#FFB20A"/>
<path d="M16.194 8.27956C16.0728 8.27956 15.9516 8.23332 15.8591 8.14083C15.6741 7.95584 15.6741 7.6559 15.8591 7.47092L17.694 5.63599C17.879 5.45101 18.1789 5.45101 18.3639 5.63599C18.5489 5.82098 18.5489 6.12092 18.3639 6.3059L16.529 8.14083C16.4365 8.23332 16.3152 8.27956 16.194 8.27956Z" fill="#FFB20A"/>
<path d="M5.97105 18.5026C5.84983 18.5026 5.72859 18.4564 5.6361 18.3639C5.45113 18.1789 5.45113 17.879 5.6361 17.694L7.47102 15.8591C7.65601 15.6741 7.95595 15.6741 8.14093 15.8591C8.3259 16.0441 8.3259 16.344 8.14093 16.529L6.30601 18.3639C6.21352 18.4564 6.09227 18.5026 5.97105 18.5026Z" fill="#FFB20A"/>
<path d="M7.80598 8.27956C7.68476 8.27956 7.56352 8.23332 7.47102 8.14083L5.6361 6.3059C5.45113 6.12092 5.45113 5.82098 5.6361 5.63599C5.82108 5.45101 6.12102 5.45101 6.30601 5.63599L8.14093 7.47092C8.3259 7.6559 8.3259 7.95584 8.14093 8.14083C8.04844 8.23332 7.9272 8.27956 7.80598 8.27956Z" fill="#FFB20A"/>
<path d="M18.0289 18.5026C17.9077 18.5026 17.7865 18.4564 17.694 18.3639L15.8591 16.529C15.6741 16.344 15.6741 16.0441 15.8591 15.8591C16.044 15.6741 16.344 15.6741 16.529 15.8591L18.3639 17.694C18.5489 17.879 18.5489 18.1789 18.3639 18.3639C18.2714 18.4564 18.1502 18.5026 18.0289 18.5026Z" fill="#FFB20A"/>
</svg>
