<svg width="24" height="24" viewBox="0 0 24 24" fill="none" xmlns="http://www.w3.org/2000/svg">
<path d="M20.8517 9.76521C20.824 9.71156 20.7823 9.66646 20.731 9.63473C20.6796 9.603 20.6206 9.58584 20.5603 9.5851C19.6572 9.57009 18.7752 9.31034 18.0082 8.83355C17.2411 8.35677 16.6178 7.6808 16.2047 6.87768C15.7915 6.07457 15.604 5.17441 15.6621 4.27313C15.7203 3.37185 16.0218 2.50323 16.5347 1.75984C16.5689 1.71028 16.5891 1.65234 16.5929 1.59223C16.5968 1.53212 16.5843 1.47209 16.5567 1.41855C16.5291 1.365 16.4874 1.31996 16.4362 1.28824C16.385 1.25651 16.3262 1.23929 16.266 1.23842C15.067 1.22348 13.8939 1.5869 12.9134 2.27701C11.8007 3.06336 11.0094 4.2252 10.6853 5.54867C10.3611 6.87213 10.526 8.26814 11.1494 9.47971C11.7729 10.6913 12.8131 11.6369 14.0784 12.1424C15.3437 12.6479 16.7491 12.6794 18.0357 12.231C19.1672 11.8343 20.1448 11.0909 20.8296 10.1067C20.8638 10.0571 20.884 9.99917 20.8879 9.93902C20.8918 9.87887 20.8793 9.81879 20.8517 9.76521Z" fill="#FFDD80"/>
<path d="M3.28764 18.1829C1.47335 18.1709 0 16.69 0 14.8817C0 13.3236 1.06583 12.0189 2.52242 11.6714C2.50266 11.5508 2.49272 11.428 2.49272 11.3034C2.49272 10.0583 3.50563 9.0454 4.75065 9.0454C5.15194 9.0454 5.53702 9.14928 5.87544 9.34439C6.81432 8.12093 8.25203 7.40533 9.82002 7.40533C12.2786 7.40533 14.3528 9.20843 14.7355 11.5899C16.4367 11.7211 17.7809 13.1474 17.7809 14.8817C17.7809 16.6841 16.3146 18.1648 14.5123 18.1826L3.28764 18.1829ZM4.75065 10.0575C4.06372 10.0575 3.50484 10.6164 3.50484 11.3034C3.50484 11.4993 3.54931 11.6871 3.63703 11.8617C3.71433 12.0154 3.7082 12.1978 3.62082 12.346C3.53345 12.4942 3.37674 12.5878 3.20486 12.5946C1.9753 12.6432 1.01211 13.6478 1.01211 14.8817C1.01211 16.1356 2.03441 17.1625 3.291 17.1708L14.5073 17.1705C15.752 17.1583 16.7688 16.1315 16.7688 14.8817C16.7688 13.6192 15.7417 12.5922 14.4793 12.5922C14.4323 12.5922 14.3812 12.5942 14.3183 12.5986C14.1835 12.608 14.0514 12.5633 13.9501 12.4746C13.8487 12.3859 13.7869 12.2605 13.7783 12.1261C13.6448 10.0465 11.9062 8.41745 9.82002 8.41745C8.421 8.41745 7.152 9.1326 6.42543 10.3305C6.34473 10.4636 6.20725 10.5521 6.05271 10.5706C5.89823 10.5889 5.74374 10.5353 5.63393 10.4249C5.39835 10.188 5.08463 10.0575 4.75065 10.0575Z" fill="#9EC7FF"/>
<path d="M4.75065 10.0575C4.06372 10.0575 3.50484 10.6164 3.50484 11.3034C3.50484 11.4993 3.54931 11.6871 3.63703 11.8617C3.71433 12.0154 3.7082 12.1978 3.62082 12.346C3.53345 12.4942 3.37674 12.5878 3.20486 12.5946C1.9753 12.6432 1.01211 13.6478 1.01211 14.8817C1.01211 16.1356 2.03441 17.1625 3.291 17.1708L14.5073 17.1705C15.752 17.1583 16.7688 16.1315 16.7688 14.8817C16.7688 13.6192 15.7417 12.5922 14.4793 12.5922C14.4323 12.5922 14.3812 12.5942 14.3183 12.5986C14.1835 12.608 14.0514 12.5633 13.9501 12.4746C13.8487 12.3859 13.7869 12.2605 13.7783 12.1261C13.6448 10.0465 11.9062 8.41745 9.82002 8.41745C8.421 8.41745 7.152 9.1326 6.42543 10.3305C6.34473 10.4636 6.20725 10.5521 6.05271 10.5706C5.89823 10.5889 5.74374 10.5353 5.63393 10.4249C5.39835 10.188 5.08463 10.0575 4.75065 10.0575Z" fill="#9EC7FF"/>
<path d="M7.85217 23.4211C7.72255 23.4211 7.59297 23.3716 7.49418 23.2727C7.29665 23.0749 7.2968 22.7545 7.49453 22.557L8.66098 21.3918C8.8587 21.1942 9.17919 21.1944 9.37662 21.3921C9.57415 21.5898 9.574 21.9103 9.37627 22.1078L8.20982 23.273C8.11103 23.3717 7.9816 23.4211 7.85217 23.4211Z" fill="#9EC7FF"/>
<path d="M3.79963 20.7661C3.67 20.7661 3.54042 20.7166 3.44158 20.6177C3.2441 20.42 3.24425 20.0995 3.44198 19.902L4.17759 19.1672C4.37532 18.9697 4.69575 18.9699 4.89328 19.1676C5.09076 19.3653 5.09062 19.6857 4.89289 19.8833L4.15728 20.6181C4.05849 20.7168 3.92906 20.7661 3.79963 20.7661Z" fill="#9EC7FF"/>
<path d="M10.2743 20.7661C10.1447 20.7661 10.0151 20.7166 9.9163 20.6177C9.71877 20.42 9.71892 20.0996 9.91664 19.902L10.6522 19.1672C10.8499 18.9697 11.1703 18.9698 11.3679 19.1676C11.5654 19.3653 11.5652 19.6857 11.3675 19.8832L10.6319 20.618C10.5332 20.7167 10.4037 20.7661 10.2743 20.7661Z" fill="#9EC7FF"/>
<path d="M12.3703 21.9382C12.2407 21.9382 12.1111 21.8887 12.0123 21.7897C11.8147 21.592 11.8149 21.2716 12.0127 21.0741L13.9221 19.1671C14.1199 18.9696 14.4404 18.9698 14.6378 19.1676C14.8353 19.3653 14.8351 19.6857 14.6373 19.8832L12.7279 21.7902C12.6291 21.8889 12.4997 21.9382 12.3703 21.9382Z" fill="#9EC7FF"/>
<path d="M5.33679 22.4506C5.20717 22.4506 5.07759 22.4011 4.9788 22.3022C4.78127 22.1045 4.78142 21.784 4.97914 21.5865L7.40095 19.1672C7.59868 18.9697 7.91916 18.9698 8.1166 19.1676C8.31413 19.3653 8.31398 19.6857 8.11625 19.8832L5.69444 22.3025C5.59565 22.4012 5.46622 22.4506 5.33679 22.4506Z" fill="#9EC7FF"/>
</svg>
